<svg xmlns="http://www.w3.org/2000/svg" xmlns:xlink="http://www.w3.org/1999/xlink" width="610" height="567.636" viewBox="0 0 610 567.636">
  <defs>
    <clipPath id="clip-path">
      <rect id="Rectángulo_385119" data-name="Rectángulo 385119" width="610" height="567.636" fill="none"/>
    </clipPath>
    <clipPath id="clip-path-2">
      <rect id="Rectángulo_385124" data-name="Rectángulo 385124" width="146" height="136.453" fill="#eba325"/>
    </clipPath>
  </defs>
  <g id="Grupo_1084410" data-name="Grupo 1084410" transform="translate(-495 -2457)">
    <g id="Grupo_1083944" data-name="Grupo 1083944" transform="translate(495 2457)">
      <g id="Grupo_1083943" data-name="Grupo 1083943" clip-path="url(#clip-path)">
        <path id="Trazado_838231" data-name="Trazado 838231" d="M164.875,156.332a88.365,88.365,0,1,0,0,124.967,88.366,88.366,0,0,0,0-124.967m3.737,70.364a12.72,12.72,0,1,1,12.719-12.719A12.72,12.72,0,0,1,168.612,226.7" transform="translate(7.41 68.921)" fill="#03386e"/>
        <path id="Trazado_838232" data-name="Trazado 838232" d="M3.057,224.617A3.056,3.056,0,0,1,0,221.56,103.254,103.254,0,0,1,103.136,118.424a3.057,3.057,0,0,1,0,6.113A97.134,97.134,0,0,0,6.113,221.56a3.056,3.056,0,0,1-3.057,3.057" transform="translate(0 62.567)" fill="#03386e"/>
        <path id="Trazado_838233" data-name="Trazado 838233" d="M230.845,254.939a89,89,0,1,0,89,89,89,89,0,0,0-89-89m-1.325,39.434a13.354,13.354,0,1,1,13.353-13.355,13.354,13.354,0,0,1-13.353,13.355" transform="translate(74.94 134.692)" fill="#727997"/>
        <path id="Trazado_838234" data-name="Trazado 838234" d="M159.659,413.164a3.045,3.045,0,0,1-2.161-.9,103.934,103.934,0,0,1,0-146.816,3.057,3.057,0,1,1,4.322,4.324,97.815,97.815,0,0,0,0,138.17,3.057,3.057,0,0,1-2.161,5.218" transform="translate(67.173 139.774)" fill="#727997"/>
        <path id="Trazado_838235" data-name="Trazado 838235" d="M420.4,150.018a87.657,87.657,0,1,0,0,123.966,87.656,87.656,0,0,0,0-123.966M294.5,228.905a13.256,13.256,0,1,1,13.255-13.255A13.256,13.256,0,0,1,294.5,228.905" transform="translate(143.051 65.694)" fill="#0c5e46"/>
        <path id="Trazado_838236" data-name="Trazado 838236" d="M333.256,290.129a3.057,3.057,0,0,1,0-6.113,96.287,96.287,0,0,0,96.178-96.178,3.057,3.057,0,1,1,6.113,0A102.407,102.407,0,0,1,333.256,290.129" transform="translate(174.455 97.626)" fill="#0c5e46"/>
        <path id="Trazado_838237" data-name="Trazado 838237" d="M229.918,0a88.525,88.525,0,1,0,88.526,88.526A88.525,88.525,0,0,0,229.918,0m-.16,164.658A13.256,13.256,0,1,1,243.013,151.4a13.255,13.255,0,0,1-13.255,13.255" transform="translate(74.703 0)" fill="#6debff"/>
        <path id="Trazado_838238" data-name="Trazado 838238" d="M262.722,149.628a3.057,3.057,0,0,1-2.393-4.955A97.506,97.506,0,0,0,244.5,7.851a3.057,3.057,0,0,1,3.8-4.791,103.623,103.623,0,0,1,16.819,145.41,3.048,3.048,0,0,1-2.4,1.158" transform="translate(128.566 1.267)" fill="#6debff"/>
        <path id="Trazado_838239" data-name="Trazado 838239" d="M383.855,232.279c0-74.977-61-135.976-135.977-135.976S111.9,157.3,111.9,232.279s61,135.974,135.976,135.974,135.977-61,135.977-135.974M247.878,358.97A126.691,126.691,0,1,1,374.569,232.279,126.834,126.834,0,0,1,247.878,358.97" transform="translate(59.121 50.88)" fill="#ccc"/>
        <path id="Trazado_838240" data-name="Trazado 838240" d="M248.406,95.3c-75.821,0-137.5,61.683-137.5,137.5s61.683,137.5,137.5,137.5,137.5-61.685,137.5-137.5S324.227,95.3,248.406,95.3M112.43,232.805c0-74.977,61-135.974,135.976-135.974s135.976,61,135.976,135.974-61,135.976-135.976,135.976-135.976-61-135.976-135.976" transform="translate(58.593 50.352)" fill="#fff"/>
        <path id="Trazado_838241" data-name="Trazado 838241" d="M244.667,102.377A126.691,126.691,0,1,0,371.359,229.068,126.834,126.834,0,0,0,244.667,102.377M119.505,229.068A125.163,125.163,0,1,1,244.667,354.231,125.3,125.3,0,0,1,119.505,229.068" transform="translate(62.331 54.089)" fill="#fff"/>
        <path id="Trazado_838242" data-name="Trazado 838242" d="M127.276,188.211a8.994,8.994,0,1,1-8.994-8.994,8.995,8.995,0,0,1,8.994,8.994" transform="translate(57.74 94.686)" fill="#5059ab"/>
        <path id="Trazado_838243" data-name="Trazado 838243" d="M211.917,275.269a9.442,9.442,0,1,1-9.442-9.444,9.442,9.442,0,0,1,9.442,9.444" transform="translate(101.985 140.444)" fill="#14a0c0"/>
        <path id="Trazado_838244" data-name="Trazado 838244" d="M298.909,187.327a9.373,9.373,0,1,1-9.373-9.375,9.374,9.374,0,0,1,9.373,9.375" transform="translate(148.018 94.018)" fill="#01cc9b"/>
        <path id="Trazado_838245" data-name="Trazado 838245" d="M209.08,95.675a9.374,9.374,0,1,1-13.257,0,9.375,9.375,0,0,1,13.257,0" transform="translate(102.009 49.098)" fill="#7de314"/>
      </g>
    </g>
    <path id="Trazado_838951" data-name="Trazado 838951" d="M21.766,17H19.422L14.859,9.516V17H12.516V5.625h2.344l4.57,7.5v-7.5h2.336Zm1.547-4.3a5.013,5.013,0,0,1,.484-2.242A3.546,3.546,0,0,1,25.191,8.93,4.069,4.069,0,0,1,27.3,8.391,3.849,3.849,0,0,1,30.1,9.438,4.2,4.2,0,0,1,31.3,12.281l.016.578a4.418,4.418,0,0,1-1.086,3.121,3.775,3.775,0,0,1-2.914,1.176A3.793,3.793,0,0,1,24.4,15.984a4.5,4.5,0,0,1-1.09-3.187Zm2.258.16a3.16,3.16,0,0,0,.453,1.843,1.628,1.628,0,0,0,2.578.008,3.457,3.457,0,0,0,.461-2.015A3.128,3.128,0,0,0,28.6,10.86a1.5,1.5,0,0,0-1.3-.649,1.474,1.474,0,0,0-1.281.646A3.516,3.516,0,0,0,25.57,12.856Zm10.8-.145a4.954,4.954,0,0,1,.926-3.133,3,3,0,0,1,2.5-1.187,2.631,2.631,0,0,1,2.164.953l.094-.8h2.047v8.172a3.613,3.613,0,0,1-.5,1.93,3.236,3.236,0,0,1-1.418,1.25,4.985,4.985,0,0,1-2.141.43,4.635,4.635,0,0,1-1.812-.371A3.217,3.217,0,0,1,36.883,19l1-1.375a2.645,2.645,0,0,0,2.047.945,1.936,1.936,0,0,0,1.4-.48,1.8,1.8,0,0,0,.5-1.363v-.453a2.612,2.612,0,0,1-2.055.883,2.992,2.992,0,0,1-2.465-1.191,4.953,4.953,0,0,1-.941-3.16Zm2.258.168a3.085,3.085,0,0,0,.461,1.8,1.466,1.466,0,0,0,1.266.653,1.568,1.568,0,0,0,1.477-.775V11a1.564,1.564,0,0,0-1.461-.775,1.476,1.476,0,0,0-1.277.665A3.477,3.477,0,0,0,38.625,12.879Zm11.953-2.215a6.134,6.134,0,0,0-.812-.062,1.654,1.654,0,0,0-1.68.867V17H45.828V8.547h2.133l.063,1.008a2.092,2.092,0,0,1,1.883-1.164,2.366,2.366,0,0,1,.7.1ZM56.563,17a2.507,2.507,0,0,1-.227-.758,2.732,2.732,0,0,1-2.133.914,3,3,0,0,1-2.059-.719,2.312,2.312,0,0,1-.816-1.812,2.389,2.389,0,0,1,1-2.062,4.915,4.915,0,0,1,2.879-.727h1.039v-.484a1.393,1.393,0,0,0-.3-.937,1.183,1.183,0,0,0-.949-.352,1.345,1.345,0,0,0-.895.273.929.929,0,0,0-.324.75H51.516a2.268,2.268,0,0,1,.453-1.359,3,3,0,0,1,1.281-.98,4.669,4.669,0,0,1,1.859-.355,3.689,3.689,0,0,1,2.48.785,2.747,2.747,0,0,1,.918,2.207v3.664a4.041,4.041,0,0,0,.336,1.82V17ZM54.7,15.43a1.945,1.945,0,0,0,.922-.223,1.462,1.462,0,0,0,.625-.6V13.156H55.4q-1.7,0-1.8,1.172l-.008.133a.9.9,0,0,0,.3.7A1.153,1.153,0,0,0,54.7,15.43ZM55.555,5h2.461L55.852,7.422H54.016Zm5.234,12V10.2H59.531V8.547h1.258V8.156A3.17,3.17,0,0,1,61.77,5.7a3.945,3.945,0,0,1,2.723-.863,9.031,9.031,0,0,1,2.563.461l-.328,1.867a10,10,0,0,0-1.187-.293,5.835,5.835,0,0,0-.906-.066q-1.578,0-1.578,1.4v.344h1.664V10.2H63.055V17Zm7.32,0H65.844V8.547h2.266Zm5.383-1.664a1.481,1.481,0,0,0,1.016-.344,1.2,1.2,0,0,0,.406-.914h2.117a2.9,2.9,0,0,1-.469,1.574A3.093,3.093,0,0,1,75.3,16.762a3.949,3.949,0,0,1-1.77.395A3.67,3.67,0,0,1,70.672,16a4.56,4.56,0,0,1-1.047-3.184v-.148a4.508,4.508,0,0,1,1.039-3.117,3.627,3.627,0,0,1,2.852-1.164,3.555,3.555,0,0,1,2.543.9,3.2,3.2,0,0,1,.973,2.4H74.914a1.551,1.551,0,0,0-.406-1.072,1.51,1.51,0,0,0-2.223.163,3.333,3.333,0,0,0-.4,1.866v.235a3.375,3.375,0,0,0,.4,1.878A1.377,1.377,0,0,0,73.492,15.336ZM77.969,12.7a5.013,5.013,0,0,1,.484-2.242A3.546,3.546,0,0,1,79.848,8.93a4.069,4.069,0,0,1,2.113-.539,3.849,3.849,0,0,1,2.793,1.047,4.2,4.2,0,0,1,1.207,2.844l.016.578a4.418,4.418,0,0,1-1.086,3.121,4.209,4.209,0,0,1-5.832,0,4.5,4.5,0,0,1-1.09-3.187Zm2.258.16A3.16,3.16,0,0,0,80.68,14.7a1.628,1.628,0,0,0,2.578.008,3.457,3.457,0,0,0,.461-2.015,3.128,3.128,0,0,0-.461-1.831,1.5,1.5,0,0,0-1.3-.649,1.474,1.474,0,0,0-1.281.646A3.516,3.516,0,0,0,80.227,12.856ZM4.527,32.547l.07.945a2.971,2.971,0,0,1,2.43-1.1A2.255,2.255,0,0,1,9.27,33.68a2.9,2.9,0,0,1,2.539-1.289,2.521,2.521,0,0,1,2.047.8,3.681,3.681,0,0,1,.672,2.41V41H12.262V35.609a1.61,1.61,0,0,0-.281-1.051,1.246,1.246,0,0,0-.992-.332,1.409,1.409,0,0,0-1.406.969L9.59,41H7.332V35.617a1.59,1.59,0,0,0-.289-1.062,1.259,1.259,0,0,0-.984-.328,1.463,1.463,0,0,0-1.391.8V41H2.41V32.547Zm16.8,7.594a2.831,2.831,0,0,1-2.312,1.016,2.67,2.67,0,0,1-2.074-.781,3.335,3.335,0,0,1-.73-2.289V32.547h2.258v5.467q0,1.322,1.2,1.322a1.63,1.63,0,0,0,1.578-.8V32.547h2.266V41H21.387ZM27.6,41H25.332V29H27.6ZM32.16,30.469v2.078h1.445V34.2H32.16v4.219a1.007,1.007,0,0,0,.18.672.9.9,0,0,0,.688.2,3.6,3.6,0,0,0,.664-.055v1.711a4.648,4.648,0,0,1-1.367.2,2.156,2.156,0,0,1-2.422-2.4V34.2H28.668V32.547H29.9V30.469ZM37.246,41H34.98V32.547h2.266Zm-2.4-10.641a1.112,1.112,0,0,1,.34-.836,1.465,1.465,0,0,1,1.848,0,1.193,1.193,0,0,1,0,1.68,1.448,1.448,0,0,1-1.836,0A1.108,1.108,0,0,1,34.848,30.359Zm7.422,7.883,1.57-5.7H46.2L43.348,41H41.191L38.34,32.547H40.7ZM51.973,41a2.507,2.507,0,0,1-.227-.758,2.732,2.732,0,0,1-2.133.914,3,3,0,0,1-2.059-.719,2.312,2.312,0,0,1-.816-1.812,2.389,2.389,0,0,1,1-2.062,4.915,4.915,0,0,1,2.879-.727h1.039v-.484a1.393,1.393,0,0,0-.3-.937,1.183,1.183,0,0,0-.949-.352,1.345,1.345,0,0,0-.895.273.929.929,0,0,0-.324.75H46.926a2.268,2.268,0,0,1,.453-1.359,3,3,0,0,1,1.281-.98,4.669,4.669,0,0,1,1.859-.355,3.689,3.689,0,0,1,2.48.785,2.747,2.747,0,0,1,.918,2.207v3.664a4.041,4.041,0,0,0,.336,1.82V41Zm-1.867-1.57a1.945,1.945,0,0,0,.922-.223,1.462,1.462,0,0,0,.625-.6V37.156h-.844q-1.7,0-1.8,1.172L49,38.461a.9.9,0,0,0,.3.7A1.153,1.153,0,0,0,50.105,39.43Zm10.3-4.766a6.134,6.134,0,0,0-.812-.062,1.654,1.654,0,0,0-1.68.867V41H55.652V32.547h2.133l.063,1.008a2.092,2.092,0,0,1,1.883-1.164,2.366,2.366,0,0,1,.7.1ZM63.871,41H61.605V32.547h2.266Zm-2.4-10.641a1.112,1.112,0,0,1,.34-.836,1.465,1.465,0,0,1,1.848,0,1.193,1.193,0,0,1,0,1.68,1.448,1.448,0,0,1-1.836,0A1.108,1.108,0,0,1,61.473,30.359ZM70.629,41a2.507,2.507,0,0,1-.227-.758,2.732,2.732,0,0,1-2.133.914,3,3,0,0,1-2.059-.719,2.312,2.312,0,0,1-.816-1.812,2.389,2.389,0,0,1,1-2.062,4.915,4.915,0,0,1,2.879-.727h1.039v-.484a1.393,1.393,0,0,0-.3-.937,1.183,1.183,0,0,0-.949-.352,1.345,1.345,0,0,0-.895.273.929.929,0,0,0-.324.75H65.582a2.268,2.268,0,0,1,.453-1.359,3,3,0,0,1,1.281-.98,4.669,4.669,0,0,1,1.859-.355,3.689,3.689,0,0,1,2.48.785,2.747,2.747,0,0,1,.918,2.207v3.664a4.041,4.041,0,0,0,.336,1.82V41Zm-1.867-1.57a1.945,1.945,0,0,0,.922-.223,1.462,1.462,0,0,0,.625-.6V37.156h-.844q-1.7,0-1.8,1.172l-.008.133a.9.9,0,0,0,.3.7A1.153,1.153,0,0,0,68.762,39.43Zm7.625-6.883.07.977a2.951,2.951,0,0,1,2.43-1.133,2.453,2.453,0,0,1,2,.789,3.682,3.682,0,0,1,.672,2.359V41H79.3V35.594a1.465,1.465,0,0,0-.312-1.043,1.4,1.4,0,0,0-1.039-.324,1.553,1.553,0,0,0-1.43.813V41H74.262V32.547Zm9.586-2.078v2.078h1.445V34.2H85.973v4.219a1.007,1.007,0,0,0,.18.672.9.9,0,0,0,.688.2,3.6,3.6,0,0,0,.664-.055v1.711a4.648,4.648,0,0,1-1.367.2,2.156,2.156,0,0,1-2.422-2.4V34.2H82.48V32.547h1.234V30.469Zm6.594,10.688a4.15,4.15,0,0,1-3.027-1.141,4.054,4.054,0,0,1-1.168-3.039v-.219a5.106,5.106,0,0,1,.492-2.277,3.612,3.612,0,0,1,1.395-1.547,3.914,3.914,0,0,1,2.059-.543,3.508,3.508,0,0,1,2.73,1.094,4.444,4.444,0,0,1,1,3.1v.922H90.66a2.1,2.1,0,0,0,.66,1.328,2,2,0,0,0,1.395.5,2.437,2.437,0,0,0,2.039-.945l1.109,1.242a3.389,3.389,0,0,1-1.375,1.121A4.511,4.511,0,0,1,92.566,41.156Zm-.258-6.945a1.411,1.411,0,0,0-1.09.455,2.357,2.357,0,0,0-.535,1.3h3.141v-.181a1.681,1.681,0,0,0-.406-1.165A1.456,1.456,0,0,0,92.309,34.211Z" transform="translate(958 2688)" fill="#fff"/>
    <path id="Trazado_838950" data-name="Trazado 838950" d="M32.8,15.563a4.068,4.068,0,0,1-1.789,1.176,7.492,7.492,0,0,1-2.562.418,5.076,5.076,0,0,1-2.59-.645,4.3,4.3,0,0,1-1.719-1.871,6.585,6.585,0,0,1-.621-2.883v-.773a6.994,6.994,0,0,1,.574-2.949,4.248,4.248,0,0,1,1.656-1.906,4.771,4.771,0,0,1,2.535-.66,4.751,4.751,0,0,1,3.164.965A4.123,4.123,0,0,1,32.8,9.242H30.516a2.268,2.268,0,0,0-.691-1.43,2.208,2.208,0,0,0-1.473-.453,2.078,2.078,0,0,0-1.82.9A4.724,4.724,0,0,0,25.9,10.93v.727a4.5,4.5,0,0,0,.68,2.7,2.327,2.327,0,0,0,1.992.914,2.6,2.6,0,0,0,1.883-.562V12.75H28.32V11.023H32.8Zm6.5-4.9a6.134,6.134,0,0,0-.812-.062,1.654,1.654,0,0,0-1.68.867V17H34.547V8.547H36.68l.063,1.008a2.092,2.092,0,0,1,1.883-1.164,2.366,2.366,0,0,1,.7.1ZM45.281,17a2.507,2.507,0,0,1-.227-.758,2.732,2.732,0,0,1-2.133.914,3,3,0,0,1-2.059-.719,2.312,2.312,0,0,1-.816-1.812,2.389,2.389,0,0,1,1-2.062,4.915,4.915,0,0,1,2.879-.727h1.039v-.484a1.393,1.393,0,0,0-.3-.937,1.183,1.183,0,0,0-.949-.352,1.345,1.345,0,0,0-.895.273.929.929,0,0,0-.324.75H40.234a2.268,2.268,0,0,1,.453-1.359,3,3,0,0,1,1.281-.98,4.669,4.669,0,0,1,1.859-.355,3.689,3.689,0,0,1,2.48.785,2.747,2.747,0,0,1,.918,2.207v3.664a4.041,4.041,0,0,0,.336,1.82V17Zm-1.867-1.57a1.945,1.945,0,0,0,.922-.223,1.462,1.462,0,0,0,.625-.6V13.156h-.844q-1.7,0-1.8,1.172l-.008.133a.9.9,0,0,0,.3.7A1.153,1.153,0,0,0,43.414,15.43ZM44.273,5h2.461L44.57,7.422H42.734Zm5.234,12V10.2H48.25V8.547h1.258V8.156a3.17,3.17,0,0,1,.98-2.457,3.945,3.945,0,0,1,2.723-.863,9.031,9.031,0,0,1,2.563.461l-.328,1.867a10,10,0,0,0-1.187-.293,5.835,5.835,0,0,0-.906-.066q-1.578,0-1.578,1.4v.344h1.664V10.2H51.773V17Zm7.32,0H54.563V8.547h2.266Zm5.383-1.664a1.481,1.481,0,0,0,1.016-.344,1.2,1.2,0,0,0,.406-.914H65.75a2.9,2.9,0,0,1-.469,1.574,3.093,3.093,0,0,1-1.262,1.109,3.949,3.949,0,0,1-1.77.395A3.67,3.67,0,0,1,59.391,16a4.56,4.56,0,0,1-1.047-3.184v-.148a4.508,4.508,0,0,1,1.039-3.117,3.627,3.627,0,0,1,2.852-1.164,3.555,3.555,0,0,1,2.543.9,3.2,3.2,0,0,1,.973,2.4H63.633a1.551,1.551,0,0,0-.406-1.072A1.51,1.51,0,0,0,61,10.786a3.333,3.333,0,0,0-.4,1.866v.235a3.375,3.375,0,0,0,.4,1.878A1.377,1.377,0,0,0,62.211,15.336ZM66.688,12.7a5.013,5.013,0,0,1,.484-2.242A3.546,3.546,0,0,1,68.566,8.93a4.069,4.069,0,0,1,2.113-.539,3.849,3.849,0,0,1,2.793,1.047,4.2,4.2,0,0,1,1.207,2.844l.016.578a4.418,4.418,0,0,1-1.086,3.121,4.209,4.209,0,0,1-5.832,0,4.5,4.5,0,0,1-1.09-3.187Zm2.258.16A3.16,3.16,0,0,0,69.4,14.7a1.628,1.628,0,0,0,2.578.008,3.457,3.457,0,0,0,.461-2.015,3.128,3.128,0,0,0-.461-1.831,1.5,1.5,0,0,0-1.3-.649,1.474,1.474,0,0,0-1.281.646A3.516,3.516,0,0,0,68.945,12.856ZM4.527,32.547l.07.945a2.971,2.971,0,0,1,2.43-1.1A2.255,2.255,0,0,1,9.27,33.68a2.9,2.9,0,0,1,2.539-1.289,2.521,2.521,0,0,1,2.047.8,3.681,3.681,0,0,1,.672,2.41V41H12.262V35.609a1.61,1.61,0,0,0-.281-1.051,1.246,1.246,0,0,0-.992-.332,1.409,1.409,0,0,0-1.406.969L9.59,41H7.332V35.617a1.59,1.59,0,0,0-.289-1.062,1.259,1.259,0,0,0-.984-.328,1.463,1.463,0,0,0-1.391.8V41H2.41V32.547Zm16.8,7.594a2.831,2.831,0,0,1-2.312,1.016,2.67,2.67,0,0,1-2.074-.781,3.335,3.335,0,0,1-.73-2.289V32.547h2.258v5.467q0,1.322,1.2,1.322a1.63,1.63,0,0,0,1.578-.8V32.547h2.266V41H21.387ZM27.6,41H25.332V29H27.6ZM32.16,30.469v2.078h1.445V34.2H32.16v4.219a1.007,1.007,0,0,0,.18.672.9.9,0,0,0,.688.2,3.6,3.6,0,0,0,.664-.055v1.711a4.648,4.648,0,0,1-1.367.2,2.156,2.156,0,0,1-2.422-2.4V34.2H28.668V32.547H29.9V30.469ZM37.246,41H34.98V32.547h2.266Zm-2.4-10.641a1.112,1.112,0,0,1,.34-.836,1.465,1.465,0,0,1,1.848,0,1.193,1.193,0,0,1,0,1.68,1.448,1.448,0,0,1-1.836,0A1.108,1.108,0,0,1,34.848,30.359Zm7.422,7.883,1.57-5.7H46.2L43.348,41H41.191L38.34,32.547H40.7ZM51.973,41a2.507,2.507,0,0,1-.227-.758,2.732,2.732,0,0,1-2.133.914,3,3,0,0,1-2.059-.719,2.312,2.312,0,0,1-.816-1.812,2.389,2.389,0,0,1,1-2.062,4.915,4.915,0,0,1,2.879-.727h1.039v-.484a1.393,1.393,0,0,0-.3-.937,1.183,1.183,0,0,0-.949-.352,1.345,1.345,0,0,0-.895.273.929.929,0,0,0-.324.75H46.926a2.268,2.268,0,0,1,.453-1.359,3,3,0,0,1,1.281-.98,4.669,4.669,0,0,1,1.859-.355,3.689,3.689,0,0,1,2.48.785,2.747,2.747,0,0,1,.918,2.207v3.664a4.041,4.041,0,0,0,.336,1.82V41Zm-1.867-1.57a1.945,1.945,0,0,0,.922-.223,1.462,1.462,0,0,0,.625-.6V37.156h-.844q-1.7,0-1.8,1.172L49,38.461a.9.9,0,0,0,.3.7A1.153,1.153,0,0,0,50.105,39.43Zm10.3-4.766a6.134,6.134,0,0,0-.812-.062,1.654,1.654,0,0,0-1.68.867V41H55.652V32.547h2.133l.063,1.008a2.092,2.092,0,0,1,1.883-1.164,2.366,2.366,0,0,1,.7.1ZM63.871,41H61.605V32.547h2.266Zm-2.4-10.641a1.112,1.112,0,0,1,.34-.836,1.465,1.465,0,0,1,1.848,0,1.193,1.193,0,0,1,0,1.68,1.448,1.448,0,0,1-1.836,0A1.108,1.108,0,0,1,61.473,30.359ZM70.629,41a2.507,2.507,0,0,1-.227-.758,2.732,2.732,0,0,1-2.133.914,3,3,0,0,1-2.059-.719,2.312,2.312,0,0,1-.816-1.812,2.389,2.389,0,0,1,1-2.062,4.915,4.915,0,0,1,2.879-.727h1.039v-.484a1.393,1.393,0,0,0-.3-.937,1.183,1.183,0,0,0-.949-.352,1.345,1.345,0,0,0-.895.273.929.929,0,0,0-.324.75H65.582a2.268,2.268,0,0,1,.453-1.359,3,3,0,0,1,1.281-.98,4.669,4.669,0,0,1,1.859-.355,3.689,3.689,0,0,1,2.48.785,2.747,2.747,0,0,1,.918,2.207v3.664a4.041,4.041,0,0,0,.336,1.82V41Zm-1.867-1.57a1.945,1.945,0,0,0,.922-.223,1.462,1.462,0,0,0,.625-.6V37.156h-.844q-1.7,0-1.8,1.172l-.008.133a.9.9,0,0,0,.3.7A1.153,1.153,0,0,0,68.762,39.43Zm7.625-6.883.07.977a2.951,2.951,0,0,1,2.43-1.133,2.453,2.453,0,0,1,2,.789,3.682,3.682,0,0,1,.672,2.359V41H79.3V35.594a1.465,1.465,0,0,0-.312-1.043,1.4,1.4,0,0,0-1.039-.324,1.553,1.553,0,0,0-1.43.813V41H74.262V32.547Zm9.586-2.078v2.078h1.445V34.2H85.973v4.219a1.007,1.007,0,0,0,.18.672.9.9,0,0,0,.688.2,3.6,3.6,0,0,0,.664-.055v1.711a4.648,4.648,0,0,1-1.367.2,2.156,2.156,0,0,1-2.422-2.4V34.2H82.48V32.547h1.234V30.469Zm6.594,10.688a4.15,4.15,0,0,1-3.027-1.141,4.054,4.054,0,0,1-1.168-3.039v-.219a5.106,5.106,0,0,1,.492-2.277,3.612,3.612,0,0,1,1.395-1.547,3.914,3.914,0,0,1,2.059-.543,3.508,3.508,0,0,1,2.73,1.094,4.444,4.444,0,0,1,1,3.1v.922H90.66a2.1,2.1,0,0,0,.66,1.328,2,2,0,0,0,1.395.5,2.437,2.437,0,0,0,2.039-.945l1.109,1.242a3.389,3.389,0,0,1-1.375,1.121A4.511,4.511,0,0,1,92.566,41.156Zm-.258-6.945a1.411,1.411,0,0,0-1.09.455,2.357,2.357,0,0,0-.535,1.3h3.141v-.181a1.681,1.681,0,0,0-.406-1.165A1.456,1.456,0,0,0,92.309,34.211Z" transform="translate(751 2905)" fill="#fff"/>
    <path id="Trazado_838949" data-name="Trazado 838949" d="M10.469,7.523H6.984V17H4.641V7.523H1.2v-1.9h9.266ZM14.039,17H11.773V8.547h2.266Zm-2.4-10.641a1.112,1.112,0,0,1,.34-.836,1.277,1.277,0,0,1,.926-.328,1.28,1.28,0,0,1,.922.328,1.105,1.105,0,0,1,.344.836,1.108,1.108,0,0,1-.348.844,1.448,1.448,0,0,1-1.836,0A1.108,1.108,0,0,1,11.641,6.359Zm11.867,6.492a5.07,5.07,0,0,1-.887,3.129,2.843,2.843,0,0,1-2.395,1.176,2.633,2.633,0,0,1-2.07-.891V20.25H15.9V8.547h2.094l.078.828a2.654,2.654,0,0,1,2.141-.984,2.862,2.862,0,0,1,2.43,1.156,5.207,5.207,0,0,1,.867,3.188Zm-2.258-.164a3.327,3.327,0,0,0-.418-1.82,1.361,1.361,0,0,0-1.215-.641,1.478,1.478,0,0,0-1.461.813V14.5a1.5,1.5,0,0,0,1.477.836Q21.25,15.336,21.25,12.688Zm3.3.008a5.013,5.013,0,0,1,.484-2.242A3.546,3.546,0,0,1,26.434,8.93a4.069,4.069,0,0,1,2.113-.539A3.849,3.849,0,0,1,31.34,9.438a4.2,4.2,0,0,1,1.207,2.844l.016.578a4.418,4.418,0,0,1-1.086,3.121,3.775,3.775,0,0,1-2.914,1.176,3.793,3.793,0,0,1-2.918-1.172,4.5,4.5,0,0,1-1.09-3.187Zm2.258.16a3.16,3.16,0,0,0,.453,1.843,1.628,1.628,0,0,0,2.578.008,3.457,3.457,0,0,0,.461-2.015,3.128,3.128,0,0,0-.461-1.831,1.5,1.5,0,0,0-1.3-.649,1.474,1.474,0,0,0-1.281.646A3.516,3.516,0,0,0,26.813,12.856Zm11.719,1.808a.727.727,0,0,0-.41-.652,4.659,4.659,0,0,0-1.316-.426q-3.016-.633-3.016-2.562a2.323,2.323,0,0,1,.934-1.879,3.766,3.766,0,0,1,2.441-.754,4.053,4.053,0,0,1,2.574.758,2.388,2.388,0,0,1,.965,1.969H38.445a1.092,1.092,0,0,0-.312-.8A1.322,1.322,0,0,0,37.156,10a1.351,1.351,0,0,0-.883.258.814.814,0,0,0-.312.656.7.7,0,0,0,.355.605,3.657,3.657,0,0,0,1.2.4,9.8,9.8,0,0,1,1.422.379,2.336,2.336,0,0,1,1.789,2.273,2.2,2.2,0,0,1-.992,1.871,4.28,4.28,0,0,1-2.562.715,4.47,4.47,0,0,1-1.887-.379,3.166,3.166,0,0,1-1.293-1.039,2.414,2.414,0,0,1-.469-1.426h2.141a1.179,1.179,0,0,0,.445.922,1.766,1.766,0,0,0,1.109.32,1.635,1.635,0,0,0,.98-.246A.766.766,0,0,0,38.531,14.664Zm7.281-1.953A5.094,5.094,0,0,1,46.7,9.563a2.877,2.877,0,0,1,2.426-1.172,2.589,2.589,0,0,1,2.039.922V5H53.43V17H51.391l-.109-.9a2.657,2.657,0,0,1-2.172,1.055,2.869,2.869,0,0,1-2.395-1.176A5.258,5.258,0,0,1,45.813,12.711Zm2.258.168a3.337,3.337,0,0,0,.414,1.823,1.349,1.349,0,0,0,1.2.634,1.511,1.511,0,0,0,1.477-.884V11.111a1.489,1.489,0,0,0-1.461-.884Q48.07,10.227,48.07,12.879Zm11,4.277a4.15,4.15,0,0,1-3.027-1.141,4.054,4.054,0,0,1-1.168-3.039v-.219a5.106,5.106,0,0,1,.492-2.277,3.612,3.612,0,0,1,1.395-1.547,3.914,3.914,0,0,1,2.059-.543,3.508,3.508,0,0,1,2.73,1.094,4.444,4.444,0,0,1,1,3.1v.922H57.164a2.1,2.1,0,0,0,.66,1.328,2,2,0,0,0,1.395.5,2.437,2.437,0,0,0,2.039-.945l1.109,1.242a3.389,3.389,0,0,1-1.375,1.121A4.511,4.511,0,0,1,59.07,17.156Zm-.258-6.945a1.411,1.411,0,0,0-1.09.455,2.357,2.357,0,0,0-.535,1.3h3.141v-.181a1.681,1.681,0,0,0-.406-1.165A1.456,1.456,0,0,0,58.813,10.211ZM74.8,12.07H70.3v3.047h5.281V17H67.961V5.625H75.57v1.9H70.3v2.711h4.5ZM76.961,17V5.625h3.5a5.315,5.315,0,0,1,2.684.676,4.712,4.712,0,0,1,1.848,1.922,5.928,5.928,0,0,1,.664,2.832v.523A5.945,5.945,0,0,1,85,14.4a4.672,4.672,0,0,1-1.84,1.914,5.355,5.355,0,0,1-2.68.688ZM79.3,7.523v7.594h1.133a2.545,2.545,0,0,0,2.1-.9,4.06,4.06,0,0,0,.742-2.57v-.6a4.124,4.124,0,0,0-.719-2.629,2.537,2.537,0,0,0-2.1-.895Zm14.477,7.133H89.672L88.891,17H86.4L90.633,5.625H92.8L97.063,17H94.57Zm-3.477-1.9h2.844L91.719,8.5Z" transform="translate(752 2670)" fill="#12263f"/>
    <path id="Trazado_838948" data-name="Trazado 838948" d="M21.766,17H19.422L14.859,9.516V17H12.516V5.625h2.344l4.57,7.5v-7.5h2.336Zm1.547-4.3a5.013,5.013,0,0,1,.484-2.242A3.546,3.546,0,0,1,25.191,8.93,4.069,4.069,0,0,1,27.3,8.391,3.849,3.849,0,0,1,30.1,9.438,4.2,4.2,0,0,1,31.3,12.281l.016.578a4.418,4.418,0,0,1-1.086,3.121,3.775,3.775,0,0,1-2.914,1.176A3.793,3.793,0,0,1,24.4,15.984a4.5,4.5,0,0,1-1.09-3.187Zm2.258.16a3.16,3.16,0,0,0,.453,1.843,1.628,1.628,0,0,0,2.578.008,3.457,3.457,0,0,0,.461-2.015A3.128,3.128,0,0,0,28.6,10.86a1.5,1.5,0,0,0-1.3-.649,1.474,1.474,0,0,0-1.281.646A3.516,3.516,0,0,0,25.57,12.856Zm10.8-.145a4.954,4.954,0,0,1,.926-3.133,3,3,0,0,1,2.5-1.187,2.631,2.631,0,0,1,2.164.953l.094-.8h2.047v8.172a3.613,3.613,0,0,1-.5,1.93,3.236,3.236,0,0,1-1.418,1.25,4.985,4.985,0,0,1-2.141.43,4.635,4.635,0,0,1-1.812-.371A3.217,3.217,0,0,1,36.883,19l1-1.375a2.645,2.645,0,0,0,2.047.945,1.936,1.936,0,0,0,1.4-.48,1.8,1.8,0,0,0,.5-1.363v-.453a2.612,2.612,0,0,1-2.055.883,2.992,2.992,0,0,1-2.465-1.191,4.953,4.953,0,0,1-.941-3.16Zm2.258.168a3.085,3.085,0,0,0,.461,1.8,1.466,1.466,0,0,0,1.266.653,1.568,1.568,0,0,0,1.477-.775V11a1.564,1.564,0,0,0-1.461-.775,1.476,1.476,0,0,0-1.277.665A3.477,3.477,0,0,0,38.625,12.879Zm11.953-2.215a6.134,6.134,0,0,0-.812-.062,1.654,1.654,0,0,0-1.68.867V17H45.828V8.547h2.133l.063,1.008a2.092,2.092,0,0,1,1.883-1.164,2.366,2.366,0,0,1,.7.1ZM56.563,17a2.507,2.507,0,0,1-.227-.758,2.732,2.732,0,0,1-2.133.914,3,3,0,0,1-2.059-.719,2.312,2.312,0,0,1-.816-1.812,2.389,2.389,0,0,1,1-2.062,4.915,4.915,0,0,1,2.879-.727h1.039v-.484a1.393,1.393,0,0,0-.3-.937,1.183,1.183,0,0,0-.949-.352,1.345,1.345,0,0,0-.895.273.929.929,0,0,0-.324.75H51.516a2.268,2.268,0,0,1,.453-1.359,3,3,0,0,1,1.281-.98,4.669,4.669,0,0,1,1.859-.355,3.689,3.689,0,0,1,2.48.785,2.747,2.747,0,0,1,.918,2.207v3.664a4.041,4.041,0,0,0,.336,1.82V17ZM54.7,15.43a1.945,1.945,0,0,0,.922-.223,1.462,1.462,0,0,0,.625-.6V13.156H55.4q-1.7,0-1.8,1.172l-.008.133a.9.9,0,0,0,.3.7A1.153,1.153,0,0,0,54.7,15.43ZM55.555,5h2.461L55.852,7.422H54.016Zm5.234,12V10.2H59.531V8.547h1.258V8.156A3.17,3.17,0,0,1,61.77,5.7a3.945,3.945,0,0,1,2.723-.863,9.031,9.031,0,0,1,2.563.461l-.328,1.867a10,10,0,0,0-1.187-.293,5.835,5.835,0,0,0-.906-.066q-1.578,0-1.578,1.4v.344h1.664V10.2H63.055V17Zm7.32,0H65.844V8.547h2.266Zm5.383-1.664a1.481,1.481,0,0,0,1.016-.344,1.2,1.2,0,0,0,.406-.914h2.117a2.9,2.9,0,0,1-.469,1.574A3.093,3.093,0,0,1,75.3,16.762a3.949,3.949,0,0,1-1.77.395A3.67,3.67,0,0,1,70.672,16a4.56,4.56,0,0,1-1.047-3.184v-.148a4.508,4.508,0,0,1,1.039-3.117,3.627,3.627,0,0,1,2.852-1.164,3.555,3.555,0,0,1,2.543.9,3.2,3.2,0,0,1,.973,2.4H74.914a1.551,1.551,0,0,0-.406-1.072,1.51,1.51,0,0,0-2.223.163,3.333,3.333,0,0,0-.4,1.866v.235a3.375,3.375,0,0,0,.4,1.878A1.377,1.377,0,0,0,73.492,15.336ZM77.969,12.7a5.013,5.013,0,0,1,.484-2.242A3.546,3.546,0,0,1,79.848,8.93a4.069,4.069,0,0,1,2.113-.539,3.849,3.849,0,0,1,2.793,1.047,4.2,4.2,0,0,1,1.207,2.844l.016.578a4.418,4.418,0,0,1-1.086,3.121,4.209,4.209,0,0,1-5.832,0,4.5,4.5,0,0,1-1.09-3.187Zm2.258.16A3.16,3.16,0,0,0,80.68,14.7a1.628,1.628,0,0,0,2.578.008,3.457,3.457,0,0,0,.461-2.015,3.128,3.128,0,0,0-.461-1.831,1.5,1.5,0,0,0-1.3-.649,1.474,1.474,0,0,0-1.281.646A3.516,3.516,0,0,0,80.227,12.856ZM14.742,40.141a2.831,2.831,0,0,1-2.312,1.016,2.67,2.67,0,0,1-2.074-.781,3.335,3.335,0,0,1-.73-2.289V32.547h2.258v5.467q0,1.322,1.2,1.322a1.63,1.63,0,0,0,1.578-.8V32.547H16.93V41H14.8Zm5.969-7.594.07.977a2.951,2.951,0,0,1,2.43-1.133,2.453,2.453,0,0,1,2,.789,3.682,3.682,0,0,1,.672,2.359V41H23.625V35.594a1.465,1.465,0,0,0-.312-1.043,1.4,1.4,0,0,0-1.039-.324,1.553,1.553,0,0,0-1.43.813V41H18.586V32.547ZM29.977,41H27.711V32.547h2.266Zm-2.4-10.641a1.112,1.112,0,0,1,.34-.836,1.465,1.465,0,0,1,1.848,0,1.193,1.193,0,0,1,0,1.68,1.448,1.448,0,0,1-1.836,0A1.108,1.108,0,0,1,27.578,30.359ZM35,38.242l1.57-5.7H38.93L36.078,41H33.922L31.07,32.547H33.43ZM44.7,41a2.507,2.507,0,0,1-.227-.758,2.732,2.732,0,0,1-2.133.914,3,3,0,0,1-2.059-.719,2.312,2.312,0,0,1-.816-1.812,2.389,2.389,0,0,1,1-2.062,4.915,4.915,0,0,1,2.879-.727h1.039v-.484a1.393,1.393,0,0,0-.3-.937,1.183,1.183,0,0,0-.949-.352,1.345,1.345,0,0,0-.895.273.929.929,0,0,0-.324.75H39.656a2.268,2.268,0,0,1,.453-1.359,3,3,0,0,1,1.281-.98,4.669,4.669,0,0,1,1.859-.355,3.689,3.689,0,0,1,2.48.785,2.747,2.747,0,0,1,.918,2.207v3.664a4.041,4.041,0,0,0,.336,1.82V41Zm-1.867-1.57a1.945,1.945,0,0,0,.922-.223,1.462,1.462,0,0,0,.625-.6V37.156h-.844q-1.7,0-1.8,1.172l-.008.133a.9.9,0,0,0,.3.7A1.153,1.153,0,0,0,42.836,39.43Zm10.3-4.766a6.134,6.134,0,0,0-.812-.062,1.654,1.654,0,0,0-1.68.867V41H48.383V32.547h2.133l.063,1.008a2.092,2.092,0,0,1,1.883-1.164,2.366,2.366,0,0,1,.7.1ZM56.6,41H54.336V32.547H56.6ZM54.2,30.359a1.112,1.112,0,0,1,.34-.836,1.465,1.465,0,0,1,1.848,0,1.193,1.193,0,0,1,0,1.68,1.448,1.448,0,0,1-1.836,0A1.108,1.108,0,0,1,54.2,30.359ZM63.359,41a2.507,2.507,0,0,1-.227-.758A2.732,2.732,0,0,1,61,41.156a3,3,0,0,1-2.059-.719,2.312,2.312,0,0,1-.816-1.812,2.389,2.389,0,0,1,1-2.062A4.915,4.915,0,0,1,62,35.836h1.039v-.484a1.393,1.393,0,0,0-.3-.937,1.183,1.183,0,0,0-.949-.352,1.345,1.345,0,0,0-.895.273.929.929,0,0,0-.324.75H58.313a2.268,2.268,0,0,1,.453-1.359,3,3,0,0,1,1.281-.98,4.669,4.669,0,0,1,1.859-.355,3.689,3.689,0,0,1,2.48.785,2.747,2.747,0,0,1,.918,2.207v3.664a4.041,4.041,0,0,0,.336,1.82V41Zm-1.867-1.57a1.945,1.945,0,0,0,.922-.223,1.462,1.462,0,0,0,.625-.6V37.156H62.2q-1.7,0-1.8,1.172l-.008.133a.9.9,0,0,0,.3.7A1.153,1.153,0,0,0,61.492,39.43Zm7.625-6.883.07.977a2.951,2.951,0,0,1,2.43-1.133,2.453,2.453,0,0,1,2,.789,3.682,3.682,0,0,1,.672,2.359V41H72.031V35.594a1.465,1.465,0,0,0-.312-1.043,1.4,1.4,0,0,0-1.039-.324,1.553,1.553,0,0,0-1.43.813V41H66.992V32.547ZM78.7,30.469v2.078h1.445V34.2H78.7v4.219a1.007,1.007,0,0,0,.18.672.9.9,0,0,0,.688.2,3.6,3.6,0,0,0,.664-.055v1.711a4.648,4.648,0,0,1-1.367.2,2.156,2.156,0,0,1-2.422-2.4V34.2H75.211V32.547h1.234V30.469ZM85.3,41.156a4.15,4.15,0,0,1-3.027-1.141A4.054,4.054,0,0,1,81.1,36.977v-.219a5.106,5.106,0,0,1,.492-2.277,3.612,3.612,0,0,1,1.395-1.547,3.914,3.914,0,0,1,2.059-.543,3.508,3.508,0,0,1,2.73,1.094,4.444,4.444,0,0,1,1,3.1v.922H83.391a2.1,2.1,0,0,0,.66,1.328,2,2,0,0,0,1.395.5,2.437,2.437,0,0,0,2.039-.945l1.109,1.242a3.389,3.389,0,0,1-1.375,1.121A4.511,4.511,0,0,1,85.3,41.156Zm-.258-6.945a1.411,1.411,0,0,0-1.09.455,2.357,2.357,0,0,0-.535,1.3h3.141v-.181a1.681,1.681,0,0,0-.406-1.165A1.456,1.456,0,0,0,85.039,34.211Z" transform="translate(547 2698)" fill="#f3f9ff"/>
    <path id="Trazado_838947" data-name="Trazado 838947" d="M32.8,15.563a4.068,4.068,0,0,1-1.789,1.176,7.492,7.492,0,0,1-2.562.418,5.076,5.076,0,0,1-2.59-.645,4.3,4.3,0,0,1-1.719-1.871,6.585,6.585,0,0,1-.621-2.883v-.773a6.994,6.994,0,0,1,.574-2.949,4.248,4.248,0,0,1,1.656-1.906,4.771,4.771,0,0,1,2.535-.66,4.751,4.751,0,0,1,3.164.965A4.123,4.123,0,0,1,32.8,9.242H30.516a2.268,2.268,0,0,0-.691-1.43,2.208,2.208,0,0,0-1.473-.453,2.078,2.078,0,0,0-1.82.9A4.724,4.724,0,0,0,25.9,10.93v.727a4.5,4.5,0,0,0,.68,2.7,2.327,2.327,0,0,0,1.992.914,2.6,2.6,0,0,0,1.883-.562V12.75H28.32V11.023H32.8Zm6.5-4.9a6.134,6.134,0,0,0-.812-.062,1.654,1.654,0,0,0-1.68.867V17H34.547V8.547H36.68l.063,1.008a2.092,2.092,0,0,1,1.883-1.164,2.366,2.366,0,0,1,.7.1ZM45.281,17a2.507,2.507,0,0,1-.227-.758,2.732,2.732,0,0,1-2.133.914,3,3,0,0,1-2.059-.719,2.312,2.312,0,0,1-.816-1.812,2.389,2.389,0,0,1,1-2.062,4.915,4.915,0,0,1,2.879-.727h1.039v-.484a1.393,1.393,0,0,0-.3-.937,1.183,1.183,0,0,0-.949-.352,1.345,1.345,0,0,0-.895.273.929.929,0,0,0-.324.75H40.234a2.268,2.268,0,0,1,.453-1.359,3,3,0,0,1,1.281-.98,4.669,4.669,0,0,1,1.859-.355,3.689,3.689,0,0,1,2.48.785,2.747,2.747,0,0,1,.918,2.207v3.664a4.041,4.041,0,0,0,.336,1.82V17Zm-1.867-1.57a1.945,1.945,0,0,0,.922-.223,1.462,1.462,0,0,0,.625-.6V13.156h-.844q-1.7,0-1.8,1.172l-.008.133a.9.9,0,0,0,.3.7A1.153,1.153,0,0,0,43.414,15.43ZM44.273,5h2.461L44.57,7.422H42.734Zm5.234,12V10.2H48.25V8.547h1.258V8.156a3.17,3.17,0,0,1,.98-2.457,3.945,3.945,0,0,1,2.723-.863,9.031,9.031,0,0,1,2.563.461l-.328,1.867a10,10,0,0,0-1.187-.293,5.835,5.835,0,0,0-.906-.066q-1.578,0-1.578,1.4v.344h1.664V10.2H51.773V17Zm7.32,0H54.563V8.547h2.266Zm5.383-1.664a1.481,1.481,0,0,0,1.016-.344,1.2,1.2,0,0,0,.406-.914H65.75a2.9,2.9,0,0,1-.469,1.574,3.093,3.093,0,0,1-1.262,1.109,3.949,3.949,0,0,1-1.77.395A3.67,3.67,0,0,1,59.391,16a4.56,4.56,0,0,1-1.047-3.184v-.148a4.508,4.508,0,0,1,1.039-3.117,3.627,3.627,0,0,1,2.852-1.164,3.555,3.555,0,0,1,2.543.9,3.2,3.2,0,0,1,.973,2.4H63.633a1.551,1.551,0,0,0-.406-1.072A1.51,1.51,0,0,0,61,10.786a3.333,3.333,0,0,0-.4,1.866v.235a3.375,3.375,0,0,0,.4,1.878A1.377,1.377,0,0,0,62.211,15.336ZM66.688,12.7a5.013,5.013,0,0,1,.484-2.242A3.546,3.546,0,0,1,68.566,8.93a4.069,4.069,0,0,1,2.113-.539,3.849,3.849,0,0,1,2.793,1.047,4.2,4.2,0,0,1,1.207,2.844l.016.578a4.418,4.418,0,0,1-1.086,3.121,4.209,4.209,0,0,1-5.832,0,4.5,4.5,0,0,1-1.09-3.187Zm2.258.16A3.16,3.16,0,0,0,69.4,14.7a1.628,1.628,0,0,0,2.578.008,3.457,3.457,0,0,0,.461-2.015,3.128,3.128,0,0,0-.461-1.831,1.5,1.5,0,0,0-1.3-.649,1.474,1.474,0,0,0-1.281.646A3.516,3.516,0,0,0,68.945,12.856Zm-54.2,27.285a2.831,2.831,0,0,1-2.312,1.016,2.67,2.67,0,0,1-2.074-.781,3.335,3.335,0,0,1-.73-2.289V32.547h2.258v5.467q0,1.322,1.2,1.322a1.63,1.63,0,0,0,1.578-.8V32.547H16.93V41H14.8Zm5.969-7.594.07.977a2.951,2.951,0,0,1,2.43-1.133,2.453,2.453,0,0,1,2,.789,3.682,3.682,0,0,1,.672,2.359V41H23.625V35.594a1.465,1.465,0,0,0-.312-1.043,1.4,1.4,0,0,0-1.039-.324,1.553,1.553,0,0,0-1.43.813V41H18.586V32.547ZM29.977,41H27.711V32.547h2.266Zm-2.4-10.641a1.112,1.112,0,0,1,.34-.836,1.465,1.465,0,0,1,1.848,0,1.193,1.193,0,0,1,0,1.68,1.448,1.448,0,0,1-1.836,0A1.108,1.108,0,0,1,27.578,30.359ZM35,38.242l1.57-5.7H38.93L36.078,41H33.922L31.07,32.547H33.43ZM44.7,41a2.507,2.507,0,0,1-.227-.758,2.732,2.732,0,0,1-2.133.914,3,3,0,0,1-2.059-.719,2.312,2.312,0,0,1-.816-1.812,2.389,2.389,0,0,1,1-2.062,4.915,4.915,0,0,1,2.879-.727h1.039v-.484a1.393,1.393,0,0,0-.3-.937,1.183,1.183,0,0,0-.949-.352,1.345,1.345,0,0,0-.895.273.929.929,0,0,0-.324.75H39.656a2.268,2.268,0,0,1,.453-1.359,3,3,0,0,1,1.281-.98,4.669,4.669,0,0,1,1.859-.355,3.689,3.689,0,0,1,2.48.785,2.747,2.747,0,0,1,.918,2.207v3.664a4.041,4.041,0,0,0,.336,1.82V41Zm-1.867-1.57a1.945,1.945,0,0,0,.922-.223,1.462,1.462,0,0,0,.625-.6V37.156h-.844q-1.7,0-1.8,1.172l-.008.133a.9.9,0,0,0,.3.7A1.153,1.153,0,0,0,42.836,39.43Zm10.3-4.766a6.134,6.134,0,0,0-.812-.062,1.654,1.654,0,0,0-1.68.867V41H48.383V32.547h2.133l.063,1.008a2.092,2.092,0,0,1,1.883-1.164,2.366,2.366,0,0,1,.7.1ZM56.6,41H54.336V32.547H56.6ZM54.2,30.359a1.112,1.112,0,0,1,.34-.836,1.465,1.465,0,0,1,1.848,0,1.193,1.193,0,0,1,0,1.68,1.448,1.448,0,0,1-1.836,0A1.108,1.108,0,0,1,54.2,30.359ZM63.359,41a2.507,2.507,0,0,1-.227-.758A2.732,2.732,0,0,1,61,41.156a3,3,0,0,1-2.059-.719,2.312,2.312,0,0,1-.816-1.812,2.389,2.389,0,0,1,1-2.062A4.915,4.915,0,0,1,62,35.836h1.039v-.484a1.393,1.393,0,0,0-.3-.937,1.183,1.183,0,0,0-.949-.352,1.345,1.345,0,0,0-.895.273.929.929,0,0,0-.324.75H58.313a2.268,2.268,0,0,1,.453-1.359,3,3,0,0,1,1.281-.98,4.669,4.669,0,0,1,1.859-.355,3.689,3.689,0,0,1,2.48.785,2.747,2.747,0,0,1,.918,2.207v3.664a4.041,4.041,0,0,0,.336,1.82V41Zm-1.867-1.57a1.945,1.945,0,0,0,.922-.223,1.462,1.462,0,0,0,.625-.6V37.156H62.2q-1.7,0-1.8,1.172l-.008.133a.9.9,0,0,0,.3.7A1.153,1.153,0,0,0,61.492,39.43Zm7.625-6.883.07.977a2.951,2.951,0,0,1,2.43-1.133,2.453,2.453,0,0,1,2,.789,3.682,3.682,0,0,1,.672,2.359V41H72.031V35.594a1.465,1.465,0,0,0-.312-1.043,1.4,1.4,0,0,0-1.039-.324,1.553,1.553,0,0,0-1.43.813V41H66.992V32.547ZM78.7,30.469v2.078h1.445V34.2H78.7v4.219a1.007,1.007,0,0,0,.18.672.9.9,0,0,0,.688.2,3.6,3.6,0,0,0,.664-.055v1.711a4.648,4.648,0,0,1-1.367.2,2.156,2.156,0,0,1-2.422-2.4V34.2H75.211V32.547h1.234V30.469ZM85.3,41.156a4.15,4.15,0,0,1-3.027-1.141A4.054,4.054,0,0,1,81.1,36.977v-.219a5.106,5.106,0,0,1,.492-2.277,3.612,3.612,0,0,1,1.395-1.547,3.914,3.914,0,0,1,2.059-.543,3.508,3.508,0,0,1,2.73,1.094,4.444,4.444,0,0,1,1,3.1v.922H83.391a2.1,2.1,0,0,0,.66,1.328,2,2,0,0,0,1.395.5,2.437,2.437,0,0,0,2.039-.945l1.109,1.242a3.389,3.389,0,0,1-1.375,1.121A4.511,4.511,0,0,1,85.3,41.156Zm-.258-6.945a1.411,1.411,0,0,0-1.09.455,2.357,2.357,0,0,0-.535,1.3h3.141v-.181a1.681,1.681,0,0,0-.406-1.165A1.456,1.456,0,0,0,85.039,34.211Z" transform="translate(751 2477)" fill="#12263f"/>
    <g id="Grupo_1083950" data-name="Grupo 1083950" transform="translate(734 2695)">
      <rect id="Rectángulo_385120" data-name="Rectángulo 385120" width="14.47" height="44.917" transform="translate(0 51.637)" fill="#005b83"/>
      <rect id="Rectángulo_385121" data-name="Rectángulo 385121" width="14.468" height="68.426" transform="translate(17.333 28.125)" fill="#eba325"/>
      <rect id="Rectángulo_385122" data-name="Rectángulo 385122" width="14.468" height="59.083" transform="translate(34.664 37.468)" fill="#bbebff"/>
      <rect id="Rectángulo_385123" data-name="Rectángulo 385123" width="14.468" height="51.545" transform="translate(51.997 45.006)" fill="#00cfdd"/>
      <g id="Grupo_1083949" data-name="Grupo 1083949" transform="translate(0 0)">
        <g id="Grupo_1083948" data-name="Grupo 1083948" clip-path="url(#clip-path-2)">
          <path id="Trazado_838246" data-name="Trazado 838246" d="M62.291,39.146a29.279,29.279,0,1,0,7.7,45.633L48.459,64.936Z" transform="translate(22.688 42.225)" fill="#005b83"/>
          <path id="Trazado_838247" data-name="Trazado 838247" d="M61.369,68.291A29.277,29.277,0,0,0,47.352,37.746c-.31-.179-.633-.323-.946-.491l-13.83,25.79Z" transform="translate(38.574 44.115)" fill="#bbebff"/>
          <path id="Trazado_838248" data-name="Trazado 838248" d="M57.873,63.838a29.14,29.14,0,0,0,3.5-9.527L32.576,49.062Z" transform="translate(38.574 58.096)" fill="#00cfdd"/>
          <path id="Trazado_838249" data-name="Trazado 838249" d="M32.576,49.063,54.111,68.908a29.4,29.4,0,0,0,3.761-5.069Z" transform="translate(38.574 58.098)" fill="#f3c144"/>
          <path id="Trazado_838250" data-name="Trazado 838250" d="M111.689,56.149H29.4a2.714,2.714,0,0,1-2.713-2.713V7.015a2.712,2.712,0,1,1,5.423,0V50.723h79.581a2.713,2.713,0,0,1,0,5.425" transform="translate(31.598 5.095)" fill="#005b83"/>
          <path id="Trazado_838251" data-name="Trazado 838251" d="M32.708,49.952a2.709,2.709,0,0,1-2.379-4.012l12.342-22.6a2.718,2.718,0,0,1,2.291-1.413,2.649,2.649,0,0,1,2.381,1.256l7.288,11.458L67.993,9.493a2.785,2.785,0,0,1,2.464-1.442,2.717,2.717,0,0,1,2.387,1.559L85.767,37.118,97.186,2.986a2.712,2.712,0,1,1,5.144,1.721L88.766,45.262a2.713,2.713,0,0,1-5.028.29L70.24,16.829,57.24,41.3a2.72,2.72,0,0,1-2.291,1.437,2.683,2.683,0,0,1-2.394-1.256L45.232,29.973,35.091,48.541a2.71,2.71,0,0,1-2.383,1.411" transform="translate(35.52 1.343)" fill="#eba325"/>
          <path id="Trazado_838252" data-name="Trazado 838252" d="M45.192,14.259A5.188,5.188,0,1,1,40,9.072a5.189,5.189,0,0,1,5.189,5.187" transform="translate(41.225 10.743)" fill="#eba325"/>
          <path id="Trazado_838253" data-name="Trazado 838253" d="M69.938,5.189A5.188,5.188,0,1,1,64.748,0a5.19,5.19,0,0,1,5.189,5.189" transform="translate(70.528 0.001)" fill="#fa7a49"/>
          <path id="Trazado_838254" data-name="Trazado 838254" d="M56.353,8.356a5.188,5.188,0,1,1-5.192-5.187,5.191,5.191,0,0,1,5.192,5.187" transform="translate(54.441 3.753)" fill="#eba325"/>
        </g>
      </g>
    </g>
    <g id="Grupo_1083957" data-name="Grupo 1083957" transform="translate(290.834 -3392.688)">
      <path id="Trazado_838255" data-name="Trazado 838255" d="M256.84,200.84c0-.527,0-.981,0-1.436.007-.7.289-.991.978-1s1.386-.014,2.078,0a.457.457,0,0,0,.544-.372c.289-.949.617-1.886.947-2.879H245.011a3.279,3.279,0,0,1-3.58-3.592q0-11.84,0-23.679a3.266,3.266,0,0,1,3.561-3.559h5.36V161.1c0-.778-.007-1.555,0-2.333a.825.825,0,0,1,.94-.93c.98-.008,1.96-.007,2.94,0,.692,0,.981.294.982.992,0,1.807,0,3.614,0,5.459h.811V153.364c0-.978.222-1.2,1.178-1.2q1.267,0,2.534,0c.921,0,1.154.238,1.154,1.179q0,5.2,0,10.394v.571h.811v-.528q0-3.65,0-7.3c0-.8.267-1.067,1.058-1.069q1.369,0,2.737,0c.8,0,1.069.268,1.069,1.059q0,3.626,0,7.251v.582h9.915a7.364,7.364,0,0,1-1.733-5.788,7.1,7.1,0,0,1,3.147-5.1,7.287,7.287,0,0,1,9.214.855,7.4,7.4,0,0,1,.352,10.065c.381,0,.709-.006,1.036,0a3.216,3.216,0,0,1,3.2,3.2q.02,12.22,0,24.439a3.207,3.207,0,0,1-3.315,3.188q-7.983.011-15.965,0h-.666c.349,1.055.673,2.063,1.029,3.061.035.1.265.173.406.176.709.018,1.419,0,2.129.01.692.006.974.294.982.994,0,.455,0,.91,0,1.439h7.754a2.549,2.549,0,0,1,.455.013.8.8,0,0,1,0,1.6,2.832,2.832,0,0,1-.506.013H249.036c-.732,0-1.112-.279-1.113-.81s.378-.812,1.11-.812h7.807Zm10.543-28.421c0-1.588,0-3.14,0-4.691,0-.664.3-.957.96-.962q1.47-.01,2.939,0c.663,0,.96.3.962.961q.009,2.688,0,5.375c0,.662-.3.962-.961.962q-12.823,0-25.645,0c-.664,0-.961-.3-.963-.96q-.009-2.687,0-5.375c0-.665.3-.959.959-.964.963-.007,1.926,0,2.889,0,.729,0,1.013.284,1.015,1.011,0,1.369,0,2.738,0,4.107v.537h.781v-6.468h-5.341a1.679,1.679,0,0,0-1.927,1.915q0,10.116,0,20.231v.534h47.006a.878.878,0,0,0,.027-.134q0-10.47,0-20.94a1.6,1.6,0,0,0-1.623-1.6c-.9-.015-1.791-.017-2.686,0a2.3,2.3,0,0,0-.821.176,7.366,7.366,0,0,1-5.953,0,2.064,2.064,0,0,0-.771-.174q-5.575-.017-11.15-.007c-.162,0-.324.015-.484.022v6.444Zm22.7,17.909H243.053v1.2c0,1.443.576,2.015,2.031,2.015h42.975c.169,0,.339.007.507-.005a1.614,1.614,0,0,0,1.515-1.5c.031-.554.006-1.111.006-1.7m-32.4-17.926h1.561v-18.6h-1.561Zm23.484-18.574a5.639,5.639,0,0,0-4.483,3.629,5.514,5.514,0,0,0,.748,5.4c1.221-1.221,2.4-2.4,3.577-3.583a.554.554,0,0,0,.152-.349c.01-1.669.007-3.338.007-5.1m-2.546,10.138a5.474,5.474,0,0,0,5.744.642,5.644,5.644,0,0,0,3.236-4.335c-1.752,0-3.421,0-5.09.005a.486.486,0,0,0-.312.12q-1.8,1.776-3.579,3.567m-7.511,34.416c-.341-1.026-.662-2.019-1.008-3a.43.43,0,0,0-.332-.21q-3.192-.019-6.385,0c-.113,0-.3.069-.327.15-.353,1.009-.683,2.027-1.026,3.065Zm-6.2-41.315h-1.564v15.351h1.564ZM252,172.413h1.565V159.5H252ZM282.827,153.9v4.755h4.722a5.527,5.527,0,0,0-4.722-4.755m-8.167,46.168H258.485v.751H274.66ZM246.333,172.4h1.56v-3.993h-1.56Zm24.257-3.991h-1.556v4.011h1.556Zm-14.6-2.437h-.751v6.447h.751Zm5.677,0h-.751v6.447h.751Z" transform="translate(442.25 5984)" fill="#f6f6f6"/>
      <path id="Trazado_838256" data-name="Trazado 838256" d="M281.767,227.117a2.515,2.515,0,0,1-4.2.11q-1.469,1.1-2.943,2.2c-1.715,1.287-3.436,2.567-5.14,3.87a1.721,1.721,0,0,0-.52.7,2.448,2.448,0,0,1-4.548.136,1.217,1.217,0,0,0-.561-.557c-2.513-1.07-5.038-2.114-7.559-3.164-.138-.057-.278-.11-.424-.167a2.45,2.45,0,0,1-2.818,1.213,2.4,2.4,0,0,1-1.8-2.452,2.44,2.44,0,0,1,1.963-2.279,2.389,2.389,0,0,1,2.664,1.378,1.125,1.125,0,0,0,.679.662c2.633,1.087,5.261,2.187,7.885,3.281,1.447-1.689,2.662-1.758,4.3-.233l4.808-3.607c1.108-.831,2.222-1.653,3.317-2.5a1.493,1.493,0,0,0,.455-.623,2.491,2.491,0,0,1,2.279-1.645,2.462,2.462,0,0,1,2.319,1.583,1.053,1.053,0,0,0,.367.5q4.011,2.367,8.04,4.7a1.293,1.293,0,0,0,.17.065c.1-.119.207-.246.317-.367a2.409,2.409,0,0,1,2.869-.55,2.431,2.431,0,0,1-.781,4.6,2.394,2.394,0,0,1-2.517-1.481,1.357,1.357,0,0,0-.635-.726q-3.745-2.17-7.479-4.359c-.159-.092-.321-.179-.511-.285m-1.317-1.24a.808.808,0,1,0-.8.8.816.816,0,0,0,.8-.8M254.5,229.128a.808.808,0,0,0-1.616-.045.808.808,0,1,0,1.616.045m38.928,2.414a.808.808,0,1,0-.788.816.816.816,0,0,0,.788-.816m-25.951,1.642a.808.808,0,1,0-.805.8.817.817,0,0,0,.805-.8" transform="translate(435.668 5936.25)" fill="#f6f6f6"/>
      <path id="Trazado_838257" data-name="Trazado 838257" d="M349.877,198.853c1.147,0,2.294,0,3.441,0,.6,0,.964.3.977.79.013.505-.363.829-.988.83-2.108,0-4.217.009-6.325-.006a1,1,0,0,0-.791.334c-.847.871-1.709,1.727-2.573,2.58a.826.826,0,0,1-1.212.127.784.784,0,0,1-.027-1.172c1.061-1.086,2.13-2.165,3.226-3.215a1.251,1.251,0,0,1,.78-.259c1.163-.027,2.327-.012,3.491-.012" transform="translate(374.797 5952.722)" fill="#f6f6f6"/>
      <path id="Trazado_838258" data-name="Trazado 838258" d="M256.537,220.977c1.419,0,2.838,0,4.257,0,.639,0,1.01.3,1.01.81s-.372.81-1.011.811q-4.257,0-8.514,0c-.639,0-1.01-.305-1.01-.811s.37-.808,1.01-.81c1.419,0,2.838,0,4.257,0" transform="translate(435.659 5937.9)" fill="#f6f6f6"/>
      <path id="Trazado_838259" data-name="Trazado 838259" d="M340.878,257c-.879,0-1.757,0-2.635,0-.633,0-1.006-.315-1-.822s.366-.8.971-.8q2.686-.006,5.372,0c.59,0,.955.329.948.82s-.372.795-.972.8c-.9.005-1.79,0-2.686,0" transform="translate(378.07 5914.856)" fill="#f6f6f6"/>
      <path id="Trazado_838260" data-name="Trazado 838260" d="M349.124,248c.389,0,.778-.013,1.165,0a.807.807,0,1,1-.011,1.612q-1.19.024-2.381,0a.806.806,0,1,1,.011-1.612c.4-.016.811,0,1.216,0" transform="translate(371.488 5919.798)" fill="#f6f6f6"/>
      <path id="Trazado_838261" data-name="Trazado 838261" d="M286.861,222.594c-.085,0-.169,0-.253,0-.592-.014-.955-.329-.948-.822s.366-.79.969-.8c.2,0,.406-.008.608,0a.812.812,0,0,1,.848.818.821.821,0,0,1-.868.8c-.118.006-.236,0-.355,0" transform="translate(412.624 5937.905)" fill="#f6f6f6"/>
      <path id="Trazado_838262" data-name="Trazado 838262" d="M254.516,271.746c-.76,0-1.52,0-2.28,0-.6,0-.961-.312-.966-.8s.357-.814.952-.815q2.281-.008,4.561,0c.6,0,.962.312.966.8s-.36.812-.953.817c-.76.007-1.52,0-2.28,0" transform="translate(435.659 5904.98)" fill="#f6f6f6"/>
      <path id="Trazado_838263" data-name="Trazado 838263" d="M274.555,271.726a2.679,2.679,0,0,1-.455,0,.8.8,0,0,1,.027-1.6,5.742,5.742,0,0,1,.911,0,.8.8,0,0,1,.769.79.807.807,0,0,1-.746.815,4.625,4.625,0,0,1-.506,0v0" transform="translate(420.846 5904.993)" fill="#f6f6f6"/>
    </g>
    <g id="Grupo_1083955" data-name="Grupo 1083955" transform="translate(70.462 -3544.815)">
      <path id="Trazado_838264" data-name="Trazado 838264" d="M69.555,362.482c-.141-.05-.281-.1-.422-.151a2.714,2.714,0,0,1-1.843-2.5c0-.136,0-.272,0-.408q0-20.154,0-40.309a2.755,2.755,0,0,1,3.046-3.063q11.812,0,23.623-.008a1.615,1.615,0,0,1,1.244.51q4.105,4.135,8.239,8.241a1.564,1.564,0,0,1,.493,1.205c-.014,3.794-.008,7.587-.008,11.381a2.939,2.939,0,0,1-.018.5.9.9,0,0,1-1.785-.054,3.794,3.794,0,0,1-.009-.453q0-5.123,0-10.247v-.552H101.6q-2.653,0-5.305,0a2.726,2.726,0,0,1-2.892-2.9q0-2.63,0-5.26v-.547H70.311c-.925,0-1.21.289-1.21,1.226q0,20.177,0,40.354c0,.935.286,1.223,1.212,1.224h7.493v-.5q0-3.219,0-6.438c0-.876.3-1.187,1.16-1.189q2.653,0,5.305,0c.838,0,1.151.317,1.152,1.152q0,3.219,0,6.439v.514h1.814v-.51q0-5.8,0-11.608c0-.894.3-1.187,1.2-1.187q2.63,0,5.26,0c.84,0,1.155.311,1.155,1.144q0,5.8,0,11.607v.556h1.814v-.519q0-8.955,0-17.91c0-.937.284-1.226,1.209-1.226q2.63,0,5.26,0c.834,0,1.149.315,1.149,1.15q0,8.955,0,17.91v.581H106.1V347.7c0-.121,0-.242,0-.363a.933.933,0,0,1,.92-.972.92.92,0,0,1,.889.956c.013.619,0,1.239,0,1.859q0,5.464,0,10.927v.53h3.961v-23.8h-3.962c0,1.194,0,2.369,0,3.543a.9.9,0,0,1-.755.979.877.877,0,0,1-1.047-.861q-.028-2.312,0-4.625a.849.849,0,0,1,.907-.873c1.935-.011,3.869,0,5.8,0a1.016,1.016,0,0,1,.9.648v26.843Zm28.961-1.85h3.935V342.824H98.516Zm-9.438.006H93.01V349.173H89.078Zm-9.425.009h3.933v-6.272H79.654Zm20.921-35.894L95.22,319.4c0,1.4-.007,2.906,0,4.417a.866.866,0,0,0,.86.925c1.537.018,3.075.007,4.491.007" transform="translate(442.25 5984)" fill="#fff"/>
      <path id="Trazado_838265" data-name="Trazado 838265" d="M91.179,335.412c0-.472-.006-.952,0-1.433.011-.761.328-1.069,1.084-1.064a10.812,10.812,0,0,1,10.565,9.579,11.175,11.175,0,0,1,.074,1.22.879.879,0,0,1-.915.915c-.271.01-.544,0-.816,0h-.759a8.365,8.365,0,1,1-9.233-9.221m7.335,9.221H92.362c-.9,0-1.181-.282-1.183-1.2q0-2.13,0-4.261V337.32a6.417,6.417,0,0,0-5.61,6.116,6.506,6.506,0,0,0,12.945,1.2m-5.5-1.837h7.974a8.815,8.815,0,0,0-7.974-7.97Z" transform="translate(430.659 5972.111)" fill="#fff"/>
      <path id="Trazado_838266" data-name="Trazado 838266" d="M93.446,408.2H85.157a4.173,4.173,0,0,1-.5-.014.888.888,0,0,1-.781-.813.873.873,0,0,1,.6-.911,2.171,2.171,0,0,1,.624-.072q8.334-.005,16.668,0c.106,0,.212,0,.317,0a.925.925,0,0,1,.919.927.89.89,0,0,1-.953.879c-1.495.011-2.989.005-4.484.005H93.446" transform="translate(430.562 5920.339)" fill="#fff"/>
      <path id="Trazado_838267" data-name="Trazado 838267" d="M87.728,421.243c.907,0,1.814-.006,2.72,0,.637.005,1.034.353,1.04.888a.917.917,0,0,1-1.018.917q-2.788.019-5.577,0a.915.915,0,0,1-1.017-.918c.007-.535.4-.882,1.041-.887.937-.008,1.874,0,2.811,0" transform="translate(430.561 5909.874)" fill="#fff"/>
      <path id="Trazado_838268" data-name="Trazado 838268" d="M199.609,406.637a.9.9,0,0,1,.907.873.9.9,0,1,1-1.807.007.9.9,0,0,1,.9-.879" transform="translate(349.647 5920.164)" fill="#fff"/>
      <path id="Trazado_838269" data-name="Trazado 838269" d="M120.7,422.144a.893.893,0,0,1-.87.914.895.895,0,1,1-.04-1.788.893.893,0,0,1,.91.874" transform="translate(405.887 5909.854)" fill="#fff"/>
    </g>
    <g id="Grupo_1083956" data-name="Grupo 1083956" transform="translate(336.284 -3455.48)">
      <path id="Trazado_838270" data-name="Trazado 838270" d="M0,36.394V3.82A10.186,10.186,0,0,1,.454,2.543,4.368,4.368,0,0,1,4.631.015q15.338-.006,30.675,0c1.844,0,3.69-.04,5.532.022A5.084,5.084,0,0,1,42.833.5a4.25,4.25,0,0,1,2.494,4.1q.011,15.533,0,31.066c0,.089,0,.177,0,.266a3.067,3.067,0,0,1-2.908,3.048c-.376.032-.754.036-1.141.053v4.533h.495c.871,0,1.741-.006,2.611,0a.869.869,0,0,1,.883.608.828.828,0,0,1-.28.952c-.086.076-.185.138-.277.207H0V44.183a1.237,1.237,0,0,1,1.254-.628c.925.029,1.851.008,2.789.008V39H3.265A2.921,2.921,0,0,1,.8,37.938,9.718,9.718,0,0,1,0,36.394m23.9,7.16v-.519q0-5.178,0-10.356c0-.843.308-1.151,1.149-1.152q2.523,0,5.047,0c.961,0,1.24.279,1.241,1.239q0,5.134,0,10.267v.509h2.479v-.5q0-4.293,0-8.586c0-.133-.006-.266,0-.4a.884.884,0,1,1,1.765.021c.007.118,0,.236,0,.354V43.53H39.46V24.51H35.592v3.2c0,.1,0,.207,0,.31a.911.911,0,0,1-.871.935A.9.9,0,0,1,33.826,28c-.013-1.357-.005-2.714,0-4.072,0-.9.292-1.2,1.184-1.205q2.523-.006,5.047,0c.918,0,1.205.3,1.206,1.229q0,6.373,0,12.746v.541h.5c1.375,0,1.8-.416,1.8-1.787V8.185H1.771v.463q0,13.477,0,26.953a4.016,4.016,0,0,0,.011.442A1.263,1.263,0,0,0,2.841,37.19a10.782,10.782,0,0,0,1.232.009c0-.2,0-.384,0-.572-.009-3.05-.241-2.807,2.822-2.8,1.092,0,2.184,0,3.276,0s1.339.242,1.339,1.317v8.385h2.479v-.563q0-8.852,0-17.7c0-.925.294-1.225,1.211-1.227q2.479,0,4.958,0c.989,0,1.268.279,1.268,1.259V43.553ZM43.556,6.367c0-.7.032-1.35-.012-2a3,3,0,0,0-.28-1.1,2.683,2.683,0,0,0-2.647-1.49q-17.945.008-35.889,0a4.324,4.324,0,0,0-.574.024A2.554,2.554,0,0,0,1.975,3.457a8.253,8.253,0,0,0-.193,2.91ZM19.624,25.831H15.783V43.543h3.841ZM25.7,43.539h3.848V33.328H25.7ZM9.708,35.633H5.867v7.911H9.708Z" transform="translate(442.25 5984)"/>
      <path id="Trazado_838271" data-name="Trazado 838271" d="M32.264,49.392c.191.165.415.335.612.532q2.634,2.623,5.255,5.259a.522.522,0,0,0,.65.153,3.1,3.1,0,0,1,2.287.045.552.552,0,0,0,.482-.065q2.8-2.766,5.579-5.56a.763.763,0,0,0,.082-.13A3.186,3.186,0,1,1,53,47.764a3.154,3.154,0,0,1-2.648,3.129,10.531,10.531,0,0,1-1.4-.054.819.819,0,0,0-.533.146c-1.868,1.845-3.719,3.707-5.581,5.558a.412.412,0,0,0-.1.532,3.171,3.171,0,1,1-6.087,1.278,4.368,4.368,0,0,1,.315-1.4c.072-.222.1-.349-.081-.533C35,54.547,33.127,52.664,31.238,50.8a.546.546,0,0,0-.479-.088,3.147,3.147,0,0,1-2.329.051.473.473,0,0,0-.583.121q-2.4,2.419-4.821,4.817a.4.4,0,0,0-.1.53,3.173,3.173,0,1,1-6.006,1.976,3.009,3.009,0,0,1,.9-3.028,3.094,3.094,0,0,1,3.239-.706c.154.048.3.12.469.188.07-.059.152-.119.224-.191q2.38-2.376,4.761-4.751a.411.411,0,0,0,.112-.561A3.176,3.176,0,0,1,31.341,45.2a3.182,3.182,0,0,1,1.054,3.863c-.034.081-.065.162-.131.329m18.967-1.629A1.414,1.414,0,1,0,49.847,49.2a1.42,1.42,0,0,0,1.384-1.434m-10,10.572a1.413,1.413,0,1,0-1.413,1.4,1.419,1.419,0,0,0,1.413-1.4M30.89,47.8a1.4,1.4,0,0,0-1.374-1.429A1.413,1.413,0,1,0,30.89,47.8M21.414,57.49a1.4,1.4,0,0,0-1.376-1.427,1.426,1.426,0,0,0-1.445,1.415,1.412,1.412,0,0,0,1.41,1.4,1.386,1.386,0,0,0,1.411-1.386" transform="translate(429.972 5951.452)"/>
      <path id="Trazado_838272" data-name="Trazado 838272" d="M18.058,43.079c-.649,0-1.3.007-1.947,0a.891.891,0,1,1-.006-1.765q1.991-.014,3.983,0a.891.891,0,1,1,.006,1.765c-.678.009-1.357,0-2.036,0" transform="translate(431.234 5953.859)"/>
      <path id="Trazado_838273" data-name="Trazado 838273" d="M18.1,57.034c.649,0,1.3-.005,1.947,0s1.056.357,1.056.885-.413.88-1.056.883q-1.947.008-3.895,0c-.643,0-1.056-.356-1.056-.883s.412-.878,1.056-.885,1.3,0,1.947,0" transform="translate(431.235 5942.383)"/>
      <path id="Trazado_838274" data-name="Trazado 838274" d="M43.887,41.347a.879.879,0,0,1,.025,1.757.879.879,0,1,1-.025-1.757" transform="translate(410.857 5953.829)"/>
      <path id="Trazado_838275" data-name="Trazado 838275" d="M126.032,114.07a.869.869,0,1,1,.012-1.738.869.869,0,1,1-.012,1.738" transform="translate(350.919 5902.029)"/>
      <path id="Trazado_838276" data-name="Trazado 838276" d="M80.414,11.837h9.559a3.42,3.42,0,0,1,.486.015.873.873,0,0,1,0,1.738,3.042,3.042,0,0,1-.442.015H70.68c-.756,0-1.19-.324-1.191-.884s.434-.885,1.189-.886h9.736" transform="translate(391.542 5975.363)"/>
      <path id="Trazado_838277" data-name="Trazado 838277" d="M19.473,12.744a.878.878,0,1,1-.878-.878.915.915,0,0,1,.878.878" transform="translate(429.321 5975.341)"/>
      <path id="Trazado_838278" data-name="Trazado 838278" d="M31.706,13.621a.878.878,0,1,1,.869-.886.914.914,0,0,1-.869.886" transform="translate(419.76 5975.342)"/>
      <path id="Trazado_838279" data-name="Trazado 838279" d="M43.922,12.707a.879.879,0,1,1,.844.912.915.915,0,0,1-.844-.912" transform="translate(410.2 5975.344)"/>
    </g>
    <g id="Grupo_1083958" data-name="Grupo 1083958" transform="translate(-176 -3209)">
      <path id="Trazado_838280" data-name="Trazado 838280" d="M510.4,183.409h39.7a5.844,5.844,0,0,1,2.244-4.544,5.682,5.682,0,0,1,3.957-1.232,5.8,5.8,0,0,1,.443,11.527v.532q0,7.607-.007,15.213a.958.958,0,0,0,.359.787c4.11,3.778,5.621,8.422,4.029,13.772a12.589,12.589,0,0,1-10.834,9.344A13.169,13.169,0,0,1,535.3,216.988c-.012-.134-.043-.268-.071-.437H510.4Zm24.841,31.451c.063-.54.124-1.062.191-1.638h-1.844V203.33h4.966v3.514c4.9-4.747,10.383-5.653,16.5-2.685V189.268l-2.695-1.13c-1.488,1.492-3.041,3.059-4.61,4.611a.688.688,0,0,0-.221.8,2.283,2.283,0,0,1-.854,2.578,2.335,2.335,0,0,1-2.669.249,2.2,2.2,0,0,1-1.29-2.376,1.537,1.537,0,0,0-.683-1.767,5.161,5.161,0,0,1-.476-.475.6.6,0,0,0-.666-.194,3.837,3.837,0,0,1-1.417,0,.63.63,0,0,0-.667.193q-1.766,1.784-3.552,3.548a.569.569,0,0,0-.161.672,2.442,2.442,0,0,1-1.131,2.844,2.484,2.484,0,0,1-3.372-3.417,2.433,2.433,0,0,1,2.809-1.107.606.606,0,0,0,.715-.178q1.72-1.756,3.478-3.475a.689.689,0,0,0,.212-.8,2.286,2.286,0,0,1,.858-2.576,2.339,2.339,0,0,1,2.67-.244,2.2,2.2,0,0,1,1.285,2.378c-.253.883.17,1.291.689,1.765a5.559,5.559,0,0,1,.474.477.591.591,0,0,0,.667.187,3.544,3.544,0,0,1,1.366-.008.706.706,0,0,0,.754-.221c1.467-1.485,2.948-2.955,4.424-4.432.094-.094.177-.2.244-.274a8.517,8.517,0,0,1-.671-1.317c-.139-.443-.376-.512-.783-.511q-18.582.014-37.163.007h-.562V214.86Zm19.968,5.7a8.369,8.369,0,0,1-13.5.006l-2.859,1.653a11.641,11.641,0,0,0,19.215,0l-2.86-1.657m-7.6-16.367a11.513,11.513,0,0,0-9.535,16.555l2.828-1.634a8.137,8.137,0,0,1,.408-7.558,8.222,8.222,0,0,1,6.3-4.1Zm1.7,0v3.261a8.335,8.335,0,0,1,6.711,11.662l2.829,1.631a11.516,11.516,0,0,0-9.541-16.553m5.778,11.494a6.626,6.626,0,1,0-6.59,6.647,6.643,6.643,0,0,0,6.59-6.647m4.968-32.249a4.14,4.14,0,1,0-4.175,4.117,4.149,4.149,0,0,0,4.175-4.117M535.236,211.69c.306-.139.629-.18.7-.335a6.569,6.569,0,0,0,.944-3.875,6.958,6.958,0,0,1-.009-1.134v-1.358h-1.634Zm4.955-21.653a.824.824,0,1,0-.832-.816.834.834,0,0,0,.832.816m5.786,4.124a.824.824,0,1,0-.8.844.833.833,0,0,0,.8-.844m-12.424,2.5a.824.824,0,1,0-.822.826.832.832,0,0,0,.822-.826" transform="translate(442.25 5984)" fill="#f6f6f6"/>
      <path id="Trazado_838281" data-name="Trazado 838281" d="M564.429,257.259h-4.905V244.075h4.905Zm-3.241-1.674h1.6v-9.871h-1.6Z" transform="translate(409.685 5939.945)" fill="#f6f6f6"/>
      <path id="Trazado_838282" data-name="Trazado 838282" d="M525.11,267.031H520.2v-8.216h4.906Zm-3.241-1.675h1.594v-4.9h-1.594Z" transform="translate(435.752 5930.173)" fill="#f6f6f6"/>
      <path id="Trazado_838283" data-name="Trazado 838283" d="M544.8,270.269h-4.905V263.7H544.8Zm-3.249-1.675h1.592v-3.247h-1.592Z" transform="translate(422.7 5926.934)" fill="#f6f6f6"/>
      <rect id="Rectángulo_385129" data-name="Rectángulo 385129" width="11.521" height="1.612" transform="translate(959.284 6170.765)" fill="#f6f6f6"/>
      <rect id="Rectángulo_385130" data-name="Rectángulo 385130" width="11.543" height="1.598" transform="translate(959.264 6174.075)" fill="#f6f6f6"/>
      <rect id="Rectángulo_385131" data-name="Rectángulo 385131" width="11.525" height="1.598" transform="translate(959.273 6177.378)" fill="#f6f6f6"/>
      <rect id="Rectángulo_385132" data-name="Rectángulo 385132" width="11.534" height="1.594" transform="translate(959.277 6180.689)" fill="#f6f6f6"/>
      <rect id="Rectángulo_385133" data-name="Rectángulo 385133" width="1.602" height="1.593" transform="translate(955.961 6170.756)" fill="#f6f6f6"/>
      <rect id="Rectángulo_385134" data-name="Rectángulo 385134" width="1.611" height="1.585" transform="translate(955.955 6174.081)" fill="#f6f6f6"/>
      <rect id="Rectángulo_385135" data-name="Rectángulo 385135" width="1.586" height="1.61" transform="translate(955.969 6177.373)" fill="#f6f6f6"/>
      <rect id="Rectángulo_385136" data-name="Rectángulo 385136" width="1.607" height="1.598" transform="translate(955.958 6180.689)" fill="#f6f6f6"/>
      <path id="Trazado_838284" data-name="Trazado 838284" d="M618.53,280.892a4.968,4.968,0,1,1-4.935-5,4.982,4.982,0,0,1,4.935,5m-1.656-.025a3.311,3.311,0,1,0-3.333,3.3,3.318,3.318,0,0,0,3.333-3.3" transform="translate(377.153 5918.851)" fill="#f6f6f6"/>
    </g>
  </g>
</svg>
