<svg xmlns="http://www.w3.org/2000/svg" xmlns:xlink="http://www.w3.org/1999/xlink" width="400" height="292" viewBox="0 0 400 292">
  <defs>
    <clipPath id="clip-path">
      <rect id="Rectángulo_385185" data-name="Rectángulo 385185" width="400" height="292" transform="translate(180 8299)" fill="#fff" stroke="#707070" stroke-width="1"/>
    </clipPath>
    <clipPath id="clip-path-2">
      <rect id="Rectángulo_385184" data-name="Rectángulo 385184" width="316.392" height="332.996" fill="none"/>
    </clipPath>
    <clipPath id="clip-path-3">
      <rect id="Rectángulo_385165" data-name="Rectángulo 385165" width="316" height="316" transform="translate(0 0.001)" fill="none"/>
    </clipPath>
    <clipPath id="clip-path-4">
      <rect id="Rectángulo_385164" data-name="Rectángulo 385164" width="212.032" height="212.032" fill="none"/>
    </clipPath>
    <clipPath id="clip-path-6">
      <rect id="Rectángulo_385166" data-name="Rectángulo 385166" width="34.916" height="27.996" fill="none"/>
    </clipPath>
  </defs>
  <g id="Enmascarar_grupo_1083110" data-name="Enmascarar grupo 1083110" transform="translate(-180 -8299)" clip-path="url(#clip-path)">
    <g id="Grupo_1084201" data-name="Grupo 1084201" transform="translate(226 8278.002)">
      <g id="Grupo_1084200" data-name="Grupo 1084200" clip-path="url(#clip-path-2)">
        <g id="Grupo_1084194" data-name="Grupo 1084194" transform="translate(0 -0.001)">
          <g id="Grupo_1084193" data-name="Grupo 1084193" clip-path="url(#clip-path-3)">
            <g id="Grupo_1084192" data-name="Grupo 1084192" transform="translate(76.175 64.946)" opacity="0.62">
              <g id="Grupo_1084191" data-name="Grupo 1084191">
                <g id="Grupo_1084190" data-name="Grupo 1084190" clip-path="url(#clip-path-4)">
                  <path id="Trazado_838367" data-name="Trazado 838367" d="M332.412,208.65A106.016,106.016,0,1,1,226.4,102.634,106.016,106.016,0,0,1,332.412,208.65" transform="translate(-120.38 -102.634)" fill="#e7edf2"/>
                </g>
              </g>
            </g>
          </g>
        </g>
        <line id="Línea_139" data-name="Línea 139" y1="88.877" transform="translate(74.785 62.359)" fill="none" stroke="#a8c5e2" stroke-miterlimit="10" stroke-width="1"/>
        <line id="Línea_140" data-name="Línea 140" x2="55.665" transform="translate(108.192 60.474)" fill="none" stroke="#a8c5e2" stroke-miterlimit="10" stroke-width="1"/>
        <g id="Grupo_1084199" data-name="Grupo 1084199" transform="translate(0 -0.001)">
          <g id="Grupo_1084198" data-name="Grupo 1084198" clip-path="url(#clip-path-3)">
            <path id="Trazado_838368" data-name="Trazado 838368" d="M391.552,343.6c8.274,22.866,2.565,104.9,2.565,104.9l-84.811-3.042s.321-84.7,18.627-105.662,63.618,3.807,63.618,3.807" transform="translate(-113.582 -121.685)" fill="#87a1cf"/>
            <path id="Trazado_838369" data-name="Trazado 838369" d="M427.448,354.518C434.818,393.121,423.7,457,423.7,457" transform="translate(-155.589 -130.184)" fill="none" stroke="#536c7f" stroke-linecap="round" stroke-miterlimit="10" stroke-width="1"/>
            <path id="Trazado_838370" data-name="Trazado 838370" d="M322.484,133.225a5.392,5.392,0,0,0-.458-1.084,22.235,22.235,0,0,1-2.346-10.742c.327-9.042,9.478-8.281,16.244-6.515a3.79,3.79,0,0,1,.368-3.535c1.868-2.991,7.473-5.083,10.747-6.235,4-1.408,9.131-.869,13.219-.157,7.975,1.389,16.609,5.183,21.14,12.219,6.244,9.7,9.681,19.656,2.578,27.206s-5.27,14.178,7.332,16.87,13.977,12.84,0,18.847c-9.91,4.259-22.583,3.022-32.969,1.686a112.294,112.294,0,0,1-17.283-3.494,52.749,52.749,0,0,1-6.864-2.437c-2.964-1.337-2.651-2.174-4.232-4.736-2.254-3.652-6.322-5.732-9.309-8.812a18.649,18.649,0,0,1,.56-26.517,3.37,3.37,0,0,0,1.329-1.991,1.818,1.818,0,0,0-.056-.573" transform="translate(-115.816 -38.276)" fill="#5a2402"/>
            <path id="Trazado_838371" data-name="Trazado 838371" d="M418.71,169.7c-11.009,12.94-2.594,19.1-2.594,19.1" transform="translate(-151.675 -62.317)" fill="none" stroke="#af7e62" stroke-linecap="round" stroke-miterlimit="10" stroke-width="1"/>
            <path id="Trazado_838372" data-name="Trazado 838372" d="M326.6,150.048a13.909,13.909,0,0,0,3.459,4.636" transform="translate(-119.932 -55.099)" fill="none" stroke="#af7e62" stroke-linecap="round" stroke-miterlimit="10" stroke-width="1"/>
            <path id="Trazado_838373" data-name="Trazado 838373" d="M337.781,204.38c28.575-6.114,45.23-.748,45.23-.748s19.432,72.075,14.779,92.261h-68.1l-.273-32.662c2.249,5.015-12.847-31.33,8.361-58.852" transform="translate(-119.82 -73.976)" fill="#fca695"/>
            <g id="Grupo_1084197" data-name="Grupo 1084197" transform="translate(247.538 174.697)" opacity="0.57" style="mix-blend-mode: multiply;isolation: isolate">
              <g id="Grupo_1084196" data-name="Grupo 1084196">
                <g id="Grupo_1084195" data-name="Grupo 1084195" clip-path="url(#clip-path-6)">
                  <path id="Trazado_838374" data-name="Trazado 838374" d="M412.455,276.076c-2.013,14.912-21.266,28-21.266,28l34.916-4.388Z" transform="translate(-391.189 -276.076)" fill="#fca695"/>
                </g>
              </g>
            </g>
            <path id="Trazado_838375" data-name="Trazado 838375" d="M354.982,201.514c-6.375,2.865.429,5.432.429,5.432s-4.724,6.78,0,10.354,8.267-1.408,8.267-1.408,2.357,3.953,6.881,3.156,4.523-6.3,4.523-6.3a5.444,5.444,0,0,0,7.337.787c4.2-2.884,1.3-7.867,1.3-7.867s3.263,1.615,4.478-1.311-12.83-12-33.212-2.841" transform="translate(-129.354 -72.533)" fill="#fff"/>
            <path id="Trazado_838376" data-name="Trazado 838376" d="M365.171,188.654v5.493c0,5.669,2.868,8.493,10.13,6.106,4.731-1.555,7.011-5.371,7.011-8.842s.222-19.933.222-19.933L365.2,185.646Z" transform="translate(-134.096 -62.969)" fill="#f9d5bf"/>
            <path id="Trazado_838377" data-name="Trazado 838377" d="M377.507,176.718c-.958,9.723-6.168,15.825-12.329,15.825-.007-.084-.007-.175-.007-.259V174.559Z" transform="translate(-134.096 -64.1)" fill="#fca695"/>
            <path id="Trazado_838378" data-name="Trazado 838378" d="M334.113,136.286c-2.939,9.451-.439,22.227,4.968,27.732s12.777,6.8,18.723,3.695,11.889-8.784,14.219-13.957S374,136.6,370.555,131.216s-14.132-6.646-20.81-6.533-11.659,3.315-15.632,11.6" transform="translate(-122.234 -45.782)" fill="#f9d5bf"/>
            <path id="Trazado_838379" data-name="Trazado 838379" d="M347.135,153.368c0,1.057-.537,1.914-1.2,1.914s-1.2-.857-1.2-1.914.537-1.914,1.2-1.914,1.2.857,1.2,1.914" transform="translate(-126.592 -55.616)" fill="#5a2402"/>
            <path id="Trazado_838380" data-name="Trazado 838380" d="M368.912,153.368c0,1.057-.537,1.914-1.2,1.914s-1.2-.857-1.2-1.914.537-1.914,1.2-1.914,1.2.857,1.2,1.914" transform="translate(-134.589 -55.616)" fill="#5a2402"/>
            <path id="Trazado_838381" data-name="Trazado 838381" d="M364.306,140.4c2.856-1.217,7.283.2,7.7,2.052s-.31,2.776-1.136,2.776-2.839-2.357-6.716-1.388c-1.371.343-2.377-2.36.156-3.44" transform="translate(-133.206 -51.39)" fill="#5a2402"/>
            <path id="Trazado_838382" data-name="Trazado 838382" d="M346.972,140.4c-2.378-1.217-6.065.2-6.409,2.052s.258,2.776.946,2.776,2.364-2.357,5.592-1.388c1.142.343,1.979-2.36-.129-3.44" transform="translate(-125.023 -51.39)" fill="#5a2402"/>
            <path id="Trazado_838383" data-name="Trazado 838383" d="M355.295,152.22a16.4,16.4,0,0,1-1.7,8.653.681.681,0,0,0,.528,1.005,11.013,11.013,0,0,0,4.1-.125" transform="translate(-129.816 -55.897)" fill="none" stroke="#db7665" stroke-linecap="round" stroke-miterlimit="10" stroke-width="0.75"/>
            <path id="Trazado_838384" data-name="Trazado 838384" d="M359.539,171.222c2.484-.339,6.886-2.484,6.718-2.823,0,0,.671,3.434-2.162,4.072a4.9,4.9,0,0,1-4.556-1.248" transform="translate(-132.028 -61.838)" fill="#fff"/>
            <path id="Trazado_838385" data-name="Trazado 838385" d="M391.189,156.53c2.729-5.386,7.278-5.551,8.643-2.15s-1.478,10.354-6.6,10.857" transform="translate(-143.651 -55.854)" fill="#f9d5bf"/>
            <path id="Trazado_838386" data-name="Trazado 838386" d="M397.945,157.662c1.007.592,1.9,2.653-.4,4.573a6.885,6.885,0,0,1-4.6,1.727s-.39-2.679,1.069-4.224,3.252-2.529,3.931-2.076" transform="translate(-144.278 -57.855)" fill="#fca695"/>
            <path id="Trazado_838387" data-name="Trazado 838387" d="M393.7,160.654c2.388-4.073,4.776-3.39,5.231-2.367" transform="translate(-144.574 -57.837)" fill="none" stroke="#db7665" stroke-linecap="round" stroke-miterlimit="10" stroke-width="0.75"/>
            <path id="Trazado_838388" data-name="Trazado 838388" d="M395.847,159.944c1.829-.565,1.943,1.866,1.26,2.47" transform="translate(-145.361 -58.702)" fill="none" stroke="#db7665" stroke-linecap="round" stroke-miterlimit="10" stroke-width="0.75"/>
            <path id="Trazado_838389" data-name="Trazado 838389" d="M365.171,187.824a24.082,24.082,0,0,0,16.464-13.266" transform="translate(-134.096 -64.1)" fill="none" stroke="#db7665" stroke-linecap="round" stroke-miterlimit="10" stroke-width="0.75"/>
            <path id="Trazado_838390" data-name="Trazado 838390" d="M365.791,176.26c.823,0,3.044-1.654,3.313-1.107s-.547,1.71-1.348,2.247-2.788-1.136-1.965-1.14" transform="translate(-134.252 -64.277)" fill="#fca695"/>
            <path id="Trazado_838391" data-name="Trazado 838391" d="M378.282,159.685a2.573,2.573,0,1,1-2.5-1.949,2.274,2.274,0,0,1,2.5,1.949" transform="translate(-137.078 -57.922)" fill="#fca695"/>
            <path id="Trazado_838392" data-name="Trazado 838392" d="M343.735,159.685a2.573,2.573,0,1,1-2.5-1.949,2.274,2.274,0,0,1,2.5,1.949" transform="translate(-124.392 -57.922)" fill="#fca695"/>
            <path id="Trazado_838393" data-name="Trazado 838393" d="M350.222,123.293c5.212,14.9,26,14.345,26,14.345l-.906,7.319s3.585-4.85,5.5-4.8c0,0,4.236-17.5-6.119-20.188s-24.472,3.322-24.472,3.322" transform="translate(-128.607 -43.8)" fill="#5a2402"/>
            <path id="Trazado_838394" data-name="Trazado 838394" d="M350.222,125.623c2.577,10.595,19.59,14.759,26,14.345l-.906,7.319" transform="translate(-128.607 -46.13)" fill="none" stroke="#af7e62" stroke-linecap="round" stroke-miterlimit="10" stroke-width="1"/>
            <path id="Trazado_838395" data-name="Trazado 838395" d="M342.613,326.369l-5.6.921s-14.177-5.209-15.278-5.235-1.662,4.314,3.518,6.273,5.534,2.079,5.534,2.079-21.8,3.657-21.478,6.3,13.872-.544,13.872-.544-13.328,2.8-13.328,4.9,12.739,0,12.739,0-10.5,2.1-10.359,3.919,10.948.84,10.948.84-7.028.28-7.028,2.24,29.409-1.492,29.409-1.492Z" transform="translate(-113.582 -118.263)" fill="#f9d5bf"/>
            <line id="Línea_141" data-name="Línea 141" y1="1.755" x2="7.37" transform="translate(201.372 218.11)" fill="none" stroke="#db7665" stroke-linecap="round" stroke-miterlimit="10" stroke-width="0.75"/>
            <line id="Línea_142" data-name="Línea 142" y1="1.055" x2="5.264" transform="translate(204.609 222.492)" fill="none" stroke="#db7665" stroke-linecap="round" stroke-miterlimit="10" stroke-width="0.75"/>
            <line id="Línea_143" data-name="Línea 143" y1="1.005" x2="5.393" transform="translate(206.994 226.673)" fill="none" stroke="#db7665" stroke-linecap="round" stroke-miterlimit="10" stroke-width="0.75"/>
            <path id="Trazado_838396" data-name="Trazado 838396" d="M329.878,343.085c.377,7.3,4.672,10.579,4.672,10.579" transform="translate(-121.136 -125.985)" fill="none" stroke="#db7665" stroke-linecap="round" stroke-miterlimit="10" stroke-width="0.75"/>
            <path id="Trazado_838397" data-name="Trazado 838397" d="M199.372,197.441l-3.725-4.281s-3.012-14.8-3.568-15.751-4.544.852-3.491,6.289,1.137,5.8,1.137,5.8-14.558-16.627-16.645-14.967,7.748,11.519,7.748,11.519-9.382-9.871-11.169-8.769,6.691,10.841,6.691,10.841-7.3-7.832-8.777-6.757,5.035,9.758,5.035,9.758-3.93-5.834-5.6-4.8,16.715,24.243,16.715,24.243Z" transform="translate(-61.289 -64.048)" fill="#f9d5bf"/>
            <line id="Línea_144" data-name="Línea 144" x2="5.365" y2="5.35" transform="translate(113.549 116.032)" fill="none" stroke="#db7665" stroke-linecap="round" stroke-miterlimit="10" stroke-width="0.75"/>
            <path id="Trazado_838398" data-name="Trazado 838398" d="M201.951,198.253a11.4,11.4,0,0,0-1.383,8.961" transform="translate(-73.516 -72.801)" fill="none" stroke="#db7665" stroke-linecap="round" stroke-miterlimit="10" stroke-width="0.75"/>
            <line id="Línea_145" data-name="Línea 145" x2="3.663" y2="3.926" transform="translate(112.116 120.721)" fill="none" stroke="#db7665" stroke-linecap="round" stroke-miterlimit="10" stroke-width="0.75"/>
            <line id="Línea_146" data-name="Línea 146" x1="3.688" y1="4.062" transform="translate(109.853 124.919)" fill="none" stroke="#db7665" stroke-linecap="round" stroke-miterlimit="10" stroke-width="0.75"/>
            <path id="Trazado_838399" data-name="Trazado 838399" d="M395.423,204.9c12.4,1.54,26.6,9.123,32.259,37.255,3.882,19.315,10.706,44.685-.83,51.826s-63.916,9.644-63.916,9.644l-2.844-22,44-10.785-8.3-51.072" transform="translate(-132.231 -75.24)" fill="#fca695"/>
            <path id="Trazado_838400" data-name="Trazado 838400" d="M288.526,206.078c-8.591.993-48.955,39.77-48.955,39.77s-24.512-31.806-30.923-38.523l-16.485,14.4s19.035,38.349,24.319,46.506c10.093,15.582,22.588,19.352,33.981,14.467s41.718-37.158,41.718-37.158Z" transform="translate(-70.565 -75.674)" fill="#fca695"/>
            <path id="Trazado_838401" data-name="Trazado 838401" d="M322.6,237.005c-2.387,21.816,5.832,37.622,5.832,37.622" transform="translate(-118.303 -87.031)" fill="none" stroke="#db7665" stroke-linecap="round" stroke-miterlimit="10" stroke-width="1"/>
            <path id="Trazado_838402" data-name="Trazado 838402" d="M267.082,268.927a90.655,90.655,0,0,1,4.386,17.422" transform="translate(-98.077 -98.753)" fill="none" stroke="#db7665" stroke-linecap="round" stroke-miterlimit="10" stroke-width="1"/>
            <path id="Trazado_838403" data-name="Trazado 838403" d="M424.12,239.628c-1.91,19.387,3.328,43.963,3.328,43.963s6.849,6.043,6.849,10.878" transform="translate(-155.589 -87.994)" fill="none" stroke="#db7665" stroke-linecap="round" stroke-miterlimit="10" stroke-width="1"/>
            <path id="Trazado_838404" data-name="Trazado 838404" d="M404.09,309.1l-44,10.785" transform="translate(-132.231 -113.506)" fill="none" stroke="#db7665" stroke-linecap="round" stroke-miterlimit="10" stroke-width="1"/>
            <path id="Trazado_838405" data-name="Trazado 838405" d="M138.745,287.007a2.5,2.5,0,1,1-2.5-2.5,2.5,2.5,0,0,1,2.5,2.5" transform="translate(-49.113 -104.474)" fill="#9bb0c4"/>
            <rect id="Rectángulo_385167" data-name="Rectángulo 385167" width="126.31" height="109.55" transform="translate(40.84 223.446)" fill="#87a1cf"/>
            <path id="Trazado_838406" data-name="Trazado 838406" d="M169.248,345.789H52.826a2.673,2.673,0,0,1-2.673-2.673V322.993a2.673,2.673,0,0,1,2.673-2.674H169.248a2.673,2.673,0,0,1,2.674,2.674v20.123a2.673,2.673,0,0,1-2.674,2.673" transform="translate(-18.417 -117.625)" fill="#bbcadb"/>
            <path id="Trazado_838407" data-name="Trazado 838407" d="M200.676,345.789H84.254a2.673,2.673,0,0,1-2.673-2.673V322.993a2.673,2.673,0,0,1,2.673-2.674H200.676a2.673,2.673,0,0,1,2.674,2.674v20.123a2.673,2.673,0,0,1-2.674,2.673" transform="translate(-29.958 -117.625)" fill="#d2dfee"/>
            <path id="Trazado_838408" data-name="Trazado 838408" d="M143.324,344.182H90.133a1.669,1.669,0,0,1-1.669-1.669V328.039a1.669,1.669,0,0,1,1.669-1.669h53.191a1.669,1.669,0,0,1,1.669,1.669v14.474a1.669,1.669,0,0,1-1.669,1.669" transform="translate(-32.485 -119.847)" fill="#87a1cf"/>
            <rect id="Rectángulo_385168" data-name="Rectángulo 385168" width="31.921" height="4.082" transform="translate(62.498 210.139)" fill="#d2dfee"/>
            <rect id="Rectángulo_385169" data-name="Rectángulo 385169" width="31.921" height="4.082" transform="translate(62.498 216.636)" fill="#d2dfee"/>
            <path id="Trazado_838409" data-name="Trazado 838409" d="M197.366,333.685h-9.6a.525.525,0,0,1-.525-.525V326.9a.525.525,0,0,1,.525-.525h9.6a.525.525,0,0,1,.525.525v6.265a.525.525,0,0,1-.525.525" transform="translate(-68.757 -119.847)" fill="#bbcadb"/>
            <path id="Trazado_838410" data-name="Trazado 838410" d="M222.138,333.685h-9.6a.525.525,0,0,1-.525-.525V326.9a.525.525,0,0,1,.525-.525h9.6a.525.525,0,0,1,.525.525v6.265a.525.525,0,0,1-.525.525" transform="translate(-77.853 -119.847)" fill="#bbcadb"/>
            <path id="Trazado_838411" data-name="Trazado 838411" d="M246.91,333.685h-9.6a.525.525,0,0,1-.525-.525V326.9a.525.525,0,0,1,.525-.525h9.6a.525.525,0,0,1,.525.525v6.265a.525.525,0,0,1-.525.525" transform="translate(-86.95 -119.847)" fill="#bbcadb"/>
            <path id="Trazado_838412" data-name="Trazado 838412" d="M197.366,350.273h-9.6a.525.525,0,0,1-.525-.525v-6.265a.525.525,0,0,1,.525-.525h9.6a.525.525,0,0,1,.525.525v6.265a.525.525,0,0,1-.525.525" transform="translate(-68.757 -125.939)" fill="#bbcadb"/>
            <path id="Trazado_838413" data-name="Trazado 838413" d="M222.138,350.273h-9.6a.525.525,0,0,1-.525-.525v-6.265a.525.525,0,0,1,.525-.525h9.6a.525.525,0,0,1,.525.525v6.265a.525.525,0,0,1-.525.525" transform="translate(-77.853 -125.939)" fill="#bbcadb"/>
            <path id="Trazado_838414" data-name="Trazado 838414" d="M246.91,350.273h-9.6a.525.525,0,0,1-.525-.525v-6.265a.525.525,0,0,1,.525-.525h9.6a.525.525,0,0,1,.525.525v6.265a.525.525,0,0,1-.525.525" transform="translate(-86.95 -125.939)" fill="#bbcadb"/>
            <line id="Línea_147" data-name="Línea 147" x2="99.134" transform="translate(71.585 228.163)" fill="none" stroke="#536c7f" stroke-linecap="round" stroke-miterlimit="10" stroke-width="1"/>
            <path id="Trazado_838415" data-name="Trazado 838415" d="M169.248,391.308H52.826a2.673,2.673,0,0,1-2.673-2.674V368.512a2.673,2.673,0,0,1,2.673-2.674H169.248a2.673,2.673,0,0,1,2.674,2.674v20.123a2.673,2.673,0,0,1-2.674,2.674" transform="translate(-18.417 -134.341)" fill="#bbcadb"/>
            <path id="Trazado_838416" data-name="Trazado 838416" d="M200.676,391.308H84.254a2.673,2.673,0,0,1-2.673-2.674V368.512a2.673,2.673,0,0,1,2.673-2.674H200.676a2.673,2.673,0,0,1,2.674,2.674v20.123a2.673,2.673,0,0,1-2.674,2.674" transform="translate(-29.958 -134.341)" fill="#d2dfee"/>
            <path id="Trazado_838417" data-name="Trazado 838417" d="M143.324,389.7H90.133a1.669,1.669,0,0,1-1.669-1.669V373.558a1.669,1.669,0,0,1,1.669-1.669h53.191a1.669,1.669,0,0,1,1.669,1.669v14.473a1.669,1.669,0,0,1-1.669,1.669" transform="translate(-32.485 -136.563)" fill="#87a1cf"/>
            <rect id="Rectángulo_385170" data-name="Rectángulo 385170" width="31.921" height="4.082" transform="translate(62.498 238.943)" fill="#d2dfee"/>
            <rect id="Rectángulo_385171" data-name="Rectángulo 385171" width="31.921" height="4.082" transform="translate(62.498 245.44)" fill="#d2dfee"/>
            <path id="Trazado_838418" data-name="Trazado 838418" d="M197.366,379.2h-9.6a.526.526,0,0,1-.525-.525v-6.265a.525.525,0,0,1,.525-.525h9.6a.525.525,0,0,1,.525.525v6.265a.526.526,0,0,1-.525.525" transform="translate(-68.757 -136.563)" fill="#bbcadb"/>
            <path id="Trazado_838419" data-name="Trazado 838419" d="M222.138,379.2h-9.6a.526.526,0,0,1-.525-.525v-6.265a.525.525,0,0,1,.525-.525h9.6a.525.525,0,0,1,.525.525v6.265a.526.526,0,0,1-.525.525" transform="translate(-77.853 -136.563)" fill="#bbcadb"/>
            <path id="Trazado_838420" data-name="Trazado 838420" d="M246.91,379.2h-9.6a.526.526,0,0,1-.525-.525v-6.265a.525.525,0,0,1,.525-.525h9.6a.525.525,0,0,1,.525.525v6.265a.526.526,0,0,1-.525.525" transform="translate(-86.95 -136.563)" fill="#bbcadb"/>
            <path id="Trazado_838421" data-name="Trazado 838421" d="M197.366,395.792h-9.6a.525.525,0,0,1-.525-.525V389a.525.525,0,0,1,.525-.525h9.6a.525.525,0,0,1,.525.525v6.265a.525.525,0,0,1-.525.525" transform="translate(-68.757 -142.654)" fill="#bbcadb"/>
            <path id="Trazado_838422" data-name="Trazado 838422" d="M222.138,395.792h-9.6a.525.525,0,0,1-.525-.525V389a.525.525,0,0,1,.525-.525h9.6a.525.525,0,0,1,.525.525v6.265a.525.525,0,0,1-.525.525" transform="translate(-77.853 -142.654)" fill="#bbcadb"/>
            <path id="Trazado_838423" data-name="Trazado 838423" d="M246.91,395.792h-9.6a.525.525,0,0,1-.525-.525V389a.525.525,0,0,1,.525-.525h9.6a.525.525,0,0,1,.525.525v6.265a.525.525,0,0,1-.525.525" transform="translate(-86.95 -142.654)" fill="#bbcadb"/>
            <line id="Línea_148" data-name="Línea 148" x2="99.134" transform="translate(71.585 256.967)" fill="none" stroke="#536c7f" stroke-linecap="round" stroke-miterlimit="10" stroke-width="1"/>
            <path id="Trazado_838424" data-name="Trazado 838424" d="M169.248,436.827H52.826a2.673,2.673,0,0,1-2.673-2.674V414.031a2.673,2.673,0,0,1,2.673-2.674H169.248a2.673,2.673,0,0,1,2.674,2.674v20.123a2.674,2.674,0,0,1-2.674,2.674" transform="translate(-18.417 -151.056)" fill="#bbcadb"/>
            <path id="Trazado_838425" data-name="Trazado 838425" d="M200.676,436.827H84.254a2.673,2.673,0,0,1-2.673-2.674V414.031a2.673,2.673,0,0,1,2.673-2.674H200.676a2.673,2.673,0,0,1,2.674,2.674v20.123a2.674,2.674,0,0,1-2.674,2.674" transform="translate(-29.958 -151.056)" fill="#d2dfee"/>
            <path id="Trazado_838426" data-name="Trazado 838426" d="M143.324,435.22H90.133a1.669,1.669,0,0,1-1.669-1.669V419.077a1.669,1.669,0,0,1,1.669-1.669h53.191a1.669,1.669,0,0,1,1.669,1.669V433.55a1.669,1.669,0,0,1-1.669,1.669" transform="translate(-32.485 -153.278)" fill="#87a1cf"/>
            <rect id="Rectángulo_385172" data-name="Rectángulo 385172" width="31.921" height="4.082" transform="translate(62.498 267.746)" fill="#d2dfee"/>
            <rect id="Rectángulo_385173" data-name="Rectángulo 385173" width="31.921" height="4.082" transform="translate(62.498 274.243)" fill="#d2dfee"/>
            <path id="Trazado_838427" data-name="Trazado 838427" d="M197.366,424.723h-9.6a.525.525,0,0,1-.525-.525v-6.265a.525.525,0,0,1,.525-.525h9.6a.525.525,0,0,1,.525.525V424.2a.525.525,0,0,1-.525.525" transform="translate(-68.757 -153.278)" fill="#bbcadb"/>
            <path id="Trazado_838428" data-name="Trazado 838428" d="M222.138,424.723h-9.6a.525.525,0,0,1-.525-.525v-6.265a.525.525,0,0,1,.525-.525h9.6a.525.525,0,0,1,.525.525V424.2a.525.525,0,0,1-.525.525" transform="translate(-77.853 -153.278)" fill="#bbcadb"/>
            <path id="Trazado_838429" data-name="Trazado 838429" d="M246.91,424.723h-9.6a.525.525,0,0,1-.525-.525v-6.265a.525.525,0,0,1,.525-.525h9.6a.525.525,0,0,1,.525.525V424.2a.525.525,0,0,1-.525.525" transform="translate(-86.95 -153.278)" fill="#bbcadb"/>
            <path id="Trazado_838430" data-name="Trazado 838430" d="M197.366,441.311h-9.6a.525.525,0,0,1-.525-.525v-6.265a.525.525,0,0,1,.525-.525h9.6a.525.525,0,0,1,.525.525v6.265a.526.526,0,0,1-.525.525" transform="translate(-68.757 -159.369)" fill="#bbcadb"/>
            <path id="Trazado_838431" data-name="Trazado 838431" d="M222.138,441.311h-9.6a.526.526,0,0,1-.525-.525v-6.265a.525.525,0,0,1,.525-.525h9.6a.525.525,0,0,1,.525.525v6.265a.526.526,0,0,1-.525.525" transform="translate(-77.853 -159.369)" fill="#bbcadb"/>
            <path id="Trazado_838432" data-name="Trazado 838432" d="M246.91,441.311h-9.6a.525.525,0,0,1-.525-.525v-6.265a.525.525,0,0,1,.525-.525h9.6a.525.525,0,0,1,.525.525v6.265a.526.526,0,0,1-.525.525" transform="translate(-86.95 -159.369)" fill="#bbcadb"/>
            <line id="Línea_149" data-name="Línea 149" x2="99.134" transform="translate(71.585 285.77)" fill="none" stroke="#536c7f" stroke-linecap="round" stroke-miterlimit="10" stroke-width="1"/>
            <path id="Trazado_838433" data-name="Trazado 838433" d="M169.248,482.345H52.826a2.673,2.673,0,0,1-2.673-2.674V459.549a2.673,2.673,0,0,1,2.673-2.674H169.248a2.673,2.673,0,0,1,2.674,2.674v20.123a2.673,2.673,0,0,1-2.674,2.674" transform="translate(-18.417 -167.771)" fill="#bbcadb"/>
            <path id="Trazado_838434" data-name="Trazado 838434" d="M200.676,482.345H84.254a2.673,2.673,0,0,1-2.673-2.674V459.549a2.673,2.673,0,0,1,2.673-2.674H200.676a2.673,2.673,0,0,1,2.674,2.674v20.123a2.673,2.673,0,0,1-2.674,2.674" transform="translate(-29.958 -167.771)" fill="#d2dfee"/>
            <path id="Trazado_838435" data-name="Trazado 838435" d="M143.324,480.739H90.133a1.669,1.669,0,0,1-1.669-1.669V464.6a1.669,1.669,0,0,1,1.669-1.669h53.191a1.669,1.669,0,0,1,1.669,1.669v14.474a1.669,1.669,0,0,1-1.669,1.669" transform="translate(-32.485 -169.993)" fill="#87a1cf"/>
            <rect id="Rectángulo_385174" data-name="Rectángulo 385174" width="31.921" height="4.082" transform="translate(62.498 296.55)" fill="#d2dfee"/>
            <rect id="Rectángulo_385175" data-name="Rectángulo 385175" width="31.921" height="4.082" transform="translate(62.498 303.046)" fill="#d2dfee"/>
            <path id="Trazado_838436" data-name="Trazado 838436" d="M197.366,470.241h-9.6a.525.525,0,0,1-.525-.525v-6.265a.525.525,0,0,1,.525-.525h9.6a.525.525,0,0,1,.525.525v6.265a.525.525,0,0,1-.525.525" transform="translate(-68.757 -169.993)" fill="#bbcadb"/>
            <path id="Trazado_838437" data-name="Trazado 838437" d="M222.138,470.241h-9.6a.525.525,0,0,1-.525-.525v-6.265a.525.525,0,0,1,.525-.525h9.6a.525.525,0,0,1,.525.525v6.265a.525.525,0,0,1-.525.525" transform="translate(-77.853 -169.993)" fill="#bbcadb"/>
            <path id="Trazado_838438" data-name="Trazado 838438" d="M246.91,470.241h-9.6a.525.525,0,0,1-.525-.525v-6.265a.525.525,0,0,1,.525-.525h9.6a.525.525,0,0,1,.525.525v6.265a.525.525,0,0,1-.525.525" transform="translate(-86.95 -169.993)" fill="#bbcadb"/>
            <path id="Trazado_838439" data-name="Trazado 838439" d="M197.366,486.83h-9.6a.525.525,0,0,1-.525-.525V480.04a.525.525,0,0,1,.525-.525h9.6a.525.525,0,0,1,.525.525V486.3a.525.525,0,0,1-.525.525" transform="translate(-68.757 -176.085)" fill="#bbcadb"/>
            <path id="Trazado_838440" data-name="Trazado 838440" d="M222.138,486.83h-9.6a.525.525,0,0,1-.525-.525V480.04a.525.525,0,0,1,.525-.525h9.6a.525.525,0,0,1,.525.525V486.3a.525.525,0,0,1-.525.525" transform="translate(-77.853 -176.085)" fill="#bbcadb"/>
            <path id="Trazado_838441" data-name="Trazado 838441" d="M246.91,486.83h-9.6a.525.525,0,0,1-.525-.525V480.04a.525.525,0,0,1,.525-.525h9.6a.525.525,0,0,1,.525.525V486.3a.525.525,0,0,1-.525.525" transform="translate(-86.95 -176.085)" fill="#bbcadb"/>
            <line id="Línea_150" data-name="Línea 150" x2="99.134" transform="translate(71.585 314.574)" fill="none" stroke="#536c7f" stroke-linecap="round" stroke-miterlimit="10" stroke-width="1"/>
            <line id="Línea_151" data-name="Línea 151" x2="78.293" transform="translate(48.935 202.694)" fill="none" stroke="#536c7f" stroke-linecap="round" stroke-miterlimit="10" stroke-width="1"/>
            <path id="Trazado_838442" data-name="Trazado 838442" d="M137.9,287.234H64.646L51.566,245.5a3.567,3.567,0,0,1,3.4-4.634h63.254a7,7,0,0,1,6.683,4.909Z" transform="translate(-18.875 -88.45)" fill="#a2b8cc"/>
            <path id="Trazado_838443" data-name="Trazado 838443" d="M142.9,287.234H69.646L56.566,245.5a3.567,3.567,0,0,1,3.4-4.634h63.254a7,7,0,0,1,6.683,4.909Z" transform="translate(-20.711 -88.45)" fill="#bcccdd"/>
            <path id="Trazado_838444" data-name="Trazado 838444" d="M138.191,281.168H75.526l-10.986-35H127.2Z" transform="translate(-23.7 -90.395)" fill="#fff"/>
            <path id="Trazado_838445" data-name="Trazado 838445" d="M140.944,313.386H69.865a1.088,1.088,0,0,0-1.088,1.088v2.212a1.087,1.087,0,0,0,1.088,1.088h71.079a1.088,1.088,0,0,0,1.088-1.088v-2.212a1.088,1.088,0,0,0-1.088-1.088" transform="translate(-25.256 -115.079)" fill="#a2b8cc"/>
            <path id="Trazado_838446" data-name="Trazado 838446" d="M157.461,313.386H86.382a1.088,1.088,0,0,0-1.088,1.088v2.212a1.087,1.087,0,0,0,1.088,1.088h71.079a1.088,1.088,0,0,0,1.088-1.088v-2.212a1.088,1.088,0,0,0-1.088-1.088" transform="translate(-31.321 -115.079)" fill="#bcccdd"/>
            <line id="Línea_152" data-name="Línea 152" x2="73.254" transform="translate(48.935 198.783)" fill="none" stroke="#536c7f" stroke-linecap="round" stroke-miterlimit="10" stroke-width="1"/>
            <path id="Trazado_838447" data-name="Trazado 838447" d="M83.093,240.869H57.757a2.439,2.439,0,0,0-2.32,3.188l9.241,28.6" transform="translate(-20.313 -88.45)" fill="none" stroke="#536c7f" stroke-linecap="round" stroke-miterlimit="10" stroke-width="1"/>
            <path id="Trazado_838448" data-name="Trazado 838448" d="M124.461,260.087H88.526a2.177,2.177,0,1,1,0-4.355h35.935a2.177,2.177,0,0,1,0,4.355" transform="translate(-31.708 -93.908)" fill="#e2eaf2"/>
            <path id="Trazado_838449" data-name="Trazado 838449" d="M130.267,272.817H94.332a2.177,2.177,0,1,1,0-4.355h35.935a2.177,2.177,0,0,1,0,4.355" transform="translate(-33.84 -98.583)" fill="#e2eaf2"/>
            <path id="Trazado_838450" data-name="Trazado 838450" d="M136.072,285.547H100.137a2.177,2.177,0,1,1,0-4.355h35.935a2.177,2.177,0,0,1,0,4.355" transform="translate(-35.972 -103.257)" fill="#e2eaf2"/>
            <rect id="Rectángulo_385176" data-name="Rectángulo 385176" width="56.846" height="11.834" transform="translate(48.7 59.172)" fill="#87a1cf"/>
            <path id="Trazado_838451" data-name="Trazado 838451" d="M130.954,67.218A19.125,19.125,0,1,1,111.83,48.093a19.124,19.124,0,0,1,19.125,19.125" transform="translate(-34.043 -17.66)" fill="#87a1cf"/>
            <path id="Trazado_838452" data-name="Trazado 838452" d="M82.194,85.27A12.47,12.47,0,1,1,69.724,72.8a12.47,12.47,0,0,1,12.47,12.47" transform="translate(-21.025 -26.733)" fill="#87a1cf"/>
            <path id="Trazado_838453" data-name="Trazado 838453" d="M167.731,91.02a9.808,9.808,0,1,1-9.808-9.808,9.808,9.808,0,0,1,9.808,9.808" transform="translate(-54.39 -29.822)" fill="#87a1cf"/>
            <line id="Línea_153" data-name="Línea 153" x2="58.135" transform="translate(48.699 71.007)" fill="none" stroke="#536c7f" stroke-linecap="round" stroke-miterlimit="10" stroke-width="1"/>
            <path id="Trazado_838454" data-name="Trazado 838454" d="M94.439,65.522c-2.572,5.577-1.8,13.776-1.8,13.776" transform="translate(-33.979 -24.06)" fill="none" stroke="#536c7f" stroke-linecap="round" stroke-miterlimit="10" stroke-width="1"/>
            <path id="Trazado_838455" data-name="Trazado 838455" d="M148.114,91.4a10.857,10.857,0,0,1,6.267-9.147" transform="translate(-54.39 -30.205)" fill="none" stroke="#536c7f" stroke-linecap="round" stroke-miterlimit="10" stroke-width="1"/>
            <path id="Trazado_838456" data-name="Trazado 838456" d="M370.537,69.8a14.373,14.373,0,1,0-12.832-12.832A14.378,14.378,0,0,0,370.537,69.8m.28-20.278a6.1,6.1,0,1,1-4.782,4.776,6.1,6.1,0,0,1,4.782-4.776" transform="translate(-131.328 -15.101)" fill="#e2eaf2"/>
            <path id="Trazado_838457" data-name="Trazado 838457" d="M377.168,83.97h3.205a1.421,1.421,0,0,1,1.421,1.421v4.933a1.421,1.421,0,0,1-1.421,1.421h-3.205a1.421,1.421,0,0,1-1.421-1.421V85.391a1.421,1.421,0,0,1,1.421-1.421" transform="translate(-137.98 -30.834)" fill="#e2eaf2"/>
            <path id="Trazado_838458" data-name="Trazado 838458" d="M392.675,78.18l2.267-2.266a1.42,1.42,0,0,1,2.008,0l3.488,3.487a1.42,1.42,0,0,1,0,2.009l-2.266,2.267a1.422,1.422,0,0,1-2.009,0l-3.488-3.488a1.42,1.42,0,0,1,0-2.009" transform="translate(-144.044 -27.723)" fill="#e2eaf2"/>
            <path id="Trazado_838459" data-name="Trazado 838459" d="M400.478,63.506V60.3A1.421,1.421,0,0,1,401.9,58.88h4.933a1.421,1.421,0,0,1,1.421,1.421v3.205a1.421,1.421,0,0,1-1.421,1.421H401.9a1.421,1.421,0,0,1-1.421-1.421" transform="translate(-147.062 -21.621)" fill="#e2eaf2"/>
            <path id="Trazado_838460" data-name="Trazado 838460" d="M394.688,46.517l-2.267-2.267a1.421,1.421,0,0,1,0-2.008l3.488-3.488a1.42,1.42,0,0,1,2.009,0l2.267,2.266a1.421,1.421,0,0,1,0,2.009L396.7,46.517a1.42,1.42,0,0,1-2.009,0" transform="translate(-143.951 -14.078)" fill="#e2eaf2"/>
            <path id="Trazado_838461" data-name="Trazado 838461" d="M380.013,39.192h-3.205a1.421,1.421,0,0,1-1.421-1.421V32.839a1.421,1.421,0,0,1,1.421-1.421h3.205a1.421,1.421,0,0,1,1.421,1.421v4.933a1.421,1.421,0,0,1-1.421,1.421" transform="translate(-137.848 -11.537)" fill="#e2eaf2"/>
            <path id="Trazado_838462" data-name="Trazado 838462" d="M363.025,44.505l-2.267,2.267a1.421,1.421,0,0,1-2.008,0l-3.488-3.488a1.419,1.419,0,0,1,0-2.009l2.266-2.267a1.42,1.42,0,0,1,2.008,0l3.489,3.488a1.422,1.422,0,0,1,0,2.009" transform="translate(-130.305 -14.171)" fill="#e2eaf2"/>
            <path id="Trazado_838463" data-name="Trazado 838463" d="M355.7,60.66v3.205a1.421,1.421,0,0,1-1.421,1.421h-4.933a1.42,1.42,0,0,1-1.421-1.421V60.66a1.42,1.42,0,0,1,1.421-1.421h4.933A1.421,1.421,0,0,1,355.7,60.66" transform="translate(-127.764 -21.753)" fill="#e2eaf2"/>
            <path id="Trazado_838464" data-name="Trazado 838464" d="M361.013,76.168l2.266,2.267a1.42,1.42,0,0,1,0,2.008l-3.487,3.488a1.42,1.42,0,0,1-2.009,0l-2.267-2.266a1.422,1.422,0,0,1,0-2.009L359,76.168a1.42,1.42,0,0,1,2.009,0" transform="translate(-130.398 -27.817)" fill="#e2eaf2"/>
            <path id="Trazado_838465" data-name="Trazado 838465" d="M420.243,88.231h1.849a.732.732,0,0,0,.215-.032,6.269,6.269,0,0,0,.912,2.148.854.854,0,0,0-.158.123l-1.307,1.307a.8.8,0,0,0,0,1.12l.768.768a.791.791,0,0,0,1.12,0l1.307-1.307a.707.707,0,0,0,.13-.18,6.262,6.262,0,0,0,2.166.884.711.711,0,0,0-.025.194v1.849a.788.788,0,0,0,.789.789h1.085a.791.791,0,0,0,.793-.789V93.257a.768.768,0,0,0-.032-.218,6.175,6.175,0,0,0,2.151-.909.841.841,0,0,0,.12.159l1.306,1.307a.8.8,0,0,0,1.12,0l.768-.768a.8.8,0,0,0,0-1.12L434.015,90.4a.8.8,0,0,0-.177-.134,6.187,6.187,0,0,0,.877-2.163.737.737,0,0,0,.2.025h1.849a.787.787,0,0,0,.789-.788V86.255a.791.791,0,0,0-.789-.792h-1.849a.724.724,0,0,0-.215.032,6.277,6.277,0,0,0-.912-2.148.886.886,0,0,0,.159-.123l1.306-1.307a.8.8,0,0,0,0-1.12l-.768-.768a.791.791,0,0,0-1.12,0l-1.307,1.307a.7.7,0,0,0-.13.18,6.252,6.252,0,0,0-2.166-.884.709.709,0,0,0,.025-.194v-1.85A.787.787,0,0,0,429,77.8h-1.085a.79.79,0,0,0-.792.788v1.85a.776.776,0,0,0,.032.218,6.179,6.179,0,0,0-2.152.909.864.864,0,0,0-.12-.159L423.572,80.1a.8.8,0,0,0-1.12,0l-.768.768a.791.791,0,0,0,0,1.12l1.307,1.306a.8.8,0,0,0,.176.134,6.213,6.213,0,0,0-.877,2.162.761.761,0,0,0-.2-.025h-1.849a.787.787,0,0,0-.788.789v1.085a.79.79,0,0,0,.788.793m5.625-1.916a2.688,2.688,0,1,1,3.156,3.17,2.683,2.683,0,0,1-3.156-3.17" transform="translate(-154.03 -28.568)" fill="#e2eaf2"/>
            <path id="Trazado_838466" data-name="Trazado 838466" d="M122.279,166.3a9.754,9.754,0,1,1-9.754-9.754,9.754,9.754,0,0,1,9.754,9.754" transform="translate(-37.739 -57.484)" fill="#76a87e"/>
            <path id="Trazado_838467" data-name="Trazado 838467" d="M109.857,170.641l4.461,3.59,5.742-5.859" transform="translate(-40.341 -61.828)" fill="none" stroke="#fff" stroke-miterlimit="10" stroke-width="2"/>
            <path id="Trazado_838468" data-name="Trazado 838468" d="M282.123,68.083H258.951V60.861a11.586,11.586,0,0,1,23.172,0ZM261.2,65.833h18.672V60.861a9.336,9.336,0,0,0-18.672,0Z" transform="translate(-95.091 -18.094)" fill="#bcccdd"/>
            <path id="Trazado_838469" data-name="Trazado 838469" d="M282.1,105.02H247.826a4.05,4.05,0,0,1-4.05-4.05V76.725a4.05,4.05,0,0,1,4.05-4.049H282.1a4.05,4.05,0,0,1,4.05,4.049V100.97a4.05,4.05,0,0,1-4.05,4.05" transform="translate(-89.518 -26.687)" fill="#bcccdd"/>
            <path id="Trazado_838470" data-name="Trazado 838470" d="M251.727,72.676h33.981a3.363,3.363,0,0,1,3.363,3.363V97.183" transform="translate(-92.438 -26.687)" fill="none" stroke="#536c7f" stroke-linecap="round" stroke-miterlimit="10" stroke-width="1"/>
            <path id="Trazado_838471" data-name="Trazado 838471" d="M278.484,90.062a2.917,2.917,0,1,1-2.917-2.917,2.917,2.917,0,0,1,2.917,2.917" transform="translate(-100.121 -32)" fill="#fff"/>
            <path id="Trazado_838472" data-name="Trazado 838472" d="M278.412,101.84h-5.488l1.5-8.29h2.487Z" transform="translate(-100.222 -34.352)" fill="#fff"/>
            <rect id="Rectángulo_385177" data-name="Rectángulo 385177" width="20.471" height="5.52" transform="translate(37.842 81.357)" fill="#e2eaf2"/>
            <rect id="Rectángulo_385178" data-name="Rectángulo 385178" width="25.253" height="5.52" transform="translate(33.059 89.946)" fill="#bcccdd"/>
            <rect id="Rectángulo_385179" data-name="Rectángulo 385179" width="14.314" height="5.52" transform="translate(43.998 98.535)" fill="#e2eaf2"/>
            <rect id="Rectángulo_385180" data-name="Rectángulo 385180" width="9.595" height="5.52" transform="translate(48.717 107.125)" fill="#e2eaf2"/>
            <rect id="Rectángulo_385181" data-name="Rectángulo 385181" width="40.665" height="7.281" transform="translate(141.525 84.576)" fill="#e2eaf2"/>
            <rect id="Rectángulo_385182" data-name="Rectángulo 385182" width="25.839" height="7.281" transform="translate(141.525 95.943)" fill="#e2eaf2"/>
            <path id="Trazado_838473" data-name="Trazado 838473" d="M212.606,89.907a9.754,9.754,0,1,1-9.754-9.754,9.755,9.755,0,0,1,9.754,9.754" transform="translate(-70.908 -29.433)" fill="#76a87e"/>
            <path id="Trazado_838474" data-name="Trazado 838474" d="M200.185,94.251l4.461,3.59,5.742-5.86" transform="translate(-73.511 -33.776)" fill="none" stroke="#fff" stroke-miterlimit="10" stroke-width="2"/>
          </g>
        </g>
      </g>
    </g>
  </g>
</svg>
