<svg xmlns="http://www.w3.org/2000/svg" width="60.939" height="66.533" viewBox="0 0 60.939 66.533">
  <g id="contrato" transform="translate(-21.524)">
    <path id="Trazado_838970" data-name="Trazado 838970" d="M463.269,257.024h-3.784l-.13.13v1.465a3.345,3.345,0,0,0,.216,1.182l1.556,4.121a.268.268,0,0,0,.5,0l1.556-4.121a3.345,3.345,0,0,0,.216-1.182v-1.465Z" transform="translate(-380.936 -223.624)" fill="#e2dee2"/>
    <path id="Trazado_838971" data-name="Trazado 838971" d="M461.242,259.49v-1.465h-1.887v1.465a3.346,3.346,0,0,0,.216,1.182l1.556,4.121a.268.268,0,0,0,.5,0l.693-1.836-.863-2.285A3.347,3.347,0,0,1,461.242,259.49Z" transform="translate(-380.936 -224.495)" fill="#cbc4cc"/>
    <g id="Grupo_1084439" data-name="Grupo 1084439" transform="translate(24.952 2.343)">
      <path id="Trazado_838972" data-name="Trazado 838972" d="M169.2,22.349V18.7a.669.669,0,0,0-.669-.669H135.981v4.321Z" transform="translate(-124.535 -18.028)" fill="#a79ba7"/>
      <path id="Trazado_838973" data-name="Trazado 838973" d="M52.2,148.08H47.9v39.013a.669.669,0,0,0,.669.669H52.2Z" transform="translate(-47.903 -131.18)" fill="#a79ba7"/>
    </g>
    <path id="Trazado_838974" data-name="Trazado 838974" d="M111.843,100.3a9.849,9.849,0,0,1,12.822-9.39V50.946a.669.669,0,0,0-.669-.669H87.272v12.17a.546.546,0,0,1-.539.539H80v43.2a.669.669,0,0,0,.669.669h33.689a9.808,9.808,0,0,1-2.512-6.561Z" transform="translate(-50.875 -43.744)" fill="#f3f0f3"/>
    <g id="Grupo_1084440" data-name="Grupo 1084440" transform="translate(29.122 19.373)">
      <path id="Trazado_838975" data-name="Trazado 838975" d="M85.6,192.153V149.08H80v43.073a.669.669,0,0,0,.669.669h5.6A.669.669,0,0,1,85.6,192.153Z" transform="translate(-79.997 -149.08)" fill="#e2dee2"/>
    </g>
    <g id="Grupo_1084443" data-name="Grupo 1084443" transform="translate(78.419 6.534)">
      <g id="Grupo_1084442" data-name="Grupo 1084442">
        <g id="Grupo_1084441" data-name="Grupo 1084441">
          <path id="Trazado_838976" data-name="Trazado 838976" d="M463.4,77.274V52.3a2.022,2.022,0,1,0-4.044,0V77.274Z" transform="translate(-459.356 -50.278)" fill="#fed402"/>
        </g>
      </g>
    </g>
    <path id="Trazado_838977" data-name="Trazado 838977" d="M462.321,50.512a2.021,2.021,0,0,0-2.966,1.788V77.274h1.887V52.3A2.021,2.021,0,0,1,462.321,50.512Z" transform="translate(-380.936 -43.744)" fill="#fac600"/>
    <g id="Grupo_1084447" data-name="Grupo 1084447" transform="translate(60.839 46.574)">
      <g id="Grupo_1084444" data-name="Grupo 1084444">
        <circle id="Elipse_5843" data-name="Elipse 5843" cx="9.979" cy="9.979" r="9.979" fill="#00c27a"/>
      </g>
      <g id="Grupo_1084445" data-name="Grupo 1084445">
        <path id="Trazado_838978" data-name="Trazado 838978" d="M329.534,368.387a9.981,9.981,0,0,1,7.246-9.6,9.979,9.979,0,1,0,0,19.195A9.981,9.981,0,0,1,329.534,368.387Z" transform="translate(-324.067 -358.408)" fill="#09a755"/>
      </g>
      <g id="Grupo_1084446" data-name="Grupo 1084446" transform="translate(4.033 6.018)">
        <path id="Trazado_838979" data-name="Trazado 838979" d="M359.853,412.831a.975.975,0,0,1-.689-.285l-3.779-3.779a.975.975,0,1,1,1.378-1.378l3.09,3.09L365.33,405a.975.975,0,0,1,1.378,1.378l-6.166,6.166A.974.974,0,0,1,359.853,412.831Z" transform="translate(-355.099 -404.716)" fill="#fff"/>
      </g>
    </g>
    <g id="Grupo_1084452" data-name="Grupo 1084452" transform="translate(21.524)">
      <path id="Trazado_838980" data-name="Trazado 838980" d="M35.858,0H22.193a.669.669,0,0,0-.669.669V18.7a.663.663,0,0,0,.094.337l.135-.029a8.428,8.428,0,0,1,2.459-4.878,6.831,6.831,0,0,1,9.626,0A8.428,8.428,0,0,1,36.3,19.011l.135.029a.663.663,0,0,0,.094-.337V.669A.669.669,0,0,0,35.858,0Z" transform="translate(-21.524)" fill="#d8ecfe"/>
      <g id="Grupo_1084448" data-name="Grupo 1084448" transform="translate(0 0)">
        <path id="Trazado_838981" data-name="Trazado 838981" d="M25.745,12.854V.669A.669.669,0,0,1,26.415,0H22.193a.669.669,0,0,0-.669.669V18.7a.662.662,0,0,0,.094.337A8.273,8.273,0,0,1,25.745,12.854Z" transform="translate(-21.524 0)" fill="#c4e2ff"/>
      </g>
      <g id="Grupo_1084449" data-name="Grupo 1084449" transform="translate(0.094 12.02)">
        <path id="Trazado_838982" data-name="Trazado 838982" d="M22.823,99.851H36.488a.667.667,0,0,0,.575-.332c-.554-3.975-3.656-7.021-7.408-7.021s-6.854,3.045-7.408,7.021A.667.667,0,0,0,22.823,99.851Z" transform="translate(-22.248 -92.498)" fill="#26a6fe"/>
      </g>
      <g id="Grupo_1084450" data-name="Grupo 1084450" transform="translate(0.094 12.206)">
        <path id="Trazado_838983" data-name="Trazado 838983" d="M29.657,94.248a4.065,4.065,0,0,1-1.58-.318,8,8,0,0,0-5.827,6.834.666.666,0,0,0,.575.332h4.181a.666.666,0,0,1-.575-.332,8.078,8.078,0,0,1,5.317-6.692q-.251-.08-.509-.142A4.067,4.067,0,0,1,29.657,94.248Z" transform="translate(-22.25 -93.93)" fill="#0593fc"/>
      </g>
      <g id="Grupo_1084451" data-name="Grupo 1084451" transform="translate(3.423 4.367)">
        <circle id="Elipse_5844" data-name="Elipse 5844" cx="4.078" cy="4.078" r="4.078" fill="#26a6fe"/>
      </g>
    </g>
    <g id="Grupo_1084453" data-name="Grupo 1084453" transform="translate(34.209 55.124)">
      <path id="Trazado_838984" data-name="Trazado 838984" d="M133.253,426.15H120.116a.975.975,0,0,1,0-1.949h13.138a.975.975,0,0,1,0,1.949Z" transform="translate(-119.141 -424.201)" fill="#f6a96c"/>
    </g>
    <g id="Grupo_1084454" data-name="Grupo 1084454" transform="translate(34.209 45.183)">
      <path id="Trazado_838985" data-name="Trazado 838985" d="M127.588,354.9h-7.8a.65.65,0,0,1-.65-.65v-5.9a.65.65,0,0,1,.65-.65h7.8a.65.65,0,0,1,.65.65v5.9A.65.65,0,0,1,127.588,354.9Z" transform="translate(-119.141 -347.698)" fill="#f6a96c"/>
    </g>
    <g id="Grupo_1084455" data-name="Grupo 1084455" transform="translate(45.555 13.322)">
      <path id="Trazado_838986" data-name="Trazado 838986" d="M217.283,104.468H207.43a.975.975,0,0,1,0-1.949h9.853a.975.975,0,0,1,0,1.949Z" transform="translate(-206.455 -102.519)" fill="#a79ba7"/>
    </g>
    <g id="Grupo_1084456" data-name="Grupo 1084456" transform="translate(42.122 18.398)">
      <path id="Trazado_838987" data-name="Trazado 838987" d="M197.726,143.529H181.006a.975.975,0,0,1,0-1.949h16.721a.975.975,0,0,1,0,1.949Z" transform="translate(-180.031 -141.58)" fill="#a79ba7"/>
    </g>
    <g id="Grupo_1084460" data-name="Grupo 1084460" transform="translate(34.209 27.057)">
      <g id="Grupo_1084457" data-name="Grupo 1084457">
        <path id="Trazado_838988" data-name="Trazado 838988" d="M152.661,210.164H120.116a.975.975,0,0,1,0-1.949h32.546a.975.975,0,0,1,0,1.949Z" transform="translate(-119.141 -208.215)" fill="#a79ba7"/>
      </g>
      <g id="Grupo_1084458" data-name="Grupo 1084458" transform="translate(0 5.076)">
        <path id="Trazado_838989" data-name="Trazado 838989" d="M152.661,249.224H120.116a.975.975,0,1,1,0-1.949h32.546a.975.975,0,0,1,0,1.949Z" transform="translate(-119.141 -247.275)" fill="#a79ba7"/>
      </g>
      <g id="Grupo_1084459" data-name="Grupo 1084459" transform="translate(0 10.152)">
        <path id="Trazado_838990" data-name="Trazado 838990" d="M152.661,288.286H120.116a.975.975,0,1,1,0-1.949h32.546a.975.975,0,1,1,0,1.949Z" transform="translate(-119.141 -286.337)" fill="#a79ba7"/>
      </g>
    </g>
  </g>
</svg>
