<svg xmlns="http://www.w3.org/2000/svg" xmlns:xlink="http://www.w3.org/1999/xlink" width="400" height="351" viewBox="0 0 400 351">
  <defs>
    <clipPath id="clip-path">
      <rect id="Rectángulo_385238" data-name="Rectángulo 385238" width="400" height="351" transform="translate(1020 8716)" fill="#fff" stroke="#707070" stroke-width="1"/>
    </clipPath>
    <clipPath id="clip-path-2">
      <rect id="Rectángulo_385237" data-name="Rectángulo 385237" width="357" height="350.94" fill="none"/>
    </clipPath>
    <clipPath id="clip-path-6">
      <rect id="Rectángulo_385188" data-name="Rectángulo 385188" width="126.791" height="126.024" fill="none"/>
    </clipPath>
    <clipPath id="clip-path-7">
      <rect id="Rectángulo_385189" data-name="Rectángulo 385189" width="42.239" height="15.955" fill="none"/>
    </clipPath>
    <clipPath id="clip-path-8">
      <rect id="Rectángulo_385190" data-name="Rectángulo 385190" width="27.711" height="15.955" fill="none"/>
    </clipPath>
    <clipPath id="clip-path-9">
      <rect id="Rectángulo_385191" data-name="Rectángulo 385191" width="41.152" height="4.936" fill="none"/>
    </clipPath>
    <clipPath id="clip-path-10">
      <rect id="Rectángulo_385192" data-name="Rectángulo 385192" width="111.884" height="118.66" fill="none"/>
    </clipPath>
    <clipPath id="clip-path-11">
      <rect id="Rectángulo_385193" data-name="Rectángulo 385193" width="11.457" height="23.712" fill="none"/>
    </clipPath>
    <clipPath id="clip-path-12">
      <rect id="Rectángulo_385194" data-name="Rectángulo 385194" width="21.685" height="8.708" fill="none"/>
    </clipPath>
    <clipPath id="clip-path-13">
      <rect id="Rectángulo_385195" data-name="Rectángulo 385195" width="5.754" height="5.754" fill="none"/>
    </clipPath>
    <clipPath id="clip-path-15">
      <rect id="Rectángulo_385197" data-name="Rectángulo 385197" width="103.135" height="202.451" fill="none"/>
    </clipPath>
    <clipPath id="clip-path-16">
      <rect id="Rectángulo_385199" data-name="Rectángulo 385199" width="95.131" height="194.447" fill="none"/>
    </clipPath>
    <clipPath id="clip-path-17">
      <rect id="Rectángulo_385201" data-name="Rectángulo 385201" width="78.956" height="12.451" fill="none"/>
    </clipPath>
    <clipPath id="clip-path-19">
      <rect id="Rectángulo_385203" data-name="Rectángulo 385203" width="2.724" height="2.723" fill="none"/>
    </clipPath>
    <clipPath id="clip-path-23">
      <rect id="Rectángulo_385207" data-name="Rectángulo 385207" width="2.723" height="2.723" fill="none"/>
    </clipPath>
    <clipPath id="clip-path-28">
      <rect id="Rectángulo_385212" data-name="Rectángulo 385212" width="2.723" height="2.724" fill="none"/>
    </clipPath>
    <clipPath id="clip-path-31">
      <rect id="Rectángulo_385215" data-name="Rectángulo 385215" width="2.724" height="2.724" fill="none"/>
    </clipPath>
    <clipPath id="clip-path-35">
      <rect id="Rectángulo_385219" data-name="Rectángulo 385219" width="14.769" height="16.962" fill="none"/>
    </clipPath>
    <clipPath id="clip-path-37">
      <rect id="Rectángulo_385221" data-name="Rectángulo 385221" width="12.807" height="8.427" fill="none"/>
    </clipPath>
    <clipPath id="clip-path-38">
      <rect id="Rectángulo_385222" data-name="Rectángulo 385222" width="10.1" height="5.126" fill="none"/>
    </clipPath>
    <clipPath id="clip-path-39">
      <rect id="Rectángulo_385223" data-name="Rectángulo 385223" width="58.014" height="72.136" fill="none"/>
    </clipPath>
    <clipPath id="clip-path-40">
      <rect id="Rectángulo_385224" data-name="Rectángulo 385224" width="8.621" height="20.735" fill="none"/>
    </clipPath>
    <clipPath id="clip-path-41">
      <rect id="Rectángulo_385225" data-name="Rectángulo 385225" width="65.697" height="8.699" fill="none"/>
    </clipPath>
    <clipPath id="clip-path-42">
      <rect id="Rectángulo_385226" data-name="Rectángulo 385226" width="50.641" height="30.788" fill="none"/>
    </clipPath>
    <clipPath id="clip-path-43">
      <rect id="Rectángulo_385227" data-name="Rectángulo 385227" width="49.709" height="30.788" fill="none"/>
    </clipPath>
    <clipPath id="clip-path-44">
      <rect id="Rectángulo_385228" data-name="Rectángulo 385228" width="9.371" height="7.297" fill="none"/>
    </clipPath>
    <clipPath id="clip-path-45">
      <rect id="Rectángulo_385229" data-name="Rectángulo 385229" width="2.384" height="0.804" fill="none"/>
    </clipPath>
    <clipPath id="clip-path-46">
      <rect id="Rectángulo_385230" data-name="Rectángulo 385230" width="2.267" height="0.405" fill="none"/>
    </clipPath>
    <clipPath id="clip-path-47">
      <rect id="Rectángulo_385231" data-name="Rectángulo 385231" width="1.06" height="0.308" fill="none"/>
    </clipPath>
    <clipPath id="clip-path-48">
      <rect id="Rectángulo_385232" data-name="Rectángulo 385232" width="0.738" height="0.399" fill="none"/>
    </clipPath>
    <clipPath id="clip-path-50">
      <rect id="Rectángulo_385234" data-name="Rectángulo 385234" width="26.749" height="72.54" fill="none"/>
    </clipPath>
    <clipPath id="clip-path-51">
      <rect id="Rectángulo_385235" data-name="Rectángulo 385235" width="119.915" height="78.359" fill="none"/>
    </clipPath>
  </defs>
  <g id="Enmascarar_grupo_1083111" data-name="Enmascarar grupo 1083111" transform="translate(-1020 -8716)" clip-path="url(#clip-path)">
    <g id="Grupo_1084344" data-name="Grupo 1084344" transform="translate(1021 8712)">
      <g id="Grupo_1084343" data-name="Grupo 1084343" transform="translate(19 7)" clip-path="url(#clip-path-2)">
        <g id="Grupo_1084203" data-name="Grupo 1084203">
          <g id="Grupo_1084202" data-name="Grupo 1084202" clip-path="url(#clip-path-2)">
            <path id="Trazado_838475" data-name="Trazado 838475" d="M28.622,53.456A21.994,21.994,0,0,1,58.848,33.245a26.582,26.582,0,0,1,49.836,5.881,22.875,22.875,0,0,1-1.49,45.7H34.4a16.218,16.218,0,0,1-5.775-31.372" transform="translate(-1.443 -1.454)" fill="#e0e0e0"/>
            <path id="Trazado_838476" data-name="Trazado 838476" d="M309.421,249.529a13.571,13.571,0,0,1,18.651-12.471,16.4,16.4,0,0,1,30.75,3.629,14.115,14.115,0,0,1-.919,28.2H312.984a10.007,10.007,0,0,1-3.564-19.358" transform="translate(-24.047 -18.084)" fill="#e0e0e0"/>
            <path id="Trazado_838477" data-name="Trazado 838477" d="M45.1,204.685A23.055,23.055,0,0,1,76.782,183.5a27.865,27.865,0,0,1,52.241,6.165,23.979,23.979,0,0,1-1.561,47.908H51.15A17,17,0,0,1,45.1,204.685" transform="translate(-2.71 -13.323)" fill="#f0f0f0"/>
            <path id="Trazado_838478" data-name="Trazado 838478" d="M62.682,231.329a3.48,3.48,0,1,1-3.48-3.48,3.48,3.48,0,0,1,3.48,3.48" transform="translate(-4.423 -18.084)" fill="#e6e6e6"/>
            <path id="Trazado_838479" data-name="Trazado 838479" d="M76.932,231.329a3.48,3.48,0,1,1-3.48-3.48,3.48,3.48,0,0,1,3.48,3.48" transform="translate(-5.554 -18.084)" fill="#fff"/>
            <path id="Trazado_838480" data-name="Trazado 838480" d="M303.936,84.7a15.968,15.968,0,0,1,21.945-14.674,19.3,19.3,0,0,1,36.182,4.27,16.608,16.608,0,0,1-1.081,33.181H308.129A11.775,11.775,0,0,1,303.936,84.7" transform="translate(-23.522 -4.698)" fill="#f5f5f5"/>
            <path id="Trazado_838481" data-name="Trazado 838481" d="M356.582,102.464a2.251,2.251,0,1,1-2.251-2.251,2.251,2.251,0,0,1,2.251,2.251" transform="translate(-27.945 -7.954)" fill="#fff"/>
            <path id="Trazado_838482" data-name="Trazado 838482" d="M365.8,102.464a2.251,2.251,0,1,1-2.251-2.251,2.251,2.251,0,0,1,2.251,2.251" transform="translate(-28.676 -7.954)" fill="#fff"/>
            <path id="Trazado_838483" data-name="Trazado 838483" d="M347.363,102.464a2.251,2.251,0,1,1-2.251-2.251,2.251,2.251,0,0,1,2.251,2.251" transform="translate(-27.213 -7.954)" fill="#e6e6e6"/>
          </g>
        </g>
        <g id="Grupo_1084205" data-name="Grupo 1084205">
          <g id="Grupo_1084204" data-name="Grupo 1084204" clip-path="url(#clip-path-2)">
            <path id="Trazado_838484" data-name="Trazado 838484" d="M357,368.974c0,5.758-79.917,10.424-178.5,10.424S0,374.732,0,368.974,79.917,358.55,178.5,358.55,357,363.218,357,368.974" transform="translate(0 -28.458)" fill="#f5f5f5"/>
          </g>
        </g>
        <g id="Grupo_1084231" data-name="Grupo 1084231">
          <g id="Grupo_1084230" data-name="Grupo 1084230" clip-path="url(#clip-path-2)">
            <path id="Trazado_838485" data-name="Trazado 838485" d="M134.4,51.064H117.473A54.218,54.218,0,0,0,67.521,84.207H54.051a46.441,46.441,0,0,0,0,92.881H134.4Z" transform="translate(-0.604 -4.053)" fill="#407bff"/>
            <path id="Trazado_838486" data-name="Trazado 838486" d="M101.85,53.61l-.376-.841a57.516,57.516,0,0,1,6.514-2.447l.271.88a56.5,56.5,0,0,0-6.409,2.407" transform="translate(-8.054 -3.994)" fill="#407bff"/>
            <path id="Trazado_838487" data-name="Trazado 838487" d="M79,70.327l-.718-.576a57.144,57.144,0,0,1,15.17-13.267l.475.789A56.247,56.247,0,0,0,79,70.327" transform="translate(-6.213 -4.483)" fill="#407bff"/>
            <g id="Grupo_1084208" data-name="Grupo 1084208" transform="translate(7.007 47.011)" opacity="0.2">
              <g id="Grupo_1084207" data-name="Grupo 1084207">
                <g id="Grupo_1084206" data-name="Grupo 1084206" clip-path="url(#clip-path-6)">
                  <path id="Trazado_838488" data-name="Trazado 838488" d="M134.4,51.064H117.473A54.218,54.218,0,0,0,67.521,84.207H54.051a46.441,46.441,0,0,0,0,92.881H134.4Z" transform="translate(-7.611 -51.064)"/>
                </g>
              </g>
            </g>
            <g id="Grupo_1084211" data-name="Grupo 1084211" transform="translate(70.133 57.819)" opacity="0.5">
              <g id="Grupo_1084210" data-name="Grupo 1084210">
                <g id="Grupo_1084209" data-name="Grupo 1084209" clip-path="url(#clip-path-7)">
                  <path id="Trazado_838489" data-name="Trazado 838489" d="M76.179,78.76h24.286l17.952-15.955H90.449A54.416,54.416,0,0,0,76.179,78.76" transform="translate(-76.179 -62.804)" fill="#407bff"/>
                </g>
              </g>
            </g>
            <g id="Grupo_1084214" data-name="Grupo 1084214" transform="translate(8.091 100.629)" opacity="0.5">
              <g id="Grupo_1084213" data-name="Grupo 1084213">
                <g id="Grupo_1084212" data-name="Grupo 1084212" clip-path="url(#clip-path-8)">
                  <path id="Trazado_838490" data-name="Trazado 838490" d="M15.638,109.305A46.007,46.007,0,0,0,8.789,125.26H36.5V109.305Z" transform="translate(-8.789 -109.304)" fill="#407bff"/>
                </g>
              </g>
            </g>
            <g id="Grupo_1084217" data-name="Grupo 1084217" transform="translate(87.477 50.73)" opacity="0.5">
              <g id="Grupo_1084216" data-name="Grupo 1084216">
                <g id="Grupo_1084215" data-name="Grupo 1084215" clip-path="url(#clip-path-9)">
                  <path id="Trazado_838491" data-name="Trazado 838491" d="M136.171,55.1H104.649a53.652,53.652,0,0,0-9.63,4.935h23.2Z" transform="translate(-95.019 -55.104)" fill="#407bff"/>
                </g>
              </g>
            </g>
            <path id="Trazado_838492" data-name="Trazado 838492" d="M228.3,119.928a46.453,46.453,0,0,0-42.442-35.635,54.225,54.225,0,0,0-100.671,1.7,46.44,46.44,0,1,0-12.75,91.094H220.349a29.133,29.133,0,0,0,7.955-57.159" transform="translate(-2.064 -4.053)" fill="#407bff"/>
            <g id="Grupo_1084220" data-name="Grupo 1084220" transform="translate(131.852 50.696)" opacity="0.2">
              <g id="Grupo_1084219" data-name="Grupo 1084219">
                <g id="Grupo_1084218" data-name="Grupo 1084218" clip-path="url(#clip-path-10)">
                  <path id="Trazado_838493" data-name="Trazado 838493" d="M236.608,123.792l-2.09-.589-.5-2.108a42.978,42.978,0,0,0-39.072-32.811l-2.292-.129-.884-2.117a50.443,50.443,0,0,0-46.611-30.97c-.654,0-1.3.009-1.943.037A50.44,50.44,0,0,1,187.86,86.037l.884,2.117,2.292.129a42.978,42.978,0,0,1,39.072,32.811l.5,2.108,2.09.589a25.452,25.452,0,0,1-6.951,49.935h3.913a25.452,25.452,0,0,0,6.951-49.935" transform="translate(-143.219 -55.067)"/>
                </g>
              </g>
            </g>
            <path id="Trazado_838494" data-name="Trazado 838494" d="M223.709,123.8l-2.09-.589-.5-2.108A42.978,42.978,0,0,0,182.05,88.286l-2.292-.129-.884-2.117a50.44,50.44,0,0,0-44.641-30.933h-.064A50.847,50.847,0,0,0,88.947,87.625l-1.2,3.157-3.25-.93c-.092-.028-.193-.055-.285-.074a42.788,42.788,0,0,0-11.453-1.565c-.672,0-1.335.018-2.007.046a42.759,42.759,0,0,0,2.007,85.471h144a25.452,25.452,0,0,0,6.951-49.935" transform="translate(-2.381 -4.374)" fill="#fff"/>
            <path id="Trazado_838495" data-name="Trazado 838495" d="M124.245,121.439v36.545h36.827V121.439h11.636L142.659,87.666l-30.05,33.773Z" transform="translate(-8.938 -6.958)" fill="#407bff"/>
            <path id="Trazado_838496" data-name="Trazado 838496" d="M118.672,238.683h-1.886A4.785,4.785,0,0,1,112,233.9V214.971h11.457V233.9a4.785,4.785,0,0,1-4.785,4.785" transform="translate(-8.889 -17.062)" fill="#407bff"/>
            <g id="Grupo_1084223" data-name="Grupo 1084223" transform="translate(103.111 197.909)" opacity="0.2">
              <g id="Grupo_1084222" data-name="Grupo 1084222">
                <g id="Grupo_1084221" data-name="Grupo 1084221" clip-path="url(#clip-path-11)">
                  <path id="Trazado_838497" data-name="Trazado 838497" d="M118.672,238.683h-1.886A4.785,4.785,0,0,1,112,233.9V214.971h11.457V233.9a4.785,4.785,0,0,1-4.785,4.785" transform="translate(-112 -214.971)"/>
                </g>
              </g>
            </g>
            <path id="Trazado_838498" data-name="Trazado 838498" d="M119.072,218.717H115.5a9.058,9.058,0,0,1-9.058-9.058V187.952H128.13v21.707a9.058,9.058,0,0,1-9.058,9.058" transform="translate(-8.448 -14.918)" fill="#407bff"/>
            <g id="Grupo_1084226" data-name="Grupo 1084226" transform="translate(97.996 173.035)" opacity="0.2">
              <g id="Grupo_1084225" data-name="Grupo 1084225">
                <g id="Grupo_1084224" data-name="Grupo 1084224" clip-path="url(#clip-path-12)">
                  <path id="Trazado_838499" data-name="Trazado 838499" d="M128.13,193.388l-21.685,3.274v-8.709H128.13Z" transform="translate(-106.445 -187.953)"/>
                </g>
              </g>
            </g>
            <path id="Trazado_838500" data-name="Trazado 838500" d="M127.685,205.47a2.877,2.877,0,1,1-2.877-2.877,2.877,2.877,0,0,1,2.877,2.877" transform="translate(-9.678 -16.08)" fill="#fff"/>
            <g id="Grupo_1084229" data-name="Grupo 1084229" transform="translate(104.581 186.513)" opacity="0.5">
              <g id="Grupo_1084228" data-name="Grupo 1084228">
                <g id="Grupo_1084227" data-name="Grupo 1084227" clip-path="url(#clip-path-13)">
                  <path id="Trazado_838501" data-name="Trazado 838501" d="M119.351,205.47a2.877,2.877,0,1,1-2.877-2.877,2.877,2.877,0,0,1,2.877,2.877" transform="translate(-113.597 -202.593)" fill="#fff"/>
                </g>
              </g>
            </g>
            <path id="Trazado_838502" data-name="Trazado 838502" d="M190.242,272.557H141.961a26.268,26.268,0,0,1-26.238-26.238v-5.592h4.6v5.592a21.659,21.659,0,0,0,21.635,21.635h48.282Z" transform="translate(-9.185 -19.107)" fill="#407bff"/>
          </g>
        </g>
        <g id="Grupo_1084296" data-name="Grupo 1084296">
          <g id="Grupo_1084295" data-name="Grupo 1084295" clip-path="url(#clip-path-2)">
            <path id="Trazado_838503" data-name="Trazado 838503" d="M311.221,149.968H232.1a12.041,12.041,0,0,0-12.006,12.006V340.413A12.042,12.042,0,0,0,232.1,352.419h79.124a12.041,12.041,0,0,0,12.006-12.006V161.974a12.041,12.041,0,0,0-12.006-12.006" transform="translate(-17.469 -11.903)" fill="#407bff"/>
            <g id="Grupo_1084234" data-name="Grupo 1084234" transform="translate(202.623 138.065)" opacity="0.2">
              <g id="Grupo_1084233" data-name="Grupo 1084233">
                <g id="Grupo_1084232" data-name="Grupo 1084232" clip-path="url(#clip-path-15)">
                  <path id="Trazado_838504" data-name="Trazado 838504" d="M311.221,149.968H232.1a12.041,12.041,0,0,0-12.006,12.006V340.413A12.042,12.042,0,0,0,232.1,352.419h79.124a12.041,12.041,0,0,0,12.006-12.006V161.974a12.041,12.041,0,0,0-12.006-12.006" transform="translate(-220.092 -149.968)"/>
                </g>
              </g>
            </g>
            <path id="Trazado_838505" data-name="Trazado 838505" d="M287.8,149.968H208.672a12.041,12.041,0,0,0-12.006,12.006V340.413a12.042,12.042,0,0,0,12.006,12.006H287.8A12.041,12.041,0,0,0,299.8,340.413V161.974A12.041,12.041,0,0,0,287.8,149.968" transform="translate(-15.609 -11.903)" fill="#407bff"/>
            <g id="Grupo_1084237" data-name="Grupo 1084237" transform="translate(185.059 142.067)" opacity="0.2">
              <g id="Grupo_1084236" data-name="Grupo 1084236">
                <g id="Grupo_1084235" data-name="Grupo 1084235" clip-path="url(#clip-path-16)">
                  <path id="Rectángulo_385198" data-name="Rectángulo 385198" d="M8.694,0H86.436a8.695,8.695,0,0,1,8.695,8.695V185.753a8.694,8.694,0,0,1-8.694,8.694H8.694A8.694,8.694,0,0,1,0,185.753V8.694A8.694,8.694,0,0,1,8.694,0Z" transform="translate(0 0)"/>
                </g>
              </g>
            </g>
            <path id="Rectángulo_385200" data-name="Rectángulo 385200" d="M8.694,0H82.712a8.695,8.695,0,0,1,8.695,8.695V185.752a8.7,8.7,0,0,1-8.7,8.7H8.7a8.7,8.7,0,0,1-8.7-8.7V8.694A8.694,8.694,0,0,1,8.694,0Z" transform="translate(188.783 142.067)" fill="#fff"/>
            <g id="Grupo_1084240" data-name="Grupo 1084240" transform="translate(195.009 153.025)" opacity="0.3">
              <g id="Grupo_1084239" data-name="Grupo 1084239">
                <g id="Grupo_1084238" data-name="Grupo 1084238" clip-path="url(#clip-path-17)">
                  <path id="Trazado_838506" data-name="Trazado 838506" d="M284.552,178.669H218.046a6.225,6.225,0,1,1,0-12.451h66.505a6.225,6.225,0,1,1,0,12.451" transform="translate(-211.821 -166.218)" fill="#407bff"/>
                </g>
              </g>
            </g>
            <path id="Trazado_838507" data-name="Trazado 838507" d="M262.957,174.224H217.379a1.362,1.362,0,1,1,0-2.723h45.579a1.362,1.362,0,0,1,0,2.723" transform="translate(-17.145 -13.612)" fill="#fff"/>
            <path id="Trazado_838508" data-name="Trazado 838508" d="M286.119,172.863a1.362,1.362,0,1,1-1.362-1.362,1.361,1.361,0,0,1,1.362,1.362" transform="translate(-22.493 -13.612)" fill="#407bff"/>
            <path id="Trazado_838509" data-name="Trazado 838509" d="M292.64,172.863a1.362,1.362,0,1,1-1.362-1.362,1.361,1.361,0,0,1,1.362,1.362" transform="translate(-23.011 -13.612)" fill="#407bff"/>
            <path id="Trazado_838510" data-name="Trazado 838510" d="M279.6,172.863a1.362,1.362,0,1,1-1.362-1.362,1.361,1.361,0,0,1,1.362,1.362" transform="translate(-21.976 -13.612)" fill="#407bff"/>
            <g id="Grupo_1084243" data-name="Grupo 1084243" transform="translate(195.009 173.035)" opacity="0.3">
              <g id="Grupo_1084242" data-name="Grupo 1084242">
                <g id="Grupo_1084241" data-name="Grupo 1084241" clip-path="url(#clip-path-17)">
                  <path id="Trazado_838511" data-name="Trazado 838511" d="M284.552,200.4H218.046a6.225,6.225,0,1,1,0-12.451h66.505a6.225,6.225,0,1,1,0,12.451" transform="translate(-211.821 -187.953)" fill="#407bff"/>
                </g>
              </g>
            </g>
            <path id="Trazado_838512" data-name="Trazado 838512" d="M262.957,195.959H217.379a1.362,1.362,0,1,1,0-2.723h45.579a1.362,1.362,0,0,1,0,2.723" transform="translate(-17.145 -15.337)" fill="#fff"/>
            <path id="Trazado_838513" data-name="Trazado 838513" d="M286.119,194.6a1.362,1.362,0,1,1-1.362-1.362,1.361,1.361,0,0,1,1.362,1.362" transform="translate(-22.493 -15.337)" fill="#407bff"/>
            <path id="Trazado_838514" data-name="Trazado 838514" d="M292.64,194.6a1.362,1.362,0,1,1-1.362-1.362,1.361,1.361,0,0,1,1.362,1.362" transform="translate(-23.011 -15.337)" fill="#407bff"/>
            <g id="Grupo_1084246" data-name="Grupo 1084246" transform="translate(254.899 177.899)" opacity="0.3">
              <g id="Grupo_1084245" data-name="Grupo 1084245">
                <g id="Grupo_1084244" data-name="Grupo 1084244" clip-path="url(#clip-path-19)">
                  <path id="Trazado_838515" data-name="Trazado 838515" d="M279.6,194.6a1.362,1.362,0,1,1-1.362-1.362A1.361,1.361,0,0,1,279.6,194.6" transform="translate(-276.875 -193.236)" fill="#407bff"/>
                </g>
              </g>
            </g>
            <g id="Grupo_1084249" data-name="Grupo 1084249" transform="translate(195.009 193.045)" opacity="0.3">
              <g id="Grupo_1084248" data-name="Grupo 1084248">
                <g id="Grupo_1084247" data-name="Grupo 1084247" clip-path="url(#clip-path-17)">
                  <path id="Trazado_838516" data-name="Trazado 838516" d="M284.552,222.139H218.046a6.225,6.225,0,0,1,0-12.451h66.505a6.225,6.225,0,1,1,0,12.451" transform="translate(-211.821 -209.688)" fill="#407bff"/>
                </g>
              </g>
            </g>
            <path id="Trazado_838517" data-name="Trazado 838517" d="M262.957,217.694H217.379a1.362,1.362,0,1,1,0-2.723h45.579a1.362,1.362,0,0,1,0,2.723" transform="translate(-17.145 -17.062)" fill="#fff"/>
            <path id="Trazado_838518" data-name="Trazado 838518" d="M286.119,216.333a1.362,1.362,0,1,1-1.362-1.362,1.361,1.361,0,0,1,1.362,1.362" transform="translate(-22.493 -17.062)" fill="#407bff"/>
            <path id="Trazado_838519" data-name="Trazado 838519" d="M292.64,216.333a1.362,1.362,0,1,1-1.362-1.362,1.361,1.361,0,0,1,1.362,1.362" transform="translate(-23.011 -17.062)" fill="#407bff"/>
            <g id="Grupo_1084252" data-name="Grupo 1084252" transform="translate(254.899 197.909)" opacity="0.6">
              <g id="Grupo_1084251" data-name="Grupo 1084251">
                <g id="Grupo_1084250" data-name="Grupo 1084250" clip-path="url(#clip-path-19)">
                  <path id="Trazado_838520" data-name="Trazado 838520" d="M279.6,216.333a1.362,1.362,0,1,1-1.362-1.362,1.361,1.361,0,0,1,1.362,1.362" transform="translate(-276.875 -214.971)" fill="#407bff"/>
                </g>
              </g>
            </g>
            <g id="Grupo_1084255" data-name="Grupo 1084255" transform="translate(195.009 213.055)" opacity="0.3">
              <g id="Grupo_1084254" data-name="Grupo 1084254">
                <g id="Grupo_1084253" data-name="Grupo 1084253" clip-path="url(#clip-path-17)">
                  <path id="Trazado_838521" data-name="Trazado 838521" d="M284.552,243.874H218.046a6.225,6.225,0,1,1,0-12.451h66.505a6.225,6.225,0,1,1,0,12.451" transform="translate(-211.821 -231.423)" fill="#407bff"/>
                </g>
              </g>
            </g>
            <path id="Trazado_838522" data-name="Trazado 838522" d="M262.957,239.429H217.379a1.362,1.362,0,1,1,0-2.723h45.579a1.362,1.362,0,0,1,0,2.723" transform="translate(-17.145 -18.787)" fill="#fff"/>
            <path id="Trazado_838523" data-name="Trazado 838523" d="M286.119,238.068a1.362,1.362,0,1,1-1.362-1.362,1.361,1.361,0,0,1,1.362,1.362" transform="translate(-22.493 -18.787)" fill="#407bff"/>
            <g id="Grupo_1084258" data-name="Grupo 1084258" transform="translate(266.906 217.919)" opacity="0.3">
              <g id="Grupo_1084257" data-name="Grupo 1084257">
                <g id="Grupo_1084256" data-name="Grupo 1084256" clip-path="url(#clip-path-23)">
                  <path id="Trazado_838524" data-name="Trazado 838524" d="M292.64,238.068a1.362,1.362,0,1,1-1.362-1.362,1.361,1.361,0,0,1,1.362,1.362" transform="translate(-289.917 -236.706)" fill="#407bff"/>
                </g>
              </g>
            </g>
            <g id="Grupo_1084261" data-name="Grupo 1084261" transform="translate(254.899 217.919)" opacity="0.6">
              <g id="Grupo_1084260" data-name="Grupo 1084260">
                <g id="Grupo_1084259" data-name="Grupo 1084259" clip-path="url(#clip-path-19)">
                  <path id="Trazado_838525" data-name="Trazado 838525" d="M279.6,238.068a1.362,1.362,0,1,1-1.362-1.362,1.361,1.361,0,0,1,1.362,1.362" transform="translate(-276.875 -236.706)" fill="#407bff"/>
                </g>
              </g>
            </g>
            <g id="Grupo_1084264" data-name="Grupo 1084264" transform="translate(195.009 233.065)" opacity="0.3">
              <g id="Grupo_1084263" data-name="Grupo 1084263">
                <g id="Grupo_1084262" data-name="Grupo 1084262" clip-path="url(#clip-path-17)">
                  <path id="Trazado_838526" data-name="Trazado 838526" d="M284.552,265.609H218.046a6.225,6.225,0,1,1,0-12.451h66.505a6.225,6.225,0,1,1,0,12.451" transform="translate(-211.821 -253.158)" fill="#407bff"/>
                </g>
              </g>
            </g>
            <path id="Trazado_838527" data-name="Trazado 838527" d="M262.957,261.165H217.379a1.362,1.362,0,1,1,0-2.723h45.579a1.362,1.362,0,0,1,0,2.723" transform="translate(-17.145 -20.513)" fill="#fff"/>
            <path id="Trazado_838528" data-name="Trazado 838528" d="M286.119,259.8a1.362,1.362,0,1,1-1.362-1.362,1.361,1.361,0,0,1,1.362,1.362" transform="translate(-22.493 -20.513)" fill="#407bff"/>
            <g id="Grupo_1084267" data-name="Grupo 1084267" transform="translate(266.906 237.928)" opacity="0.6">
              <g id="Grupo_1084266" data-name="Grupo 1084266">
                <g id="Grupo_1084265" data-name="Grupo 1084265" clip-path="url(#clip-path-23)">
                  <path id="Trazado_838529" data-name="Trazado 838529" d="M292.64,259.8a1.362,1.362,0,1,1-1.362-1.362,1.361,1.361,0,0,1,1.362,1.362" transform="translate(-289.917 -258.441)" fill="#407bff"/>
                </g>
              </g>
            </g>
            <path id="Trazado_838530" data-name="Trazado 838530" d="M279.6,259.8a1.362,1.362,0,1,1-1.362-1.362A1.361,1.361,0,0,1,279.6,259.8" transform="translate(-21.976 -20.513)" fill="#407bff"/>
            <g id="Grupo_1084270" data-name="Grupo 1084270" transform="translate(195.009 253.075)" opacity="0.3">
              <g id="Grupo_1084269" data-name="Grupo 1084269">
                <g id="Grupo_1084268" data-name="Grupo 1084268" clip-path="url(#clip-path-17)">
                  <path id="Trazado_838531" data-name="Trazado 838531" d="M284.552,287.345H218.046a6.225,6.225,0,1,1,0-12.451h66.505a6.225,6.225,0,1,1,0,12.451" transform="translate(-211.821 -274.893)" fill="#407bff"/>
                </g>
              </g>
            </g>
            <path id="Trazado_838532" data-name="Trazado 838532" d="M262.957,282.9H217.379a1.362,1.362,0,1,1,0-2.723h45.579a1.362,1.362,0,0,1,0,2.723" transform="translate(-17.145 -22.238)" fill="#fff"/>
            <g id="Grupo_1084273" data-name="Grupo 1084273" transform="translate(260.903 257.938)" opacity="0.3">
              <g id="Grupo_1084272" data-name="Grupo 1084272">
                <g id="Grupo_1084271" data-name="Grupo 1084271" clip-path="url(#clip-path-28)">
                  <path id="Trazado_838533" data-name="Trazado 838533" d="M286.119,281.539a1.362,1.362,0,1,1-1.362-1.362,1.361,1.361,0,0,1,1.362,1.362" transform="translate(-283.396 -280.176)" fill="#407bff"/>
                </g>
              </g>
            </g>
            <path id="Trazado_838534" data-name="Trazado 838534" d="M292.64,281.539a1.362,1.362,0,1,1-1.362-1.362,1.361,1.361,0,0,1,1.362,1.362" transform="translate(-23.011 -22.238)" fill="#407bff"/>
            <path id="Trazado_838535" data-name="Trazado 838535" d="M279.6,281.539a1.362,1.362,0,1,1-1.362-1.362,1.361,1.361,0,0,1,1.362,1.362" transform="translate(-21.976 -22.238)" fill="#407bff"/>
            <g id="Grupo_1084276" data-name="Grupo 1084276" transform="translate(195.009 273.085)" opacity="0.3">
              <g id="Grupo_1084275" data-name="Grupo 1084275">
                <g id="Grupo_1084274" data-name="Grupo 1084274" clip-path="url(#clip-path-17)">
                  <path id="Trazado_838536" data-name="Trazado 838536" d="M284.552,309.08H218.046a6.225,6.225,0,0,1,0-12.451h66.505a6.225,6.225,0,1,1,0,12.451" transform="translate(-211.821 -296.629)" fill="#407bff"/>
                </g>
              </g>
            </g>
            <path id="Trazado_838537" data-name="Trazado 838537" d="M262.957,304.635H217.379a1.362,1.362,0,1,1,0-2.723h45.579a1.362,1.362,0,0,1,0,2.723" transform="translate(-17.145 -23.963)" fill="#fff"/>
            <g id="Grupo_1084279" data-name="Grupo 1084279" transform="translate(260.903 277.949)" opacity="0.3">
              <g id="Grupo_1084278" data-name="Grupo 1084278">
                <g id="Grupo_1084277" data-name="Grupo 1084277" clip-path="url(#clip-path-28)">
                  <path id="Trazado_838538" data-name="Trazado 838538" d="M286.119,303.274a1.362,1.362,0,1,1-1.362-1.362,1.361,1.361,0,0,1,1.362,1.362" transform="translate(-283.396 -301.911)" fill="#407bff"/>
                </g>
              </g>
            </g>
            <path id="Trazado_838539" data-name="Trazado 838539" d="M292.64,303.274a1.362,1.362,0,1,1-1.362-1.362,1.361,1.361,0,0,1,1.362,1.362" transform="translate(-23.011 -23.963)" fill="#407bff"/>
            <g id="Grupo_1084282" data-name="Grupo 1084282" transform="translate(254.899 277.949)" opacity="0.3">
              <g id="Grupo_1084281" data-name="Grupo 1084281">
                <g id="Grupo_1084280" data-name="Grupo 1084280" clip-path="url(#clip-path-31)">
                  <path id="Trazado_838540" data-name="Trazado 838540" d="M279.6,303.274a1.362,1.362,0,1,1-1.362-1.362,1.361,1.361,0,0,1,1.362,1.362" transform="translate(-276.875 -301.911)" fill="#407bff"/>
                </g>
              </g>
            </g>
            <g id="Grupo_1084285" data-name="Grupo 1084285" transform="translate(195.009 293.095)" opacity="0.3">
              <g id="Grupo_1084284" data-name="Grupo 1084284">
                <g id="Grupo_1084283" data-name="Grupo 1084283" clip-path="url(#clip-path-17)">
                  <path id="Trazado_838541" data-name="Trazado 838541" d="M284.552,330.815H218.046a6.225,6.225,0,1,1,0-12.451h66.505a6.225,6.225,0,1,1,0,12.451" transform="translate(-211.821 -318.364)" fill="#407bff"/>
                </g>
              </g>
            </g>
            <path id="Trazado_838542" data-name="Trazado 838542" d="M262.957,326.37H217.379a1.362,1.362,0,1,1,0-2.723h45.579a1.362,1.362,0,0,1,0,2.723" transform="translate(-17.145 -25.688)" fill="#fff"/>
            <path id="Trazado_838543" data-name="Trazado 838543" d="M286.119,325.009a1.362,1.362,0,1,1-1.362-1.362,1.361,1.361,0,0,1,1.362,1.362" transform="translate(-22.493 -25.688)" fill="#407bff"/>
            <path id="Trazado_838544" data-name="Trazado 838544" d="M292.64,325.009a1.362,1.362,0,1,1-1.362-1.362,1.361,1.361,0,0,1,1.362,1.362" transform="translate(-23.011 -25.688)" fill="#407bff"/>
            <path id="Trazado_838545" data-name="Trazado 838545" d="M279.6,325.009a1.362,1.362,0,1,1-1.362-1.362,1.361,1.361,0,0,1,1.362,1.362" transform="translate(-21.976 -25.688)" fill="#407bff"/>
            <g id="Grupo_1084288" data-name="Grupo 1084288" transform="translate(195.009 313.105)" opacity="0.3">
              <g id="Grupo_1084287" data-name="Grupo 1084287">
                <g id="Grupo_1084286" data-name="Grupo 1084286" clip-path="url(#clip-path-17)">
                  <path id="Trazado_838546" data-name="Trazado 838546" d="M284.552,352.55H218.046a6.225,6.225,0,1,1,0-12.451h66.505a6.225,6.225,0,1,1,0,12.451" transform="translate(-211.821 -340.099)" fill="#407bff"/>
                </g>
              </g>
            </g>
            <path id="Trazado_838547" data-name="Trazado 838547" d="M262.957,348.105H217.379a1.362,1.362,0,1,1,0-2.723h45.579a1.362,1.362,0,0,1,0,2.723" transform="translate(-17.145 -27.413)" fill="#fff"/>
            <path id="Trazado_838548" data-name="Trazado 838548" d="M286.119,346.744a1.362,1.362,0,1,1-1.362-1.362,1.361,1.361,0,0,1,1.362,1.362" transform="translate(-22.493 -27.413)" fill="#407bff"/>
            <path id="Trazado_838549" data-name="Trazado 838549" d="M292.64,346.744a1.362,1.362,0,1,1-1.362-1.362,1.361,1.361,0,0,1,1.362,1.362" transform="translate(-23.011 -27.413)" fill="#407bff"/>
            <g id="Grupo_1084291" data-name="Grupo 1084291" transform="translate(254.899 317.969)" opacity="0.6">
              <g id="Grupo_1084290" data-name="Grupo 1084290">
                <g id="Grupo_1084289" data-name="Grupo 1084289" clip-path="url(#clip-path-31)">
                  <path id="Trazado_838550" data-name="Trazado 838550" d="M279.6,346.744a1.362,1.362,0,1,1-1.362-1.362,1.361,1.361,0,0,1,1.362,1.362" transform="translate(-276.875 -345.382)" fill="#407bff"/>
                </g>
              </g>
            </g>
            <g id="Grupo_1084294" data-name="Grupo 1084294" transform="translate(287.591 179.863)" opacity="0.2">
              <g id="Grupo_1084293" data-name="Grupo 1084293">
                <g id="Grupo_1084292" data-name="Grupo 1084292" clip-path="url(#clip-path-35)">
                  <path id="Trazado_838551" data-name="Trazado 838551" d="M324.424,212.332h-9.309a2.738,2.738,0,0,1-2.73-2.73V198.1a2.737,2.737,0,0,1,2.73-2.73h9.309a2.737,2.737,0,0,1,2.73,2.73v11.5a2.738,2.738,0,0,1-2.73,2.73" transform="translate(-312.385 -195.37)"/>
                </g>
              </g>
            </g>
          </g>
        </g>
        <path id="Trazado_838552" data-name="Trazado 838552" d="M206.438,148.833l10.414,4.526-5.97,6.966-8.708-3.773Z" transform="translate(-16.047 -11.813)" fill="#ce7a63"/>
        <g id="Grupo_1084334" data-name="Grupo 1084334">
          <g id="Grupo_1084333" data-name="Grupo 1084333" clip-path="url(#clip-path-2)">
            <g id="Grupo_1084299" data-name="Grupo 1084299" transform="translate(188.003 137.024)" opacity="0.2">
              <g id="Grupo_1084298" data-name="Grupo 1084298">
                <g id="Grupo_1084297" data-name="Grupo 1084297" clip-path="url(#clip-path-37)">
                  <path id="Trazado_838553" data-name="Trazado 838553" d="M206.6,148.837l10.418,4.527-3.346,3.9-9.462-4.105Z" transform="translate(-204.211 -148.837)"/>
                </g>
              </g>
            </g>
            <path id="Trazado_838554" data-name="Trazado 838554" d="M211.289,164.554l-1.166-.314a2.155,2.155,0,0,1-1.481-1.389l-.764.323a2.158,2.158,0,0,1-1.4.1l-15.916-4.281A6.364,6.364,0,0,1,192,156s7.093,1.507,9.227-.118a.531.531,0,0,1,.563-.066c1.271.645,6.3,3.069,9.585,2.884a.652.652,0,0,1,.657.815,35.042,35.042,0,0,0-.739,5.041" transform="translate(-15.125 -12.363)" fill="#263238"/>
            <path id="Trazado_838555" data-name="Trazado 838555" d="M300.136,111.914l-4.461,9.342c-6.582,13.789-22.8,20.722-35.75,15.3-7.559-3.173-15.814-9.872-21.43-12.936-4.806,10.526-13.8,22.14-20.681,30.222l-13.92-7.009c5.2-11.93,13.294-30.566,18.429-42.668a12.39,12.39,0,0,1,10.822-7.518c23.146-.626,66.991,15.27,66.991,15.27" transform="translate(-16.183 -7.669)" fill="#263238"/>
            <path id="Trazado_838556" data-name="Trazado 838556" d="M235.589,181.95l10.007-.442-1.85,10.992-8.364.382Z" transform="translate(-18.682 -14.406)" fill="#ce7a63"/>
            <g id="Grupo_1084302" data-name="Grupo 1084302" transform="translate(216.819 167.104)" opacity="0.2">
              <g id="Grupo_1084301" data-name="Grupo 1084301">
                <g id="Grupo_1084300" data-name="Grupo 1084300" clip-path="url(#clip-path-38)">
                  <path id="Trazado_838557" data-name="Trazado 838557" d="M235.6,181.953l10.011-.443-.762,4.519-9.338.608Z" transform="translate(-235.512 -181.511)"/>
                </g>
              </g>
            </g>
            <path id="Trazado_838558" data-name="Trazado 838558" d="M246.831,193.553l-1.153.362a2.152,2.152,0,0,1-2-.377l-.471.683a2.162,2.162,0,0,1-1.128.832l-15.727,4.933a6.366,6.366,0,0,1-.4-3.294s6.793-2.536,7.72-5.052a.529.529,0,0,1,.439-.358c1.42-.139,6.96-.791,9.635-2.712a.653.653,0,0,1,.992.334,34.984,34.984,0,0,0,2.082,4.65" transform="translate(-17.93 -14.957)" fill="#263238"/>
            <path id="Trazado_838559" data-name="Trazado 838559" d="M308.8,109.216l-.076,9.865c-.117,14.553-12.454,27.543-27.186,28.639-8.6.632-20.22.832-26.925.7a134.351,134.351,0,0,1-7.365,30.9l-14.485-1.014c-.379-12.35-.936-29.863-1.4-41.478a12.192,12.192,0,0,1,6.946-11.11c21.72-10.692,70.5-16.5,70.5-16.5" transform="translate(-18.362 -8.669)" fill="#263238"/>
            <g id="Grupo_1084305" data-name="Grupo 1084305" transform="translate(225.459 98.644)" opacity="0.1">
              <g id="Grupo_1084304" data-name="Grupo 1084304">
                <g id="Grupo_1084303" data-name="Grupo 1084303" clip-path="url(#clip-path-39)">
                  <path id="Trazado_838560" data-name="Trazado 838560" d="M245.241,179.285a.344.344,0,0,1-.33-.445c2.19-7.2,6.135-29.679,6.311-39.991a.345.345,0,0,1,.389-.336c21.161,2.814,35.491,1.858,41.443-2.766,10.455-8.124,10.3-21.273,7.654-28.13a.344.344,0,1,1,.642-.248c2.726,7.048,2.878,20.567-7.873,28.921-6.152,4.78-20.135,5.775-41.575,2.956-.265,10.526-4.159,32.649-6.332,39.8a.344.344,0,0,1-.33.244" transform="translate(-244.897 -107.148)"/>
                </g>
              </g>
            </g>
            <g id="Grupo_1084308" data-name="Grupo 1084308" transform="translate(213.131 117.146)" opacity="0.2">
              <g id="Grupo_1084307" data-name="Grupo 1084307">
                <g id="Grupo_1084306" data-name="Grupo 1084306" clip-path="url(#clip-path-40)">
                  <path id="Trazado_838561" data-name="Trazado 838561" d="M240.118,127.259a104.022,104.022,0,0,1-8.612,14.278c.073,2.038.152,4.2.235,6.443,5.126-8.1,8.385-20.735,8.385-20.735a.024.024,0,0,1-.008.014" transform="translate(-231.506 -127.245)"/>
                </g>
              </g>
            </g>
            <path id="Trazado_838562" data-name="Trazado 838562" d="M278.8,57.911c-.389,1.425-.756,2.666-1.181,3.972-.4,1.293-.856,2.566-1.31,3.841-.932,2.542-1.9,5.075-3.021,7.579s-2.275,5.007-3.658,7.494a58.75,58.75,0,0,1-4.766,7.474l-.592.783a3.866,3.866,0,0,1-1.393,1.14,25.6,25.6,0,0,1-6.332,2.043,23.239,23.239,0,0,1-3.276.338c-.55.02-1.109,0-1.666-.018l-.855-.068c-.3-.029-.551-.083-.951-.106a3.22,3.22,0,0,1-2.846-4.29l1.221-3.383a2.039,2.039,0,0,1,.377-.437l.464-.441.941-.859c.622-.568,1.24-1.1,1.827-1.655.6-.521,1.164-1.075,1.723-1.583s1.073-1.051,1.6-1.537l-1.985,1.923a65.1,65.1,0,0,0,2.964-6.015l.7-1.633.664-1.679c.454-1.117.893-2.254,1.317-3.4.846-2.3,1.683-4.627,2.483-6.974l2.363-6.969.056-.167A7.917,7.917,0,0,1,278.8,57.911" transform="translate(-19.586 -3.802)" fill="#ce7a63"/>
            <path id="Trazado_838563" data-name="Trazado 838563" d="M272.3,44.7c-4.2,1.206-9.856,5.847-11.8,16.358,2.814,4.373,16.03,1,16.03,1Z" transform="translate(-20.676 -3.548)" fill="#407bff"/>
            <path id="Trazado_838564" data-name="Trazado 838564" d="M250.785,87.785l.427,4.551c-1.274,4.631-6.944,1.962-6.944,1.962l-3.244-.181a2.422,2.422,0,0,1-2.129-2.3l-.323-3.179a2.527,2.527,0,0,1,2.017-2.888l2.819-.307a5.01,5.01,0,0,1,2.415.336Z" transform="translate(-18.934 -6.779)" fill="#ce7a63"/>
            <path id="Trazado_838565" data-name="Trazado 838565" d="M273.821,43.768a142.836,142.836,0,0,1,20.989-2.853,13.268,13.268,0,0,1,14.008,13.6c-.592,23.188,2.673,47.567,2.21,52.038,0,0-48.895,7.039-56.391-7.495-3.149-20.612,7.026-17.986,7.841-41.653.214-6.2,5.278-12.339,11.344-13.637" transform="translate(-20.163 -3.246)" fill="#407bff"/>
            <path id="Trazado_838566" data-name="Trazado 838566" d="M271.221,66.293l.165-.047.029-.178a3.18,3.18,0,0,1,2.976-2.719l.183-.007.061-.178a3.689,3.689,0,0,1,3.433-2.553h.005a4.527,4.527,0,0,1,3.8,2.807l.111.268.257-.075.023-.006a3.166,3.166,0,0,1,.912-.117c.054,0,.108,0,.162.006a3.89,3.89,0,0,1,3.49,3.661,3.225,3.225,0,0,1-3.222,3.555L272.03,70.52a2.306,2.306,0,0,1-2.173-2.184,1.953,1.953,0,0,1,1.363-2.043" transform="translate(-21.418 -4.811)" fill="#fff"/>
            <path id="Trazado_838567" data-name="Trazado 838567" d="M310.8,49.066l.447.992.39.9c.254.6.481,1.2.713,1.8.463,1.193.863,2.4,1.259,3.615a70.678,70.678,0,0,1,1.943,7.46q.381,1.913.673,3.872.257,1.969.4,3.994a41.665,41.665,0,0,1-.238,8.423l-.09.679a5.751,5.751,0,0,1-.922,2.432,18.749,18.749,0,0,1-3.083,3.534,33.025,33.025,0,0,1-3.073,2.429,46.628,46.628,0,0,1-6.1,3.53,65.238,65.238,0,0,1-6.18,2.587,57.375,57.375,0,0,1-6.39,1.9,4,4,0,0,1-3.388-7.019l.169-.133c1.537-1.225,3.217-2.465,4.787-3.7,1.588-1.231,3.149-2.457,4.622-3.706a54,54,0,0,0,4.074-3.718,18.262,18.262,0,0,0,1.543-1.783,5.341,5.341,0,0,0,.8-1.346l-1.013,3.111a37.527,37.527,0,0,0-.536-5.59c-.342-1.947-.8-3.943-1.331-5.955-.562-2.007-1.159-4.038-1.85-6.051-.331-1.011-.7-2.011-1.05-3.012l-1.049-2.827-.158-.428a7.91,7.91,0,0,1,14.631-6" transform="translate(-22.673 -3.524)" fill="#ce7a63"/>
            <path id="Trazado_838568" data-name="Trazado 838568" d="M300.706,41.031c3.376.374,10.53,2.908,15.236,12.6-4.62,9.129-16.674,12.6-16.674,12.6s-8.388-20.357,1.438-25.209" transform="translate(-23.488 -3.257)" fill="#407bff"/>
            <path id="Trazado_838569" data-name="Trazado 838569" d="M267.57,111.358H227.829c-1.731,0-2.1-.4-.818-.889l18.132-6.921a18.565,18.565,0,0,1,5.477-.889h39.743c1.731,0,2.1.4.817.889l-18.132,6.921a18.565,18.565,0,0,1-5.477.889" transform="translate(-17.957 -8.148)" fill="#407bff"/>
            <g id="Grupo_1084311" data-name="Grupo 1084311" transform="translate(208.29 94.51)" opacity="0.4">
              <g id="Grupo_1084310" data-name="Grupo 1084310">
                <g id="Grupo_1084309" data-name="Grupo 1084309" clip-path="url(#clip-path-41)">
                  <path id="Trazado_838570" data-name="Trazado 838570" d="M267.57,111.358H227.829c-1.731,0-2.1-.4-.818-.889l18.132-6.921a18.565,18.565,0,0,1,5.477-.889h39.743c1.731,0,2.1.4.817.889l-18.132,6.921a18.565,18.565,0,0,1-5.477.889" transform="translate(-226.247 -102.658)"/>
                </g>
              </g>
            </g>
            <path id="Trazado_838571" data-name="Trazado 838571" d="M266.993,107.67H227.251a3.968,3.968,0,0,1-3.726-3.147l-4.5-24.493a2.554,2.554,0,0,1,2.569-3.148h39.742a3.967,3.967,0,0,1,3.725,3.148l4.5,24.493a2.553,2.553,0,0,1-2.569,3.147" transform="translate(-17.38 -6.102)" fill="#407bff"/>
            <g id="Grupo_1084314" data-name="Grupo 1084314" transform="translate(201.594 70.78)" opacity="0.3">
              <g id="Grupo_1084313" data-name="Grupo 1084313">
                <g id="Grupo_1084312" data-name="Grupo 1084312" clip-path="url(#clip-path-42)">
                  <path id="Trazado_838572" data-name="Trazado 838572" d="M266.993,107.67H227.251a3.968,3.968,0,0,1-3.726-3.147l-4.5-24.493a2.554,2.554,0,0,1,2.569-3.148h39.742a3.967,3.967,0,0,1,3.725,3.148l4.5,24.493a2.553,2.553,0,0,1-2.569,3.147" transform="translate(-218.974 -76.882)"/>
                </g>
              </g>
            </g>
            <g id="Grupo_1084317" data-name="Grupo 1084317" transform="translate(201.594 70.78)" opacity="0.3">
              <g id="Grupo_1084316" data-name="Grupo 1084316">
                <g id="Grupo_1084315" data-name="Grupo 1084315" clip-path="url(#clip-path-43)">
                  <path id="Trazado_838573" data-name="Trazado 838573" d="M266.061,107.67h-38.81a3.968,3.968,0,0,1-3.726-3.147l-4.5-24.493a2.554,2.554,0,0,1,2.569-3.148h38.81a3.967,3.967,0,0,1,3.725,3.148l4.5,24.493a2.553,2.553,0,0,1-2.569,3.147" transform="translate(-218.974 -76.882)" fill="#407bff"/>
                </g>
              </g>
            </g>
            <path id="Trazado_838574" data-name="Trazado 838574" d="M288.789,95.774l1.99,2.091c1.864,4.426-4.241,5.838-4.241,5.838l-2.662,1.864a2.424,2.424,0,0,1-3.1-.49l-2.221-2.3a2.527,2.527,0,0,1-.2-3.517l2.025-1.985a5,5,0,0,1,2.1-1.23l3.523-1.024a2.77,2.77,0,0,1,2.779.75" transform="translate(-22.044 -7.533)" fill="#ce7a63"/>
            <path id="Trazado_838575" data-name="Trazado 838575" d="M278.389,45.191a6.373,6.373,0,0,1,2.42-3.42,5.9,5.9,0,0,0-.676-3.91l10.976-9.185c.684,4.575,2.293,10.68,4.551,12.662-2.515,2.32-7.138,6.507-12.9,7.486s-4.906-1.426-4.376-3.633" transform="translate(-22.066 -2.276)" fill="#ce7a63"/>
            <g id="Grupo_1084320" data-name="Grupo 1084320" transform="translate(258.274 32.106)" opacity="0.2">
              <g id="Grupo_1084319" data-name="Grupo 1084319">
                <g id="Grupo_1084318" data-name="Grupo 1084318" clip-path="url(#clip-path-44)">
                  <path id="Trazado_838576" data-name="Trazado 838576" d="M280.541,38.779l9.371-3.905c-1.18,4.764-6.486,8.7-8.823,6.813a5.92,5.92,0,0,0-.548-2.907" transform="translate(-280.541 -34.874)"/>
                </g>
              </g>
            </g>
            <path id="Trazado_838577" data-name="Trazado 838577" d="M278.893,22.591a6.105,6.105,0,1,1-6.1-6.1,6.1,6.1,0,0,1,6.1,6.1" transform="translate(-21.167 -1.308)" fill="#263238"/>
            <path id="Trazado_838578" data-name="Trazado 838578" d="M289.679,18.7c1.438,6.978,2.264,11.748-.933,15.727-6.352,7.906-12.119,5.452-15.621-.974-3.153-5.783-4.975-16.224,1.032-20.722A9.819,9.819,0,0,1,289.679,18.7" transform="translate(-21.446 -0.853)" fill="#ce7a63"/>
            <path id="Trazado_838579" data-name="Trazado 838579" d="M275.278,16c-1.413,1.611-5.14,4.987-10.561,1.943S261.5,7.619,264.767,5.29a10.034,10.034,0,0,1,9.462-1.258s-.447-3.874,5-4.028,5.179,3.721,5.179,3.721,7.058-2.937,10.433,2.493c3.14,5.052-1.541,8.976-1.541,8.976s4.889,2.1,3.28,7.177a5.845,5.845,0,0,1-5.345,4.333s-5.216.365-6.1-3.438a9.667,9.667,0,0,1,.768-6.616s-8.363,3.261-10.626-.652" transform="translate(-20.75 0)" fill="#263238"/>
            <path id="Trazado_838580" data-name="Trazado 838580" d="M285.049,26.145h-.023l-1.285-.132a.23.23,0,0,1,.047-.458l1.245.128,6.5-1.583a.23.23,0,0,1,.11.447L285.1,26.139a.214.214,0,0,1-.054.006" transform="translate(-22.504 -1.912)" fill="#263238"/>
            <path id="Trazado_838581" data-name="Trazado 838581" d="M295.276,16.838a6.309,6.309,0,0,1-.639-.033.46.46,0,0,1,.093-.916,3.33,3.33,0,0,0,3.233-1.183,2.254,2.254,0,0,0,.147-2.33.46.46,0,1,1,.818-.42,3.2,3.2,0,0,1-.205,3.269,4.01,4.01,0,0,1-3.448,1.613" transform="translate(-23.353 -0.929)" fill="#263238"/>
            <path id="Trazado_838582" data-name="Trazado 838582" d="M267.254,21.112a10.454,10.454,0,0,1-2.785-.4,5.9,5.9,0,0,1-4.559-5.2c-.3-2.7,1.035-5.565,3.1-6.66a.461.461,0,1,1,.432.814,5.937,5.937,0,0,0-2.614,5.745,4.956,4.956,0,0,0,3.887,4.41c5.4,1.486,8.113-1.989,9.254-4.193a.46.46,0,1,1,.818.423c-1.055,2.04-3.328,5.059-7.531,5.059" transform="translate(-20.626 -0.699)" fill="#263238"/>
            <path id="Trazado_838583" data-name="Trazado 838583" d="M278.881,33.375a6.018,6.018,0,0,1-1.031.331.175.175,0,0,1-.213-.149.206.206,0,0,1,.154-.233A5.456,5.456,0,0,0,281.5,30.4a.184.184,0,1,1,.34.138,5.747,5.747,0,0,1-2.964,2.84" transform="translate(-22.036 -2.403)" fill="#263238"/>
            <g id="Grupo_1084323" data-name="Grupo 1084323" transform="translate(259.58 20.817)" opacity="0.2">
              <g id="Grupo_1084322" data-name="Grupo 1084322">
                <g id="Grupo_1084321" data-name="Grupo 1084321" clip-path="url(#clip-path-45)">
                  <path id="Trazado_838584" data-name="Trazado 838584" d="M281.959,23.416a3.283,3.283,0,0,1,2.384-.771,6.487,6.487,0,0,1-2.384.771" transform="translate(-281.959 -22.612)"/>
                </g>
              </g>
            </g>
            <g id="Grupo_1084326" data-name="Grupo 1084326" transform="translate(259.802 21.834)" opacity="0.2">
              <g id="Grupo_1084325" data-name="Grupo 1084325">
                <g id="Grupo_1084324" data-name="Grupo 1084324" clip-path="url(#clip-path-46)">
                  <path id="Trazado_838585" data-name="Trazado 838585" d="M282.2,24.058a2.7,2.7,0,0,1,2.268-.137,5.347,5.347,0,0,1-2.268.137" transform="translate(-282.2 -23.716)"/>
                </g>
              </g>
            </g>
            <g id="Grupo_1084329" data-name="Grupo 1084329" transform="translate(249.092 24.101)" opacity="0.2">
              <g id="Grupo_1084328" data-name="Grupo 1084328">
                <g id="Grupo_1084327" data-name="Grupo 1084327" clip-path="url(#clip-path-47)">
                  <path id="Trazado_838586" data-name="Trazado 838586" d="M271.627,26.356s-.787-.438-1.06.064a1.387,1.387,0,0,0,1.06-.064" transform="translate(-270.567 -26.179)"/>
                </g>
              </g>
            </g>
            <g id="Grupo_1084332" data-name="Grupo 1084332" transform="translate(249.507 24.707)" opacity="0.2">
              <g id="Grupo_1084331" data-name="Grupo 1084331">
                <g id="Grupo_1084330" data-name="Grupo 1084330" clip-path="url(#clip-path-48)">
                  <path id="Trazado_838587" data-name="Trazado 838587" d="M271.756,26.966s-.661-.416-.738.245a.663.663,0,0,0,.738-.245" transform="translate(-271.018 -26.837)"/>
                </g>
              </g>
            </g>
            <path id="Trazado_838588" data-name="Trazado 838588" d="M295.46,27.267a6.706,6.706,0,0,1-3.325,3.943c-2.119,1.072-3.659-.71-3.472-2.947.168-2.014,1.475-5,3.795-5.14a3.062,3.062,0,0,1,3,4.144" transform="translate(-22.91 -1.835)" fill="#ce7a63"/>
            <path id="Trazado_838589" data-name="Trazado 838589" d="M279.971,24.342c.152.559-.023,1.09-.389,1.186s-.788-.279-.939-.839.023-1.09.389-1.186.787.28.939.839" transform="translate(-22.112 -1.864)" fill="#263238"/>
            <path id="Trazado_838590" data-name="Trazado 838590" d="M273.556,26.17c.152.559-.023,1.09-.389,1.186s-.788-.279-.939-.839.023-1.09.389-1.186.787.28.939.839" transform="translate(-21.602 -2.009)" fill="#263238"/>
            <path id="Trazado_838591" data-name="Trazado 838591" d="M269.807,30.417a1.087,1.087,0,0,1-.919-.532l-.938-1.677a.694.694,0,0,1-.047-.623.654.654,0,0,1,.467-.363l4.788-1.063a1.07,1.07,0,0,1,1.106.512l.938,1.677a.694.694,0,0,1,.047.623.655.655,0,0,1-.467.364L269.994,30.4a.842.842,0,0,1-.187.02m3.539-3.819a.4.4,0,0,0-.088.009l-4.788,1.063a.2.2,0,0,0-.146.1.241.241,0,0,0,.029.211l.938,1.677a.61.61,0,0,0,.6.287l4.788-1.063a.2.2,0,0,0,.145-.1.238.238,0,0,0-.029-.21l-.938-1.678a.629.629,0,0,0-.516-.3" transform="translate(-21.259 -2.075)" fill="#263238"/>
            <path id="Trazado_838592" data-name="Trazado 838592" d="M275.727,26.306l2.026,4.429a4.151,4.151,0,0,1-2.857.852,10.112,10.112,0,0,1,.83-5.281" transform="translate(-21.811 -2.088)" fill="#ba4d3c"/>
            <path id="Trazado_838593" data-name="Trazado 838593" d="M278.43,28.5a1.086,1.086,0,0,1-.918-.533l-.938-1.677a.691.691,0,0,1-.047-.623.654.654,0,0,1,.466-.363l4.788-1.063a1.069,1.069,0,0,1,1.106.513l.939,1.677a.694.694,0,0,1,.047.623.656.656,0,0,1-.467.363l-4.788,1.063a.85.85,0,0,1-.188.02m3.54-3.82a.394.394,0,0,0-.088.01l-4.788,1.063a.2.2,0,0,0-.146.1.241.241,0,0,0,.029.21l.939,1.678a.61.61,0,0,0,.6.287l4.788-1.063a.2.2,0,0,0,.146-.1.24.24,0,0,0-.029-.211l-.938-1.677a.631.631,0,0,0-.516-.3m1.386,2.511h0Z" transform="translate(-21.944 -1.923)" fill="#263238"/>
            <path id="Trazado_838594" data-name="Trazado 838594" d="M275,27.744a.233.233,0,0,1-.074-.012.228.228,0,0,1-.145-.283c.013-.041.33-1,2.292-.608a.23.23,0,1,1-.09.451c-1.514-.3-1.762.294-1.765.3a.235.235,0,0,1-.218.151" transform="translate(-21.808 -2.123)" fill="#263238"/>
            <path id="Trazado_838595" data-name="Trazado 838595" d="M281.282,22.1a.327.327,0,0,0,.137-.1.339.339,0,0,0-.061-.477,3.413,3.413,0,0,0-3.051-.654.336.336,0,0,0-.211.43.345.345,0,0,0,.434.214,2.727,2.727,0,0,1,2.41.544.344.344,0,0,0,.342.047" transform="translate(-22.071 -1.646)" fill="#263238"/>
            <path id="Trazado_838596" data-name="Trazado 838596" d="M269.642,25.118a.338.338,0,0,0,.23-.224,2.673,2.673,0,0,1,1.674-1.792.337.337,0,0,0,.232-.418.342.342,0,0,0-.42-.236,3.35,3.35,0,0,0-2.138,2.24.344.344,0,0,0,.422.43" transform="translate(-21.367 -1.781)" fill="#263238"/>
          </g>
        </g>
        <g id="Grupo_1084342" data-name="Grupo 1084342">
          <g id="Grupo_1084341" data-name="Grupo 1084341" clip-path="url(#clip-path-2)">
            <g id="Grupo_1084337" data-name="Grupo 1084337" transform="translate(181.058 267.976)" opacity="0.2">
              <g id="Grupo_1084336" data-name="Grupo 1084336">
                <g id="Grupo_1084335" data-name="Grupo 1084335" clip-path="url(#clip-path-50)">
                  <path id="Trazado_838597" data-name="Trazado 838597" d="M196.667,291.079v60.534a12.041,12.041,0,0,0,12.006,12.006h14.743l-5.268-66.812Z" transform="translate(-196.667 -291.079)"/>
                </g>
              </g>
            </g>
            <path id="Trazado_838598" data-name="Trazado 838598" d="M166.485,291.456,160.6,298.8a5.6,5.6,0,0,1-4.322,2.126h-53.13a5.652,5.652,0,0,0-5.53,5.106l-4.68,56.556a4.631,4.631,0,0,0,4.683,5.107H201.65a5.651,5.651,0,0,0,5.528-5.107l5.64-68.146a4.63,4.63,0,0,0-4.684-5.106H170.806a5.6,5.6,0,0,0-4.321,2.125" transform="translate(-7.375 -22.964)" fill="#407bff"/>
            <g id="Grupo_1084340" data-name="Grupo 1084340" transform="translate(85.546 266.367)" opacity="0.3">
              <g id="Grupo_1084339" data-name="Grupo 1084339">
                <g id="Grupo_1084338" data-name="Grupo 1084338" clip-path="url(#clip-path-51)">
                  <path id="Trazado_838599" data-name="Trazado 838599" d="M166.485,291.456,160.6,298.8a5.6,5.6,0,0,1-4.322,2.126h-53.13a5.652,5.652,0,0,0-5.53,5.106l-4.68,56.556a4.631,4.631,0,0,0,4.683,5.107H201.65a5.651,5.651,0,0,0,5.528-5.107l5.64-68.146a4.63,4.63,0,0,0-4.684-5.106H170.806a5.6,5.6,0,0,0-4.321,2.125" transform="translate(-92.921 -289.331)"/>
                </g>
              </g>
            </g>
            <path id="Trazado_838600" data-name="Trazado 838600" d="M145.075,295.836l-4.77,6.952a4.8,4.8,0,0,1-4,2.013h-43.7a4.563,4.563,0,0,0-4.753,4.837L91.76,363.21a5.442,5.442,0,0,0,5.459,4.837H201.248A4.564,4.564,0,0,0,206,363.21l-4.707-64.55a5.441,5.441,0,0,0-5.459-4.837H149.074a4.8,4.8,0,0,0-4,2.013" transform="translate(-6.972 -23.321)" fill="#407bff"/>
          </g>
        </g>
      </g>
    </g>
  </g>
</svg>
