<svg xmlns="http://www.w3.org/2000/svg" xmlns:xlink="http://www.w3.org/1999/xlink" width="400" height="160" viewBox="0 0 400 160">
  <defs>
    <clipPath id="clip-path">
      <rect id="Rectángulo_385330" data-name="Rectángulo 385330" width="400" height="160" transform="translate(915 12059)" fill="#fff" stroke="#707070" stroke-width="1"/>
    </clipPath>
    <clipPath id="clip-path-2">
      <rect id="Rectángulo_385329" data-name="Rectángulo 385329" width="265.213" height="159.799" fill="none"/>
    </clipPath>
    <clipPath id="clip-path-3">
      <rect id="Rectángulo_385328" data-name="Rectángulo 385328" width="265.213" height="159.8" fill="none"/>
    </clipPath>
    <clipPath id="clip-path-4">
      <rect id="Rectángulo_385317" data-name="Rectángulo 385317" width="22.929" height="7.522" fill="none"/>
    </clipPath>
    <clipPath id="clip-path-5">
      <rect id="Rectángulo_385318" data-name="Rectángulo 385318" width="8.119" height="30.693" fill="none"/>
    </clipPath>
    <clipPath id="clip-path-6">
      <rect id="Rectángulo_385319" data-name="Rectángulo 385319" width="8.062" height="26.35" fill="none"/>
    </clipPath>
    <clipPath id="clip-path-7">
      <rect id="Rectángulo_385320" data-name="Rectángulo 385320" width="5.748" height="5.984" fill="none"/>
    </clipPath>
    <clipPath id="clip-path-8">
      <rect id="Rectángulo_385323" data-name="Rectángulo 385323" width="13.355" height="86.99" fill="none"/>
    </clipPath>
    <clipPath id="clip-path-9">
      <rect id="Rectángulo_385325" data-name="Rectángulo 385325" width="1.061" height="2.674" fill="none"/>
    </clipPath>
    <clipPath id="clip-path-10">
      <rect id="Rectángulo_385326" data-name="Rectángulo 385326" width="2.646" height="2.646" fill="none"/>
    </clipPath>
    <clipPath id="clip-path-11">
      <rect id="Rectángulo_385327" data-name="Rectángulo 385327" width="2.297" height="5.786" fill="none"/>
    </clipPath>
  </defs>
  <g id="Enmascarar_grupo_1083113" data-name="Enmascarar grupo 1083113" transform="translate(-915 -12059)" clip-path="url(#clip-path)">
    <g id="Grupo_1084409" data-name="Grupo 1084409" transform="translate(982.394 12059.201)">
      <g id="Grupo_1084408" data-name="Grupo 1084408" clip-path="url(#clip-path-2)">
        <g id="Grupo_1084407" data-name="Grupo 1084407" transform="translate(0 0)">
          <g id="Grupo_1084406" data-name="Grupo 1084406" clip-path="url(#clip-path-3)">
            <path id="Trazado_838896" data-name="Trazado 838896" d="M377.552,524.243c12.848,22.992-5.743,68.1-123.653,36.751-59.118-15.719-103.277,19.691-112.377-5.025-21.2-57.572,65.366-124.169,113.5-77.674C299.023,520.793,354.168,482.4,377.552,524.243Z" transform="translate(-124.062 -415.215)" fill="none" stroke="#e4e4e4" stroke-miterlimit="10" stroke-width="4" stroke-dasharray="32.088 32.088"/>
            <path id="Trazado_838897" data-name="Trazado 838897" d="M361.309,693.827H120.895c7.524-55.589,58.469-98.587,120.207-98.587s112.683,43,120.207,98.587" transform="translate(-108.496 -534.19)" fill="#f6f5f5"/>
            <path id="Trazado_838898" data-name="Trazado 838898" d="M1301.465,283.314h-90.427a7.623,7.623,0,0,1-7.623-7.623V145.98a7.623,7.623,0,0,1,7.623-7.623h90.427a7.623,7.623,0,0,1,7.623,7.623V275.691a7.623,7.623,0,0,1-7.623,7.623" transform="translate(-1079.99 -124.166)" fill="#a9bae6"/>
            <rect id="Rectángulo_385296" data-name="Rectángulo 385296" width="86.977" height="126.344" transform="translate(132.976 20.032)" fill="#f6f5f5"/>
            <path id="Trazado_838899" data-name="Trazado 838899" d="M1383.5,195.323c.027,49.267,1.618,108.687-3.916,121.842-24.376,2.375-52.917,3.137-83.062,3.279L1307.982,195.7Z" transform="translate(-1163.55 -175.29)" fill="#e4e4e4"/>
            <path id="Trazado_838900" data-name="Trazado 838900" d="M1333.559,313.234c-37.993,6.081-63.386,6.4-83.981,4.872,2.669-28.41,3.739-75.607,4.815-122.727l45.782.1,41.435,2.735c.6,48.907.67,94.082-8.052,115.019" transform="translate(-1121.418 -175.34)" fill="#fff"/>
            <rect id="Rectángulo_385297" data-name="Rectángulo 385297" width="6.971" height="45.768" transform="translate(152.797 38.654) rotate(-88.652)" fill="#708cd5"/>
            <rect id="Rectángulo_385298" data-name="Rectángulo 385298" width="3.191" height="41.282" transform="translate(166.191 52.035) rotate(-88.652)" fill="#708cd5"/>
            <rect id="Rectángulo_385299" data-name="Rectángulo 385299" width="3.191" height="28.06" transform="translate(166.027 58.99) rotate(-88.652)" fill="#d3dfff"/>
            <rect id="Rectángulo_385300" data-name="Rectángulo 385300" width="9.773" height="9.773" transform="translate(143.261 58.267) rotate(-88.652)" fill="#fff"/>
            <rect id="Rectángulo_385301" data-name="Rectángulo 385301" width="9.773" height="9.773" transform="translate(143.261 58.267) rotate(-88.652)" fill="none" stroke="#708cd5" stroke-miterlimit="10" stroke-width="6"/>
            <path id="Trazado_838901" data-name="Trazado 838901" d="M1414.417,447.312c.3,1.155.859,5.992,3.281,4.639a7.375,7.375,0,0,0,1.45-1.611l2.254-2.559,4.507-5.117c.385-.437-1.315-1.534-1.8-.985l-4.006,4.549-2,2.274c-.463.526-1.535,2.223-2.222,2.373l1.122.362c.264.217-.227-1.32-.237-1.362l-.559-2.141c-.154-.589-2.014-1.3-1.786-.425" transform="translate(-1269.333 -396.245)" fill="#ee6f57"/>
            <rect id="Rectángulo_385302" data-name="Rectángulo 385302" width="3.191" height="33.995" transform="translate(165.773 69.798) rotate(-88.652)" fill="#708cd5"/>
            <rect id="Rectángulo_385303" data-name="Rectángulo 385303" width="3.191" height="41.282" transform="translate(165.609 76.753) rotate(-88.652)" fill="#d3dfff"/>
            <rect id="Rectángulo_385304" data-name="Rectángulo 385304" width="9.773" height="9.773" transform="translate(142.843 76.03) rotate(-88.652)" fill="#fff"/>
            <rect id="Rectángulo_385305" data-name="Rectángulo 385305" width="9.773" height="9.773" transform="translate(142.843 76.03) rotate(-88.652)" fill="none" stroke="#708cd5" stroke-miterlimit="10" stroke-width="6"/>
            <path id="Trazado_838902" data-name="Trazado 838902" d="M1410.278,623.19c.3,1.155.859,5.992,3.281,4.64a7.375,7.375,0,0,0,1.449-1.611l2.254-2.559,4.507-5.117c.385-.437-1.315-1.534-1.8-.985l-4.006,4.549-2,2.274c-.463.526-1.535,2.223-2.222,2.373l1.122.362c.264.217-.227-1.32-.238-1.362l-.559-2.141c-.154-.589-2.014-1.3-1.786-.425" transform="translate(-1265.619 -554.085)" fill="#ee6f57"/>
            <rect id="Rectángulo_385306" data-name="Rectángulo 385306" width="3.191" height="41.282" transform="translate(165.355 87.56) rotate(-88.652)" fill="#708cd5"/>
            <rect id="Rectángulo_385307" data-name="Rectángulo 385307" width="3.191" height="18.462" transform="translate(165.191 94.516) rotate(-88.652)" fill="#d3dfff"/>
            <rect id="Rectángulo_385308" data-name="Rectángulo 385308" width="9.773" height="9.773" transform="translate(142.425 93.792) rotate(-88.652)" fill="#fff"/>
            <rect id="Rectángulo_385309" data-name="Rectángulo 385309" width="9.773" height="9.773" transform="translate(142.425 93.792) rotate(-88.652)" fill="none" stroke="#708cd5" stroke-miterlimit="10" stroke-width="6"/>
            <path id="Trazado_838903" data-name="Trazado 838903" d="M1407.494,797.612c.3,1.155.859,5.992,3.281,4.639a7.377,7.377,0,0,0,1.45-1.611l2.254-2.559,4.507-5.117c.385-.437-1.315-1.534-1.8-.985l-4.006,4.549-2,2.274c-.463.526-1.535,2.223-2.223,2.373l1.122.362c.264.217-.227-1.32-.238-1.362l-.559-2.14c-.154-.589-2.014-1.3-1.786-.425" transform="translate(-1263.12 -710.618)" fill="#ee6f57"/>
            <rect id="Rectángulo_385310" data-name="Rectángulo 385310" width="3.191" height="41.282" transform="translate(164.936 105.323) rotate(-88.652)" fill="#708cd5"/>
            <rect id="Rectángulo_385311" data-name="Rectángulo 385311" width="3.191" height="32.612" transform="translate(164.773 112.279) rotate(-88.652)" fill="#d3dfff"/>
            <rect id="Rectángulo_385312" data-name="Rectángulo 385312" width="9.773" height="9.773" transform="translate(142.007 111.555) rotate(-88.652)" fill="#fff"/>
            <rect id="Rectángulo_385313" data-name="Rectángulo 385313" width="9.773" height="9.773" transform="translate(142.007 111.555) rotate(-88.652)" fill="none" stroke="#708cd5" stroke-miterlimit="10" stroke-width="6"/>
            <path id="Trazado_838904" data-name="Trazado 838904" d="M1403.444,969.667c.3,1.155.859,5.992,3.281,4.639a7.374,7.374,0,0,0,1.449-1.611l2.254-2.559,4.507-5.117c.385-.437-1.315-1.534-1.8-.985l-4.006,4.549-2,2.274c-.464.526-1.535,2.223-2.223,2.373l1.121.362c.264.217-.227-1.32-.238-1.362l-.559-2.141c-.154-.589-2.014-1.3-1.786-.425" transform="translate(-1259.487 -865.026)" fill="#ee6f57"/>
            <rect id="Rectángulo_385314" data-name="Rectángulo 385314" width="3.191" height="16.364" transform="matrix(0.024, -1, 1, 0.024, 164.522, 122.952)" fill="#708cd5"/>
            <path id="Trazado_838905" data-name="Trazado 838905" d="M1643.863,1236.483l-41.271-.971-.075,3.19c15.967.375,36.3,1.123,40.446.486a3.581,3.581,0,0,0,.9-2.7" transform="translate(-1438.159 -1108.795)" fill="#d3dfff"/>
            <rect id="Rectángulo_385315" data-name="Rectángulo 385315" width="9.773" height="9.773" transform="translate(141.729 129.187) rotate(-88.652)" fill="#fff"/>
            <rect id="Rectángulo_385316" data-name="Rectángulo 385316" width="9.773" height="9.773" transform="translate(141.729 129.187) rotate(-88.652)" fill="none" stroke="#708cd5" stroke-miterlimit="10" stroke-width="6"/>
            <path id="Trazado_838906" data-name="Trazado 838906" d="M1399.431,1140.215c.3,1.155.859,5.992,3.281,4.64a7.374,7.374,0,0,0,1.45-1.611l2.253-2.559,4.507-5.117c.385-.437-1.315-1.534-1.8-.985l-4.006,4.549-2,2.274c-.463.526-1.535,2.223-2.223,2.374l1.122.362c.264.217-.227-1.32-.237-1.362l-.559-2.141c-.154-.589-2.014-1.3-1.786-.424" transform="translate(-1255.884 -1018.082)" fill="#ee6f57"/>
            <path id="Trazado_838907" data-name="Trazado 838907" d="M1566.754,15.064v9.752h-39.179V15.064a5.628,5.628,0,0,1,1.649-3.984,4.625,4.625,0,0,1,.4-.357,5.591,5.591,0,0,1,3.586-1.292,6.634,6.634,0,0,0,2.88-.656,6.906,6.906,0,0,0,1.083-.652,6.631,6.631,0,0,0,2.4-3.409A6.658,6.658,0,0,1,1545.942,0h2.445a6.658,6.658,0,0,1,6.367,4.718,6.629,6.629,0,0,0,2.4,3.409,6.9,6.9,0,0,0,1.083.652,6.635,6.635,0,0,0,2.88.656,5.64,5.64,0,0,1,5.633,5.633" transform="translate(-1370.903 0.004)" fill="#ee6f57"/>
            <path id="Trazado_838908" data-name="Trazado 838908" d="M1542.113,195.316v7.249h-45.538v-7.249h3.179V200.1h39.179v-4.788Z" transform="translate(-1343.083 -175.283)" fill="#e4e4e4"/>
            <path id="Trazado_838909" data-name="Trazado 838909" d="M1691.648,28.089a3.48,3.48,0,1,1-3.475-3.3,3.392,3.392,0,0,1,3.475,3.3" transform="translate(-1511.911 -22.243)" fill="#fff"/>
            <path id="Trazado_838910" data-name="Trazado 838910" d="M957.979,394.918c-1.39-.263-2.688-2.585-3.14-3.475a1.105,1.105,0,0,1-.1-.707l.553-2.931s1.276.217,1.177,1.916a1.252,1.252,0,0,0,.089.517l.489,1.278,1.444-1.118-.792-2.236a3.843,3.843,0,0,1-1.607.116c-1.124-.359.349-1.235.815-1.328s1.491-.466,1.957.326.745,1.258.745,1.258a17.535,17.535,0,0,0,.163-5.731c-.016-.178.431-.174.556-.047.375.382.973,1.544,1,5.078,0,0,.063-4.119.769-4.543.582-.349.877,1.666.466,5.085,0,0,.76-2.96,1.3-2.965.918-.009.012,7.905-2.3,10.264Z" transform="translate(-856.801 -343.418)" fill="#f9b384"/>
            <path id="Trazado_838911" data-name="Trazado 838911" d="M970.609,490.316q-.062.591-.135,1.145v0a33.27,33.27,0,0,1-.607,3.491c-.012.049-.021.094-.033.139-.7,2.876-.829,4.283-3.225,3.906l-2.466-2.806-.025-.029-.181-.205.5-1.477.066-.193.369-1.075.045-.139.632-1.85.254-.751Z" transform="translate(-865.074 -440.028)" fill="#f9b384"/>
            <path id="Trazado_838912" data-name="Trazado 838912" d="M515.846,1486.578l-.628,1.961c-4.3,1.414-6.813,3.033-6.974,4.923h12.444l1-6.568a9.652,9.652,0,0,1-5.84-.317" transform="translate(-456.117 -1334.111)" fill="#1f3c88"/>
            <path id="Trazado_838913" data-name="Trazado 838913" d="M583.925,1439.036l-1.56,4.876a9.654,9.654,0,0,0,5.84.317l.643-4.236Z" transform="translate(-522.636 -1291.445)" fill="#f9b384"/>
            <path id="Trazado_838914" data-name="Trazado 838914" d="M754.263,1441l.365-4.966-5.846.308-.319,4.578a9.564,9.564,0,0,0,5.8.08" transform="translate(-671.699 -1288.752)" fill="#f9b384"/>
            <path id="Trazado_838915" data-name="Trazado 838915" d="M756.911,1490.856c-.161-1.89-2.359-4.478-7.179-5.094l.148-2.008a9.565,9.565,0,0,1-5.8-.08l-.5,7.182Z" transform="translate(-667.315 -1331.504)" fill="#1f3c88"/>
            <path id="Trazado_838916" data-name="Trazado 838916" d="M697.11,421.653l-7.052.049V411.036H696.9l0,.652.033,3.38.049,5.428Z" transform="translate(-619.284 -368.879)" fill="#f9b384"/>
            <path id="Trazado_838917" data-name="Trazado 838917" d="M704.867,425.776c-1.268,1.333-4.574-.172-5.969-1.641l5.936-1.739Z" transform="translate(-627.217 -379.074)" fill="#e28b6d"/>
            <path id="Trazado_838918" data-name="Trazado 838918" d="M675.408,324.862a15.252,15.252,0,0,1-.185,2.4c-.345,2.15-1.255,4.008-3.356,4.066-4.964.144-6.379-2.7-7.315-5.017s.583-7.918.583-7.918l6.424-.636,3.528,2.892a26.318,26.318,0,0,1,.32,4.213" transform="translate(-596.122 -285.166)" fill="#f9b384"/>
            <path id="Trazado_838919" data-name="Trazado 838919" d="M637.448,287.958s1.416-.065,1.658-3.721a5,5,0,0,0,5.849-1.612,3.386,3.386,0,0,0,5.936-1.213c.855-2.444-1.5-6.085-4.94-3.88-3.367-1.7-8.475-1.585-9.944,2.588,0,0-5.109,2.356.3,7.542a6.25,6.25,0,0,0,1.14.295" transform="translate(-568.816 -248.144)" fill="#102048"/>
            <path id="Trazado_838920" data-name="Trazado 838920" d="M745.305,888.336l-3.9,58.943h-9.162l2.291-57.2,1.4-.65Z" transform="translate(-657.144 -797.226)" fill="#102048"/>
            <path id="Trazado_838921" data-name="Trazado 838921" d="M570.671,771.411l-6.427,67.007h9.983l9.5-55.657,10.8-3.282.479-11.9-24.068-.547Z" transform="translate(-506.374 -688.366)" fill="#1f3c88"/>
            <g id="Grupo_1084384" data-name="Grupo 1084384" transform="translate(63.703 76.411)" opacity="0.6">
              <g id="Grupo_1084383" data-name="Grupo 1084383">
                <g id="Grupo_1084382" data-name="Grupo 1084382" clip-path="url(#clip-path-4)">
                  <path id="Trazado_838922" data-name="Trazado 838922" d="M623.145,751.795c5.453,1.957,18.245-.28,20.9-3.006l-1.887-3.775-21.042,2.8Z" transform="translate(-621.118 -745.014)" fill="#102048"/>
                </g>
              </g>
            </g>
            <path id="Trazado_838923" data-name="Trazado 838923" d="M672.292,508.284c-.176.074-.357.152-.542.221a37.026,37.026,0,0,1-6.835,2.035,31.352,31.352,0,0,1-4.582.562,26.476,26.476,0,0,1-7.2-.583l3.056-28.5.373-3.475s4,4.923,8.41-.513Z" transform="translate(-586.151 -429.007)" fill="#fff"/>
            <g id="Grupo_1084387" data-name="Grupo 1084387" transform="translate(66.987 51.44)" opacity="0.3">
              <g id="Grupo_1084386" data-name="Grupo 1084386">
                <g id="Grupo_1084385" data-name="Grupo 1084385" clip-path="url(#clip-path-5)">
                  <path id="Trazado_838924" data-name="Trazado 838924" d="M660.334,532.192a26.471,26.471,0,0,1-7.2-.583l3.056-28.5,1.091-1.577c2.7,6.556,5.456,21.073,3.048,30.656" transform="translate(-653.138 -501.536)" fill="#1f3c88"/>
                </g>
              </g>
            </g>
            <path id="Trazado_838925" data-name="Trazado 838925" d="M393.176,472.036c3.039,12.9,4.289,26.179-.188,40.922a16.764,16.764,0,0,1-10.8.137l.957-26.8-22.53,15.487-1.367-8.444c8.661-8.281,23.634-20.791,33.931-21.3" transform="translate(-322.4 -423.622)" fill="#708cd5"/>
            <g id="Grupo_1084390" data-name="Grupo 1084390" transform="translate(77.538 55.183)" opacity="0.3">
              <g id="Grupo_1084389" data-name="Grupo 1084389">
                <g id="Grupo_1084388" data-name="Grupo 1084388" clip-path="url(#clip-path-6)">
                  <path id="Trazado_838926" data-name="Trazado 838926" d="M764.072,562.352a37.04,37.04,0,0,1-6.835,2.035c-1.358-7.787-1.657-20.578-.554-26.35Z" transform="translate(-756.01 -538.036)" fill="#1f3c88"/>
                </g>
              </g>
            </g>
            <g id="Grupo_1084393" data-name="Grupo 1084393" transform="translate(99.044 53.05)" opacity="0.6">
              <g id="Grupo_1084392" data-name="Grupo 1084392">
                <g id="Grupo_1084391" data-name="Grupo 1084391" clip-path="url(#clip-path-7)">
                  <path id="Trazado_838927" data-name="Trazado 838927" d="M971.446,519.115c-.012.049-.02.094-.033.139-.7,2.876-.829,4.283-3.225,3.906l-2.466-2.806-.025-.029.32-1.682.066-.193.369-1.075.045-.139Z" transform="translate(-965.698 -517.236)" fill="#e28b6d"/>
                </g>
              </g>
            </g>
            <path id="Trazado_838928" data-name="Trazado 838928" d="M783.571,479.818s-6.051,12.82-9.641,13.128c-3.48.3-5.128-3.077-5.128-3.077l2.461,18.736a15.709,15.709,0,0,1-9.711,1.366c-3.253-10.564-4.483-24.223-4.725-39.435,2.634.164,7.85.389,9.718,1.59,3.35,2.154,7.487,9.846,7.487,9.846l4.82-6.564Z" transform="translate(-679.206 -422.276)" fill="#708cd5"/>
            <path id="Trazado_838929" data-name="Trazado 838929" d="M298.319,333.691s.366-6.133.99-5.844,1.876,5.622,1.876,5.622l-1.339,2.16Z" transform="translate(-267.723 -294.213)" fill="#6f3428"/>
            <path id="Trazado_838930" data-name="Trazado 838930" d="M360.425,1464.7l.181,2.019a6.479,6.479,0,0,1-5.872,7.032l-.519.046a6.478,6.478,0,0,1-7.032-5.872l-.181-2.019Z" transform="translate(-311.413 -1314.479)" fill="#ee6f57"/>
            <rect id="Rectángulo_385321" data-name="Rectángulo 385321" width="13.477" height="98.132" transform="translate(26.808 53.692) rotate(-5.134)" fill="#fbc343"/>
            <g id="Grupo_1084396" data-name="Grupo 1084396" transform="translate(30.513 50.469)" opacity="0.3">
              <g id="Grupo_1084395" data-name="Grupo 1084395">
                <g id="Grupo_1084394" data-name="Grupo 1084394" clip-path="url(#clip-path-8)">
                  <rect id="Rectángulo_385322" data-name="Rectángulo 385322" width="4.786" height="86.016" transform="matrix(0.996, -0.089, 0.089, 0.996, 0.445, 0.874)" fill="none" stroke="#6f3428" stroke-miterlimit="10" stroke-width="8"/>
                </g>
              </g>
            </g>
            <path id="Trazado_838931" data-name="Trazado 838931" d="M348.555,1332.72l-13.419,1.206-.353-3.938-.246-2.736-.759-8.41,13.423-1.206.755,8.41.246,2.736Z" transform="translate(-299.545 -1182.496)" fill="#102048"/>
            <rect id="Rectángulo_385324" data-name="Rectángulo 385324" width="13.473" height="2.747" transform="matrix(0.996, -0.09, 0.09, 0.996, 34.992, 144.756)" fill="#fbc343"/>
            <path id="Trazado_838932" data-name="Trazado 838932" d="M261.368,389.313,265.1,374.37a3.2,3.2,0,0,0,2.848-.393l6.847,14.13Z" transform="translate(-234.561 -335.621)" fill="#ee6f57"/>
            <path id="Trazado_838933" data-name="Trazado 838933" d="M648.123,376.282c-.06-.22-1.062-.523-1.283-.584a1.538,1.538,0,0,0-1.046.01c-1.211.547-1.05,2.282-.422,3.194a2.732,2.732,0,0,0,1.481,1.087c.22.063,2.3.088,2.213-.247l-.943-3.459" transform="translate(-578.749 -337.086)" fill="#f9b384"/>
            <path id="Trazado_838934" data-name="Trazado 838934" d="M257.133,710.627a1.824,1.824,0,0,0-2.331-1.2c-1.527.527-2.857,1.422-3.063,2.943-.188,1.386.505,5.812,3.6,6.38l-.253-2.274s1.9-.442,2.274-1.264a9.529,9.529,0,0,0-.229-4.582" transform="translate(-225.895 -636.573)" fill="#f9b384"/>
            <path id="Trazado_838935" data-name="Trazado 838935" d="M862.96,573.612c.163.969.3,1.94.434,2.912s.247,1.946.372,2.92l.318,2.926c.093.977.184,1.954.244,2.935l-.159.019c-.168-.968-.3-1.94-.44-2.912l-.366-2.92c-.1-.976-.222-1.949-.312-2.927s-.185-1.954-.25-2.934Z" transform="translate(-774.31 -514.781)" fill="#1f3c88"/>
            <path id="Trazado_838936" data-name="Trazado 838936" d="M588.571,572.007c0,1.088-.029,2.174-.061,3.261s-.083,2.172-.124,3.258l-.178,3.255c-.073,1.084-.147,2.169-.253,3.252l-.16-.008c0-1.088.025-2.175.055-3.261l.13-3.257c.062-1.085.109-2.171.184-3.255s.146-2.169.247-3.252Z" transform="translate(-527.509 -513.333)" fill="#1f3c88"/>
            <path id="Trazado_838937" data-name="Trazado 838937" d="M715.771,375.958a.645.645,0,0,1-.356.815c-.283.063-.583-.2-.67-.586a.645.645,0,0,1,.356-.815c.283-.063.583.2.67.586" transform="translate(-641.418 -336.864)" fill="#102048"/>
            <path id="Trazado_838938" data-name="Trazado 838938" d="M755.625,370.029c-.017.4-.266.707-.556.7s-.511-.343-.495-.74.266-.707.556-.7.512.343.495.74" transform="translate(-677.183 -331.413)" fill="#102048"/>
            <path id="Trazado_838939" data-name="Trazado 838939" d="M741.221,379.67a9.287,9.287,0,0,1,.209.983.77.77,0,0,0,.2.341,1.3,1.3,0,0,0,.385.189,1.071,1.071,0,0,1,.486.366.636.636,0,0,1,.05.671,1.264,1.264,0,0,1-.4.406c-.141.095-.276.2-.422.285l-.105-.121c.108-.133.226-.253.339-.38a1.2,1.2,0,0,0,.265-.345c.087-.19-.1-.4-.368-.5a1.43,1.43,0,0,1-.5-.284,1,1,0,0,1-.263-.542c-.068-.38.01-.705-.027-1.021Z" transform="translate(-665.059 -340.73)" fill="#e28b6d"/>
            <path id="Trazado_838940" data-name="Trazado 838940" d="M705.87,362.985a1.2,1.2,0,0,1,.419-.64,1.275,1.275,0,0,1,.744-.278,1.376,1.376,0,0,1,1.294.727l-.126.1a1.762,1.762,0,0,0-1.148-.419,1.341,1.341,0,0,0-1.037.578Z" transform="translate(-633.474 -324.93)" fill="#102048"/>
            <path id="Trazado_838941" data-name="Trazado 838941" d="M747.154,358.963a1.234,1.234,0,0,1,.322-.518,1.072,1.072,0,0,1,.582-.288,1.021,1.021,0,0,1,1.088.543l-.128.1a1.3,1.3,0,0,0-.9-.235,1.155,1.155,0,0,0-.429.157,2.839,2.839,0,0,0-.4.327Z" transform="translate(-670.524 -321.41)" fill="#102048"/>
            <path id="Trazado_838942" data-name="Trazado 838942" d="M725.027,418.409c.716,1.121,1.671,1.243,2.408.063Z" transform="translate(-650.667 -375.496)" fill="#fff"/>
            <g id="Grupo_1084399" data-name="Grupo 1084399" transform="translate(78.245 39.422)" opacity="0.4">
              <g id="Grupo_1084398" data-name="Grupo 1084398">
                <g id="Grupo_1084397" data-name="Grupo 1084397" clip-path="url(#clip-path-9)">
                  <path id="Trazado_838943" data-name="Trazado 838943" d="M763.959,384.369a18.909,18.909,0,0,1-.2,2.673,1.236,1.236,0,0,1-.857-1.177,1.579,1.579,0,0,1,1.061-1.5" transform="translate(-762.898 -384.369)" fill="#fc8879"/>
                </g>
              </g>
            </g>
            <g id="Grupo_1084402" data-name="Grupo 1084402" transform="translate(71.289 40.328)" opacity="0.4">
              <g id="Grupo_1084401" data-name="Grupo 1084401">
                <g id="Grupo_1084400" data-name="Grupo 1084400" clip-path="url(#clip-path-10)">
                  <path id="Trazado_838944" data-name="Trazado 838944" d="M697.724,394.526A1.323,1.323,0,1,1,696.4,393.2a1.323,1.323,0,0,1,1.323,1.323" transform="translate(-695.078 -393.203)" fill="#fc8879"/>
                </g>
              </g>
            </g>
            <path id="Trazado_838945" data-name="Trazado 838945" d="M654.463,386.65a6.6,6.6,0,0,0-.74-.487.645.645,0,0,0-.326-.085.731.731,0,0,0-.341.156l-.135-.087a.638.638,0,0,1,.39-.419.761.761,0,0,1,.594.069,1.537,1.537,0,0,1,.686.756Z" transform="translate(-585.956 -346.136)" fill="#e28b6d"/>
            <g id="Grupo_1084405" data-name="Grupo 1084405" transform="translate(29.17 78.636)" opacity="0.6">
              <g id="Grupo_1084404" data-name="Grupo 1084404">
                <g id="Grupo_1084403" data-name="Grupo 1084403" clip-path="url(#clip-path-11)">
                  <path id="Trazado_838946" data-name="Trazado 838946" d="M286.705,766.709l-1.9,5.786-.393-4.521a3.946,3.946,0,0,0,2.3-1.264" transform="translate(-284.408 -766.709)" fill="#6f3428"/>
                </g>
              </g>
            </g>
            <line id="Línea_160" data-name="Línea 160" x2="265.213" transform="translate(0 159.389)" fill="none" stroke="#102048" stroke-miterlimit="10" stroke-width="8"/>
          </g>
        </g>
      </g>
    </g>
  </g>
</svg>
