<svg xmlns="http://www.w3.org/2000/svg" xmlns:xlink="http://www.w3.org/1999/xlink" width="400" height="312" viewBox="0 0 400 312">
  <defs>
    <clipPath id="clip-path">
      <rect id="Rectángulo_385281" data-name="Rectángulo 385281" width="400" height="312" transform="translate(180 9192)" fill="#fff" stroke="#707070" stroke-width="1"/>
    </clipPath>
    <clipPath id="clip-path-2">
      <rect id="Rectángulo_385280" data-name="Rectángulo 385280" width="376" height="311.172" fill="none"/>
    </clipPath>
    <clipPath id="clip-path-4">
      <rect id="Rectángulo_385255" data-name="Rectángulo 385255" width="302.425" height="143.815" fill="none"/>
    </clipPath>
    <clipPath id="clip-path-5">
      <rect id="Rectángulo_385277" data-name="Rectángulo 385277" width="6.268" height="3.454" fill="none"/>
    </clipPath>
    <clipPath id="clip-path-6">
      <rect id="Rectángulo_385278" data-name="Rectángulo 385278" width="1.546" height="2.366" fill="none"/>
    </clipPath>
  </defs>
  <g id="Enmascarar_grupo_1083112" data-name="Enmascarar grupo 1083112" transform="translate(-180 -9192)" clip-path="url(#clip-path)">
    <g id="Grupo_1084357" data-name="Grupo 1084357" transform="translate(204 9192.414)">
      <g id="Grupo_1084356" data-name="Grupo 1084356" clip-path="url(#clip-path-2)">
        <g id="Grupo_1084355" data-name="Grupo 1084355">
          <g id="Grupo_1084354" data-name="Grupo 1084354" clip-path="url(#clip-path-2)">
            <path id="Trazado_838601" data-name="Trazado 838601" d="M47.6,310.291H317.084c27.323-18.38,43.081-54.911,37.908-87.432s-30.433-60.974-62.11-69.967c.192-20.712-2.819-42.158-11.536-60.947S258.54,56.6,240.437,46.537s-40.282-13.25-60.029-7S143.918,61.9,138.5,81.889c-20.516-5.206-43.052,1.239-58.413,15.8A64.245,64.245,0,0,0,61.6,155.665a63.844,63.844,0,0,0-39.123,17.877A66.986,66.986,0,0,0,3.007,213.1C.838,231.255,6.3,249.666,15.081,265.707S35.715,296.393,47.6,310.291" transform="translate(-0.344 -4.943)" fill="#eef5ff"/>
            <g id="Grupo_1084347" data-name="Grupo 1084347" transform="translate(9.673 78.741)" opacity="0.63">
              <g id="Grupo_1084346" data-name="Grupo 1084346">
                <g id="Grupo_1084345" data-name="Grupo 1084345" clip-path="url(#clip-path-4)">
                  <rect id="Rectángulo_385239" data-name="Rectángulo 385239" width="0.935" height="1.87" transform="translate(164.786 81.837)" fill="#a9cbf7"/>
                  <path id="Trazado_838602" data-name="Trazado 838602" d="M202.865,174.431h-.935v-3.957h.935Zm0-7.913h-.935v-3.957h.935Zm0-7.914h-.935v-3.957h.935Zm0-7.913h-.935v-3.957h.935Zm0-7.913h-.935v-3.957h.935Zm0-7.914h-.935v-3.957h.935Z" transform="translate(-37.144 -96.55)" fill="#a9cbf7"/>
                  <path id="Trazado_838603" data-name="Trazado 838603" d="M202.644,125.959h-.935v-1.4h-1.4v-.935h2.337Z" transform="translate(-36.923 -95.559)" fill="#a9cbf7"/>
                  <path id="Trazado_838604" data-name="Trazado 838604" d="M190.327,124.557h-3.453v-.935h3.453Zm-6.907,0h-3.453v-.935h3.453Zm-6.906,0H173.06v-.935h3.453Zm-6.907,0h-3.453v-.935h3.453Zm-6.906,0h-3.453v-.935H162.7Zm-6.907,0h-3.453v-.935h3.453Z" transform="translate(-30.397 -95.559)" fill="#a9cbf7"/>
                  <path id="Trazado_838605" data-name="Trazado 838605" d="M147.974,124.336h-2.337V122h.935v1.4h1.4Z" transform="translate(-29.486 -95.338)" fill="#a9cbf7"/>
                  <path id="Trazado_838606" data-name="Trazado 838606" d="M146.571,115.24h-.935v-3.475h.935Zm0-6.949h-.935v-3.475h.935Zm0-6.95h-.935V97.867h.935Z" transform="translate(-29.485 -92.055)" fill="#a9cbf7"/>
                  <path id="Trazado_838607" data-name="Trazado 838607" d="M146.35,93.477h-.935v-1.4h-1.4v-.935h2.337Z" transform="translate(-29.265 -91.14)" fill="#a9cbf7"/>
                  <path id="Trazado_838608" data-name="Trazado 838608" d="M130.407,92.075h-3.866V91.14h3.866Zm-7.732,0H118.81V91.14h3.865Zm-7.732,0h-3.866V91.14h3.866Zm-7.732,0h-3.866V91.14h3.866Zm-7.732,0H95.616V91.14h3.865Zm-7.732,0H87.883V91.14h3.866Zm-7.732,0H80.152V91.14h3.866Zm-7.732,0H72.421V91.14h3.865Z" transform="translate(-19.525 -91.14)" fill="#a9cbf7"/>
                  <path id="Trazado_838609" data-name="Trazado 838609" d="M66.176,93.477h-.935V91.141h2.337v.935h-1.4Z" transform="translate(-18.548 -91.14)" fill="#a9cbf7"/>
                  <path id="Trazado_838610" data-name="Trazado 838610" d="M66.176,128.81h-.935v-3.442h.935Zm0-6.885h-.935v-3.442h.935Zm0-6.884h-.935V111.6h.935Zm0-6.885h-.935v-3.442h.935Zm0-6.884h-.935V97.83h.935Z" transform="translate(-18.548 -92.05)" fill="#a9cbf7"/>
                  <path id="Trazado_838611" data-name="Trazado 838611" d="M67.578,140.01H65.241v-2.337h.935v1.4h1.4Z" transform="translate(-18.548 -97.47)" fill="#a9cbf7"/>
                  <rect id="Rectángulo_385240" data-name="Rectángulo 385240" width="2.094" height="0.935" transform="translate(51.125 41.605)" fill="#a9cbf7"/>
                  <path id="Trazado_838612" data-name="Trazado 838612" d="M77.557,141.633h-.935v-1.4h-1.4V139.3h2.337Z" transform="translate(-19.906 -97.691)" fill="#a9cbf7"/>
                  <path id="Trazado_838613" data-name="Trazado 838613" d="M79.18,203.227H76.843V200.89h.935v1.4h1.4Z" transform="translate(-20.127 -106.071)" fill="#a9cbf7"/>
                  <path id="Trazado_838614" data-name="Trazado 838614" d="M104.041,203.448h-3.978v-.935h3.978Zm-7.955,0H92.108v-.935h3.978Zm-7.956,0H84.152v-.935H88.13Z" transform="translate(-21.121 -106.292)" fill="#a9cbf7"/>
                  <rect id="Rectángulo_385241" data-name="Rectángulo 385241" width="1.87" height="0.935" transform="translate(86.899 96.221)" fill="#a9cbf7"/>
                  <rect id="Rectángulo_385242" data-name="Rectángulo 385242" width="1.87" height="0.935" transform="translate(193.753 12.471)" fill="#a9cbf7"/>
                  <path id="Trazado_838615" data-name="Trazado 838615" d="M225.776,106.51h-3.761v-.935h3.761Zm-7.522,0h-3.761v-.935h3.761Zm-7.522,0h-3.761v-.935h3.761Zm-7.522,0h-3.76v-.935h3.76Zm-7.521,0h-3.761v-.935h3.761Z" transform="translate(-35.783 -93.104)" fill="#a9cbf7"/>
                  <path id="Trazado_838616" data-name="Trazado 838616" d="M185.8,107.913h-.935v-2.337h2.337v.935h-1.4Z" transform="translate(-34.823 -93.104)" fill="#a9cbf7"/>
                  <path id="Trazado_838617" data-name="Trazado 838617" d="M185.8,178.3h-.935v-3.856h.935Zm0-7.713h-.935v-3.856h.935Zm0-7.713h-.935V159.02h.935Zm0-7.713h-.935v-3.856h.935Zm0-7.713h-.935V143.6h.935Zm0-7.713h-.935v-3.856h.935Zm0-7.713h-.935v-3.857h.935Zm0-7.713h-.935v-3.856h.935Zm0-7.713h-.935v-3.856h.935Z" transform="translate(-34.823 -94.079)" fill="#a9cbf7"/>
                  <rect id="Rectángulo_385243" data-name="Rectángulo 385243" width="0.935" height="1.87" transform="translate(150.047 88.077)" fill="#a9cbf7"/>
                  <rect id="Rectángulo_385244" data-name="Rectángulo 385244" width="0.935" height="1.87" transform="translate(219.71 65.169)" fill="#a9cbf7"/>
                  <path id="Trazado_838618" data-name="Trazado 838618" d="M266.437,158.678H265.5v-3.493h.935Zm0-6.987H265.5V148.2h.935Zm0-6.987H265.5v-3.493h.935Zm0-6.986H265.5v-3.493h.935Z" transform="translate(-45.792 -97.001)" fill="#a9cbf7"/>
                  <path id="Trazado_838619" data-name="Trazado 838619" d="M266.437,129.813H265.5v-2.337h2.337v.935h-1.4Z" transform="translate(-45.793 -96.083)" fill="#a9cbf7"/>
                  <rect id="Rectángulo_385245" data-name="Rectángulo 385245" width="2.148" height="0.935" transform="translate(224.194 31.393)" fill="#a9cbf7"/>
                  <path id="Trazado_838620" data-name="Trazado 838620" d="M278,128.19h-2.337v-.935h1.4v-1.4H278Z" transform="translate(-47.175 -95.862)" fill="#a9cbf7"/>
                  <path id="Trazado_838621" data-name="Trazado 838621" d="M278.224,120.021h-.935v-3.578h.935Zm0-7.156h-.935v-3.579h.935Z" transform="translate(-47.396 -93.609)" fill="#a9cbf7"/>
                  <path id="Trazado_838622" data-name="Trazado 838622" d="M278.224,104.778h-.935v-2.337h2.337v.935h-1.4Z" transform="translate(-47.396 -92.677)" fill="#a9cbf7"/>
                  <path id="Trazado_838623" data-name="Trazado 838623" d="M300.43,103.376H297.11v-.935h3.319Zm-6.638,0h-3.319v-.935h3.319Zm-6.639,0h-3.319v-.935h3.319Z" transform="translate(-48.286 -92.677)" fill="#a9cbf7"/>
                  <path id="Trazado_838624" data-name="Trazado 838624" d="M309.222,104.778h-.935v-1.4h-1.4v-.935h2.337Z" transform="translate(-51.422 -92.677)" fill="#a9cbf7"/>
                  <path id="Trazado_838625" data-name="Trazado 838625" d="M309.443,125.132h-.935v-3.245h.935Zm0-6.492h-.935v-3.246h.935Zm0-6.491h-.935V108.9h.935Z" transform="translate(-51.643 -93.557)" fill="#a9cbf7"/>
                  <path id="Trazado_838626" data-name="Trazado 838626" d="M310.845,133.781h-2.337v-2.337h.935v1.4h1.4Z" transform="translate(-51.643 -96.623)" fill="#a9cbf7"/>
                  <path id="Trazado_838627" data-name="Trazado 838627" d="M334.168,134H330.44v-.935h3.728Zm-7.456,0h-3.728v-.935h3.728Zm-7.456,0h-3.728v-.935h3.728Z" transform="translate(-52.598 -96.844)" fill="#a9cbf7"/>
                  <path id="Trazado_838628" data-name="Trazado 838628" d="M343.755,135.4h-.935V134h-1.4v-.935h2.337Z" transform="translate(-56.12 -96.844)" fill="#a9cbf7"/>
                  <path id="Trazado_838629" data-name="Trazado 838629" d="M343.976,208.273h-.935v-3.6h.935Zm0-7.193h-.935v-3.6h.935Zm0-7.193h-.935v-3.6h.935Zm0-7.194h-.935v-3.6h.935Zm0-7.193h-.935v-3.6h.935Zm0-7.193h-.935v-3.6h.935Zm0-7.193h-.935v-3.6h.935Zm0-7.193h-.935v-3.6h.935Zm0-7.194h-.935v-3.6h.935Zm0-7.193h-.935v-3.6h.935Z" transform="translate(-56.341 -97.778)" fill="#a9cbf7"/>
                  <path id="Trazado_838630" data-name="Trazado 838630" d="M345.378,225.535h-2.337V223.2h.935v1.4h1.4Z" transform="translate(-56.341 -109.106)" fill="#a9cbf7"/>
                  <rect id="Rectángulo_385246" data-name="Rectángulo 385246" width="3.683" height="0.935" transform="translate(292.721 115.495)" fill="#a9cbf7"/>
                  <path id="Trazado_838631" data-name="Trazado 838631" d="M360.874,227.158h-.935v-1.4h-1.4v-.935h2.337Z" transform="translate(-58.449 -109.326)" fill="#a9cbf7"/>
                  <path id="Trazado_838632" data-name="Trazado 838632" d="M361.095,248.325h-.935v-3.378h.935Zm0-6.755h-.935v-3.378h.935Zm0-6.756h-.935v-3.378h.935Z" transform="translate(-58.67 -110.226)" fill="#a9cbf7"/>
                  <path id="Trazado_838633" data-name="Trazado 838633" d="M360.874,257.233h-2.337V256.3h1.4v-1.4h.935Z" transform="translate(-58.449 -113.418)" fill="#a9cbf7"/>
                  <path id="Trazado_838634" data-name="Trazado 838634" d="M347.756,257.454h-3.731v-.935h3.731Zm-7.461,0h-3.73v-.935h3.73Zm-7.46,0H329.1v-.935h3.731Zm-7.462,0h-3.731v-.935h3.731Zm-7.46,0h-3.731v-.935h3.731Zm-7.461,0h-3.731v-.935h3.731Z" transform="translate(-51.4 -113.639)" fill="#a9cbf7"/>
                  <path id="Trazado_838635" data-name="Trazado 838635" d="M302.035,257.233H299.7V254.9h.935v1.4h1.4Z" transform="translate(-50.445 -113.418)" fill="#a9cbf7"/>
                  <path id="Trazado_838636" data-name="Trazado 838636" d="M300.633,247.253H299.7v-3.93h.935Zm0-7.859H299.7v-3.93h.935Zm0-7.859H299.7V227.6h.935Z" transform="translate(-50.445 -109.705)" fill="#a9cbf7"/>
                  <path id="Trazado_838637" data-name="Trazado 838637" d="M300.412,222.69h-.935v-1.4h-1.4v-.935h2.337Z" transform="translate(-50.224 -108.719)" fill="#a9cbf7"/>
                  <path id="Trazado_838638" data-name="Trazado 838638" d="M288.145,221.287h-3.857v-.935h3.857Zm-7.714,0h-3.858v-.935h3.858Zm-7.714,0H268.86v-.935h3.857Zm-7.713,0h-3.858v-.935H265Zm-7.714,0h-3.857v-.935h3.857Z" transform="translate(-44.15 -108.718)" fill="#a9cbf7"/>
                  <rect id="Rectángulo_385247" data-name="Rectángulo 385247" width="1.87" height="0.935" transform="translate(203.554 111.634)" fill="#a9cbf7"/>
                  <rect id="Rectángulo_385248" data-name="Rectángulo 385248" width="1.87" height="0.935" transform="translate(34.063 116.49)" fill="#a9cbf7"/>
                  <path id="Trazado_838639" data-name="Trazado 838639" d="M36.659,225.973h3.015v.935H36.659Zm6.03,0h3.016v.935H42.689Z" transform="translate(-14.66 -109.483)" fill="#a9cbf7"/>
                  <path id="Trazado_838640" data-name="Trazado 838640" d="M30.464,226.687V224.35H31.4v1.4h1.4v.935Z" transform="translate(-13.817 -109.262)" fill="#a9cbf7"/>
                  <path id="Trazado_838641" data-name="Trazado 838641" d="M30.464,215.223H31.4v3.471h-.935Zm0-6.941H31.4v3.471h-.935Z" transform="translate(-13.817 -107.076)" fill="#a9cbf7"/>
                  <path id="Trazado_838642" data-name="Trazado 838642" d="M28.841,202.494v-.935h2.337V203.9h-.935v-1.4Z" transform="translate(-13.596 -106.162)" fill="#a9cbf7"/>
                  <rect id="Rectángulo_385249" data-name="Rectángulo 385249" width="4.303" height="0.935" transform="translate(6.64 95.397)" fill="#a9cbf7"/>
                  <path id="Trazado_838643" data-name="Trazado 838643" d="M11.2,202.273v-2.337h.935v1.4h1.4v.935Z" transform="translate(-11.196 -105.941)" fill="#a9cbf7"/>
                  <path id="Trazado_838644" data-name="Trazado 838644" d="M11.2,189.766h.935v3.453H11.2Zm0-6.907h.935v3.453H11.2Zm0-6.908h.935V179.4H11.2Z" transform="translate(-11.196 -102.678)" fill="#a9cbf7"/>
                  <path id="Trazado_838645" data-name="Trazado 838645" d="M11.2,171.584v-2.337h2.337v.935h-1.4v1.4Z" transform="translate(-11.196 -101.766)" fill="#a9cbf7"/>
                  <path id="Trazado_838646" data-name="Trazado 838646" d="M17.752,169.247h3.327v.935H17.752Zm6.656,0h3.327v.935H24.408Zm6.654,0H34.39v.935H31.062Zm6.655,0h3.327v.935H37.717Z" transform="translate(-12.088 -101.766)" fill="#a9cbf7"/>
                  <path id="Trazado_838647" data-name="Trazado 838647" d="M48.563,169.961v-.935h1.4v-1.4H50.9v2.337Z" transform="translate(-16.279 -101.545)" fill="#a9cbf7"/>
                  <path id="Trazado_838648" data-name="Trazado 838648" d="M50.186,159.76h.935v2.99h-.935Zm0-5.979h.935v2.99h-.935Z" transform="translate(-16.5 -99.662)" fill="#a9cbf7"/>
                  <path id="Trazado_838649" data-name="Trazado 838649" d="M50.186,149.952v-2.337h2.337v.935h-1.4v1.4Z" transform="translate(-16.5 -98.823)" fill="#a9cbf7"/>
                  <rect id="Rectángulo_385250" data-name="Rectángulo 385250" width="3.534" height="0.935" transform="translate(39.559 48.792)" fill="#a9cbf7"/>
                  <rect id="Rectángulo_385251" data-name="Rectángulo 385251" width="3.534" height="0.935" transform="translate(46.627 48.792)" fill="#a9cbf7"/>
                  <rect id="Rectángulo_385252" data-name="Rectángulo 385252" width="3.534" height="0.935" transform="translate(60.762 48.792)" fill="#a9cbf7"/>
                  <rect id="Rectángulo_385253" data-name="Rectángulo 385253" width="3.534" height="0.935" transform="translate(53.695 48.792)" fill="#a9cbf7"/>
                  <rect id="Rectángulo_385254" data-name="Rectángulo 385254" width="1.87" height="0.935" transform="translate(66.514 48.798)" fill="#a9cbf7"/>
                </g>
              </g>
            </g>
            <path id="Trazado_838650" data-name="Trazado 838650" d="M57.4,204.556a5.9,5.9,0,0,0,8.218,1.417l1.777-1.254a24.48,24.48,0,0,0,6.238,3.71l-.315,1.829a5.9,5.9,0,1,0,11.623,2l.37-2.147a24.265,24.265,0,0,0,7.033-1.786l1.071,1.518a5.9,5.9,0,0,0,9.636-6.8l-1.254-1.775a24.5,24.5,0,0,0,3.709-6.238h0l1.828.314a5.9,5.9,0,0,0,2-11.622l-2.147-.37a24.293,24.293,0,0,0-1.786-7.033l1.517-1.071a5.9,5.9,0,0,0-6.8-9.636l-1.78,1.257,0,0a24.112,24.112,0,0,0-6.234-3.706l.316-1.834a5.9,5.9,0,1,0-11.622-2l-.371,2.148a24.294,24.294,0,0,0-7.032,1.786l-1.072-1.519a5.9,5.9,0,1,0-9.635,6.8l1.257,1.781,0,0a24.132,24.132,0,0,0-3.706,6.233l-1.834-.316a5.9,5.9,0,1,0-2,11.622l2.148.371a24.294,24.294,0,0,0,1.786,7.032l-1.519,1.072a5.9,5.9,0,0,0-1.417,8.218m15.345-33.107a17.558,17.558,0,1,1-4.219,24.47,17.558,17.558,0,0,1,4.219-24.47" transform="translate(-7.007 -21.009)" fill="#cfe5ff"/>
            <path id="Trazado_838651" data-name="Trazado 838651" d="M95.125,182.585a11.1,11.1,0,1,1-15.468-2.67,11.1,11.1,0,0,1,15.468,2.67" transform="translate(-10.197 -24.2)" fill="#cfe5ff"/>
            <path id="Trazado_838652" data-name="Trazado 838652" d="M114.085,153.566a2.857,2.857,0,0,0,3.658,1.715l.991-.359a11.871,11.871,0,0,0,2.439,2.532l-.382.814a2.857,2.857,0,0,0,5.173,2.425l.448-.956a11.75,11.75,0,0,0,3.514.067l.306.847a2.857,2.857,0,0,0,5.373-1.944l-.359-.99a11.829,11.829,0,0,0,2.532-2.439h0l.813.381a2.856,2.856,0,1,0,2.425-5.173l-.956-.448a11.721,11.721,0,0,0,.067-3.514l.847-.307a2.856,2.856,0,1,0-1.943-5.372l-.993.359h0a11.711,11.711,0,0,0-2.438-2.53l.383-.816a2.857,2.857,0,0,0-5.173-2.425l-.448.956a11.778,11.778,0,0,0-3.514-.067l-.306-.847a2.857,2.857,0,0,0-5.373,1.943l.359.993h0A11.667,11.667,0,0,0,119,140.85l-.816-.383a2.857,2.857,0,1,0-2.425,5.173l.956.448a11.779,11.779,0,0,0-.067,3.514l-.847.307a2.857,2.857,0,0,0-1.715,3.658m11.41-13.5a8.506,8.506,0,1,1-5.106,10.891,8.506,8.506,0,0,1,5.106-10.891" transform="translate(-15.497 -18.174)" fill="#cfe5ff"/>
            <path id="Trazado_838653" data-name="Trazado 838653" d="M134.876,147.668a5.377,5.377,0,1,1-6.885-3.229,5.376,5.376,0,0,1,6.885,3.229" transform="translate(-16.929 -19.606)" fill="#cfe5ff"/>
            <path id="Trazado_838654" data-name="Trazado 838654" d="M281.208,175.989a4.234,4.234,0,0,0,5.9,1.018l1.276-.9a17.594,17.594,0,0,0,4.479,2.664l-.226,1.313a4.234,4.234,0,0,0,8.346,1.438l.266-1.541A17.435,17.435,0,0,0,306.3,178.7l.77,1.09a4.234,4.234,0,1,0,6.918-4.884l-.9-1.275a17.6,17.6,0,0,0,2.663-4.478v0l1.312.226a4.234,4.234,0,1,0,1.439-8.346l-1.541-.265a17.411,17.411,0,0,0-1.282-5.05l1.089-.769a4.234,4.234,0,1,0-4.883-6.919l-1.279.9h0a17.3,17.3,0,0,0-4.476-2.661l.226-1.317a4.234,4.234,0,1,0-8.345-1.438l-.266,1.542a17.5,17.5,0,0,0-5.049,1.282l-.77-1.09a4.235,4.235,0,1,0-6.919,4.885l.9,1.278h0a17.326,17.326,0,0,0-2.661,4.476l-1.317-.227A4.235,4.235,0,0,0,280.491,164l1.543.265a17.4,17.4,0,0,0,1.282,5.049l-1.091.77a4.234,4.234,0,0,0-1.017,5.9m11.018-23.772a12.607,12.607,0,1,1-3.029,17.57,12.608,12.608,0,0,1,3.029-17.57" transform="translate(-37.681 -19.046)" fill="#cfe5ff"/>
            <path id="Trazado_838655" data-name="Trazado 838655" d="M308.3,160.213a7.97,7.97,0,1,1-11.107-1.918,7.969,7.969,0,0,1,11.107,1.918" transform="translate(-39.972 -21.337)" fill="#cfe5ff"/>
            <path id="Trazado_838656" data-name="Trazado 838656" d="M340.588,232.663q-.152,4.082-.3,8.165-.1,2.734-.2,5.47c.021.156.042.308.064.455q-.211,4.706-.426,9.408c-.029.656-.061,1.313-.091,1.97q-.078,1.766-.16,3.537c-.015.348-.032.694-.047,1.041-.024.517-.047,1.032-.071,1.547l15.927,3.617a29.774,29.774,0,0,0,20.856-8.805q.616-.636,1.172-1.285a29.785,29.785,0,0,0,7.026-18.985A23.9,23.9,0,0,1,372,245.805a23.311,23.311,0,0,1-8.224.253c-.814-.119-1.521-.266-2.111-.407-.033-.006-.062-.015-.093-.022a51.352,51.352,0,0,0,21.665-11.121c-.082-1.779-.248-4.477-.613-7.746-.035-.315-.071-.626-.105-.925-.031-.256-.063-.509-.092-.753-.146-1.147-.294-2.188-.442-3.134-.05-.317-.1-.622-.148-.92-.4-2.389-.782-4.18-1.063-5.75-.034-.185-.064-.365-.1-.543-.1-.568-.174-1.114-.234-1.655-.444-4.034.024-9.906,4.336-17.648.175-.309.354-.627.543-.946l-1.145.568,0,0a73.8,73.8,0,0,0-20.627,8.192l-.065.039-.459.277-.066.04q-1.559.952-3.087,2.015l-.556.391a58.2,58.2,0,0,0-8.457,7.342q-1.068,1.126-2.048,2.277v0c-.5.606-.974,1.214-1.413,1.818q-.259.354-.5.705a40.44,40.44,0,0,0-5.323,10.788c-.4,1.272-.727,2.515-.981,3.719" transform="translate(-46.167 -26.459)" fill="#092c24"/>
            <path id="Trazado_838657" data-name="Trazado 838657" d="M346.952,246.475a16.469,16.469,0,0,1,1.629,6.112q-1.459,1.553-2.994,3.121-3.071,3.126-6.1,5.961c-.015.347-.032.693-.047,1.041,3.888-3.6,7.838-7.5,11.792-11.735q2.2-2.357,4.264-4.69a28.741,28.741,0,0,0,8.292-.226c-.814-.119-1.521-.266-2.111-.407q-1.067.11-2.142.136a28.143,28.143,0,0,1-3.517-.138,59.6,59.6,0,0,0,8.866-14.692,33.827,33.827,0,0,0,17.647-5.122c-.031-.255-.062-.508-.092-.753a33.145,33.145,0,0,1-8.192,3.762c-.094.029-.191.056-.286.085a30.666,30.666,0,0,0,8.036-6.979c-.05-.316-.1-.623-.148-.919a30.052,30.052,0,0,1-10.545,8.561,33.3,33.3,0,0,1-6.137.675c.863-2.162,1.575-4.3,2.323-6.557.533-1.61,1.072-3.235,1.677-4.888,1.511-.261,3.02-.6,4.5-1a48.769,48.769,0,0,0,7.122-2.546c-.034-.184-.064-.363-.1-.542a48.237,48.237,0,0,1-7.169,2.574c-1.359.369-2.749.681-4.143.93a55.409,55.409,0,0,1,7.3-13.764,59.824,59.824,0,0,1,8.112-9.044c.175-.311.354-.628.543-.947l-1.145.569,0,0a60.4,60.4,0,0,0-8.063,9.014,56.3,56.3,0,0,0-7.529,14.3l-.147.024.042.264a41.913,41.913,0,0,0-3.074-6.1l.055,0a19.259,19.259,0,0,0-1.911-9.312l-.066.039-.459.277-.066.04a18.243,18.243,0,0,1,1.819,7.955c-.454-.717-.972-1.467-1.558-2.233a30.836,30.836,0,0,0-3.348-3.707l-.556.391a35.708,35.708,0,0,1,3.353,3.73,36.243,36.243,0,0,1,5.456,9.905c-.457,1.3-.88,2.576-1.3,3.846-.8,2.41-1.553,4.689-2.5,6.991a56.128,56.128,0,0,1-4.726,9.035,32.585,32.585,0,0,0-4.212-12.957c-.821-1.408-1.781-2.727-1.781-2.727a30.687,30.687,0,0,0-2.733-3.274,31.01,31.01,0,0,0-3.475-3.112l-.053-.041-.56.671.109.073a22.948,22.948,0,0,1,6.227,6.184s.9,1.245,1.67,2.571a31.924,31.924,0,0,1,4.2,13.538,63.52,63.52,0,0,1-3.8,5.108l-.518.622a73.968,73.968,0,0,1-5.462,5.8,17.16,17.16,0,0,0-2.654-7.585c-.016-.025-.252-.392-.458-.676a10.953,10.953,0,0,0-2.4-2.341,10.735,10.735,0,0,0-3.358-1.584c-.017.344-.037.689-.055,1.033a10.84,10.84,0,0,1,5.339,3.413,15.691,15.691,0,0,1,1.314,2.232" transform="translate(-46.178 -26.459)" fill="#245558"/>
            <path id="Trazado_838658" data-name="Trazado 838658" d="M344.053,273.505l-7.568,12.48,11.5-7.278c7.772-5.233,32.859-24.729,43.638-42.673,3.086-5.137,7.008-14.492,3-20.292-5.719-8.265-17.584,6.859-23.571,14.355-.5.626-.96,1.2-1.371,1.7a121.748,121.748,0,0,0-9.288,13.451c-4.008,6.525-9.151,15.314-13.373,22.869-1.057,1.892-2.056,3.707-2.966,5.388" transform="translate(-45.777 -29.024)" fill="#3d8e94"/>
            <path id="Trazado_838659" data-name="Trazado 838659" d="M336.384,287.826a.238.238,0,0,1-.111-.07.234.234,0,0,1,.021-.329,254.074,254.074,0,0,0,51.062-62.081.233.233,0,0,1,.4.236,254.543,254.543,0,0,1-51.156,62.2.234.234,0,0,1-.219.049" transform="translate(-45.74 -30.641)" fill="#245558"/>
            <path id="Trazado_838660" data-name="Trazado 838660" d="M336.352,292.465c.486-.134.974-.267,1.461-.4q6.783-1.864,13.566-3.729c4.258-1.214,10.6-3.02,18.371-5.261q4.383-1.266,8.767-2.526c1.994-.572,4-1.112,6-1.646,6.066-1.618,12.152-3.177,18.047-5.35,9.726-3.585,14.992-6.005,17.436-9.6a8.682,8.682,0,0,0,1.745-5.38,7.823,7.823,0,0,0-1.42-3.94c-6.244-8.484-30.581-.123-38.739,4.583-12.077,6.968-22.948,15.662-34.163,23.889q-5.536,4.678-11.072,9.357" transform="translate(-45.758 -34.146)" fill="#317277"/>
            <path id="Trazado_838661" data-name="Trazado 838661" d="M336.25,293.921a.233.233,0,0,1-.058-.422A309.681,309.681,0,0,1,382.4,270.106c9.409-3.808,19.122-7.188,28.872-10.048a.233.233,0,0,1,.13.448c-9.734,2.855-19.433,6.23-28.827,10.032A309.289,309.289,0,0,0,336.437,293.9a.232.232,0,0,1-.187.026" transform="translate(-45.722 -35.378)" fill="#3d8e94"/>
            <path id="Trazado_838662" data-name="Trazado 838662" d="M332.892,283.233c1.12-4.055,2.827-10.079,5.057-17.35,2.41-7.859,5.946-15.939,11.467-32.294,1.161-3.437,6.489-19.279,13.432-21.364a6.138,6.138,0,0,1,4.277.058c2.6,1.178,3.4,4.5,3.712,5.812,3.185,13.327-10.916,34.728-10.916,34.728a111.256,111.256,0,0,1-27.029,30.41" transform="translate(-45.288 -28.822)" fill="#317277"/>
            <path id="Trazado_838663" data-name="Trazado 838663" d="M332.791,284.823a.249.249,0,0,1-.06-.027.233.233,0,0,1-.073-.321,315.924,315.924,0,0,0,22-41.537c2.986-6.828,5.763-13.854,8.256-20.884a.233.233,0,0,1,.44.156c-2.5,7.04-5.278,14.077-8.269,20.916a316.225,316.225,0,0,1-22.036,41.6.233.233,0,0,1-.261.1" transform="translate(-45.251 -30.188)" fill="#3d8e94"/>
            <path id="Trazado_838664" data-name="Trazado 838664" d="M357.179,299.888s11.8.194,17.262.181c12.19-.029,26.079.8,33.993-6.885,1.822-1.768,3.5-4.2,3.162-7.114a8.792,8.792,0,0,0-2.36-4.77c-4.048-4.409-14.167-3.445-19.322-2.905-10.094,1.056-39.231,12.91-39.231,12.91l-15.591,7.525,22.086,1.058" transform="translate(-45.587 -37.808)" fill="#3d8e94"/>
            <path id="Trazado_838665" data-name="Trazado 838665" d="M334.992,300.258a.233.233,0,0,1,.02-.453l67.43-13.036a.233.233,0,0,1,.088.458L335.1,300.263a.227.227,0,0,1-.108,0" transform="translate(-45.55 -39.012)" fill="#245558"/>
            <path id="Trazado_838666" data-name="Trazado 838666" d="M76.566,273.411l4.6,13.851-9.6-9.656c-6.412-6.831-26.53-31.423-33.044-51.316-1.864-5.7-3.606-15.689,1.6-20.45,7.415-6.785,15.616,10.6,19.785,19.242.349.722.669,1.383.958,1.963a121.661,121.661,0,0,1,6.061,15.181c2.455,7.253,5.513,16.967,7.947,25.272.61,2.08,1.18,4.072,1.692,5.914" transform="translate(-4.989 -27.794)" fill="#3d8e94"/>
            <path id="Trazado_838667" data-name="Trazado 838667" d="M82.481,289.191a.234.234,0,0,0,.177-.369A254.032,254.032,0,0,1,46.7,216.932a.233.233,0,0,0-.445.14,254.526,254.526,0,0,0,36.028,72.022.234.234,0,0,0,.2.1" transform="translate(-6.291 -29.49)" fill="#245558"/>
            <path id="Trazado_838668" data-name="Trazado 838668" d="M75.988,292.837q-.667-.358-1.336-.718-6.2-3.327-12.4-6.655c-3.882-2.131-9.665-5.3-16.739-9.218q-3.991-2.21-7.985-4.414c-1.815-1-3.648-1.973-5.484-2.94-5.554-2.928-11.141-5.8-16.4-9.233C6.961,254,2.365,250.466.783,246.423a8.691,8.691,0,0,1-.5-5.634,7.827,7.827,0,0,1,2.262-3.524c7.976-6.881,29.841,6.687,36.748,13.092,10.223,9.481,18.885,20.376,27.989,30.894l8.711,11.587" transform="translate(0 -32.02)" fill="#317277"/>
            <path id="Trazado_838669" data-name="Trazado 838669" d="M77.584,294.324a.233.233,0,0,0,.151-.4,309.807,309.807,0,0,0-39.841-33.091c-8.324-5.806-17.042-11.264-25.91-16.222a.233.233,0,0,0-.228.407c8.856,4.95,17.56,10.4,25.871,16.2a309.262,309.262,0,0,1,39.78,33.041.234.234,0,0,0,.176.067" transform="translate(-1.583 -33.274)" fill="#3d8e94"/>
            <path id="Trazado_838670" data-name="Trazado 838670" d="M55.36,295.805s-11.551-2.439-16.869-3.667C26.615,289.4,12.89,287.11,6.884,277.86c-1.383-2.129-2.48-4.87-1.5-7.639A8.8,8.8,0,0,1,8.747,266.1c4.928-3.4,14.579-.2,19.484,1.469C37.837,270.84,63.6,288.883,63.6,288.883L77.128,299.69,55.36,295.805" transform="translate(-0.682 -35.996)" fill="#3d8e94"/>
            <path id="Trazado_838671" data-name="Trazado 838671" d="M78.565,301.048a.233.233,0,0,0,.082-.446L15.81,272.884a.233.233,0,0,0-.187.427l62.836,27.717a.23.23,0,0,0,.106.02" transform="translate(-2.106 -37.121)" fill="#245558"/>
            <path id="Trazado_838672" data-name="Trazado 838672" d="M112.3,283.808H23.5a2.558,2.558,0,0,1-2.558-2.558v-9.284a2.558,2.558,0,0,1,2.558-2.558h88.8a2.558,2.558,0,0,1,2.558,2.558v9.284a2.558,2.558,0,0,1-2.558,2.558" transform="translate(-2.849 -36.651)" fill="#297eec"/>
            <rect id="Rectángulo_385256" data-name="Rectángulo 385256" width="86.091" height="14.4" transform="translate(22.004 247.157)" fill="#4095f2"/>
            <path id="Trazado_838673" data-name="Trazado 838673" d="M112.3,317.145H23.5a2.558,2.558,0,0,1-2.558-2.558V305.3a2.558,2.558,0,0,1,2.558-2.558h88.8a2.558,2.558,0,0,1,2.558,2.558v9.284a2.558,2.558,0,0,1-2.558,2.558" transform="translate(-2.849 -41.186)" fill="#297eec"/>
            <path id="Trazado_838674" data-name="Trazado 838674" d="M112.3,350.481H23.5a2.558,2.558,0,0,1-2.558-2.558v-9.284a2.558,2.558,0,0,1,2.558-2.558h88.8a2.558,2.558,0,0,1,2.558,2.558v9.284a2.558,2.558,0,0,1-2.558,2.558" transform="translate(-2.849 -45.722)" fill="#297eec"/>
            <rect id="Rectángulo_385257" data-name="Rectángulo 385257" width="86.091" height="14.4" transform="translate(22.004 275.959)" fill="#4095f2"/>
            <path id="Trazado_838675" data-name="Trazado 838675" d="M322.148,300.9H136.2a.453.453,0,0,1-.454-.453v-130.4a.452.452,0,0,1,.454-.453h185.95a.451.451,0,0,1,.453.453v130.4a.453.453,0,0,1-.453.453" transform="translate(-18.467 -23.073)" fill="#4095f2"/>
            <rect id="Rectángulo_385258" data-name="Rectángulo 385258" width="178.113" height="107.668" transform="translate(121.649 150.947)" fill="#eef5ff"/>
            <path id="Trazado_838676" data-name="Trazado 838676" d="M303.189,268.816H162.266a.4.4,0,0,1-.4-.4V192.058a.4.4,0,0,1,.4-.4H303.189a.4.4,0,0,1,.4.4V268.42a.4.4,0,0,1-.4.4" transform="translate(-22.021 -26.074)" fill="#a9cbf7"/>
            <path id="Trazado_838677" data-name="Trazado 838677" d="M168.779,196.97a1.6,1.6,0,1,0-1.6,1.6,1.6,1.6,0,0,0,1.6-1.6" transform="translate(-22.526 -26.579)" fill="#fff"/>
            <path id="Trazado_838678" data-name="Trazado 838678" d="M175.471,196.97a1.6,1.6,0,1,0-1.6,1.6,1.6,1.6,0,0,0,1.6-1.6" transform="translate(-23.436 -26.579)" fill="#fff"/>
            <path id="Trazado_838679" data-name="Trazado 838679" d="M182.163,196.97a1.6,1.6,0,1,0-1.6,1.6,1.6,1.6,0,0,0,1.6-1.6" transform="translate(-24.346 -26.579)" fill="#fff"/>
            <path id="Trazado_838680" data-name="Trazado 838680" d="M225.308,319.554l-13.014,27.6s.153,1.932,1.424,1.932h59.019v-1.932H246.659l13.115-28.137Z" transform="translate(-28.881 -43.401)" fill="#297eec"/>
            <path id="Trazado_838681" data-name="Trazado 838681" d="M246.971,351.535H214.945a.356.356,0,0,1,0-.713h32.026a.356.356,0,1,1,0,.713" transform="translate(-29.193 -47.727)" fill="#9bb8bc"/>
            <path id="Trazado_838682" data-name="Trazado 838682" d="M216.683,108.461a4.521,4.521,0,0,0-1.069-.6V82.846h-3.358v25.013a4.582,4.582,0,1,0,4.427.6M213.93,114.3a2.194,2.194,0,1,1,2.194-2.194,2.2,2.2,0,0,1-2.194,2.194m14.556-15.975-.422-.982a44.644,44.644,0,0,1-3.509-14.5h-3.376a47.994,47.994,0,0,0,3.8,15.823l.422.981a4.553,4.553,0,1,0,3.21-1.328c-.041,0-.082,0-.123.005m2.317,4.566a2.194,2.194,0,1,1-2.194-2.194,2.194,2.194,0,0,1,2.194,2.194M191,108.461a4.522,4.522,0,0,0-1.069-.6V82.846h-3.358v25.013a4.582,4.582,0,1,0,4.427.6m-2.753,5.841a2.194,2.194,0,1,1,2.194-2.194,2.2,2.2,0,0,1-2.194,2.194m-14.667-6.832a4.567,4.567,0,0,0,3.21-7.82l.422-.981a48,48,0,0,0,3.8-15.823h-3.377a44.644,44.644,0,0,1-3.509,14.5l-.422.982c-.041,0-.081-.005-.123-.005A4.584,4.584,0,0,0,169,102.894a4.574,4.574,0,0,0,4.577,4.576m0-6.771a2.194,2.194,0,1,1-2.194,2.194,2.2,2.2,0,0,1,2.194-2.194" transform="translate(-22.992 -11.271)" fill="#297eec"/>
            <path id="Trazado_838683" data-name="Trazado 838683" d="M208.176,113.248a4.6,4.6,0,0,0-1.068-.6v-29.8h-3.36v29.8a4.725,4.725,0,0,0-1.069.6,4.582,4.582,0,1,0,5.5.008m-2.754,5.842a2.2,2.2,0,1,1,2.194-2.2,2.2,2.2,0,0,1-2.194,2.2" transform="translate(-27.324 -11.271)" fill="#297eec"/>
            <path id="Trazado_838684" data-name="Trazado 838684" d="M237.577,24.027a26.142,26.142,0,0,0-39.515-19.6,24.439,24.439,0,0,0-38.272,16.937,25.939,25.939,0,0,0,7.8,50.676v0h60.575l0,0h0a24.929,24.929,0,0,0,9.412-48.014" transform="translate(-19.271)" fill="#f89d13"/>
            <path id="Trazado_838685" data-name="Trazado 838685" d="M229.706,50.376a28.375,28.375,0,1,0-.644,11.219,28.2,28.2,0,0,0,.644-11.219m-8.578,9.138a20.1,20.1,0,1,1-2.088-15.237,20.119,20.119,0,0,1,2.088,15.237" transform="translate(-23.588 -3.552)" fill="#fff"/>
            <path id="Trazado_838686" data-name="Trazado 838686" d="M196.478,74.236a.647.647,0,1,1-.648-.647.647.647,0,0,1,.648.647" transform="translate(-26.553 -10.011)" fill="#fff"/>
            <path id="Trazado_838687" data-name="Trazado 838687" d="M200.564,74.236a.647.647,0,1,1-.648-.647.647.647,0,0,1,.648.647" transform="translate(-27.109 -10.011)" fill="#fff"/>
            <path id="Trazado_838688" data-name="Trazado 838688" d="M204.65,74.236a.647.647,0,1,1-.647-.647.647.647,0,0,1,.647.647" transform="translate(-27.665 -10.011)" fill="#fff"/>
            <path id="Trazado_838689" data-name="Trazado 838689" d="M208.736,74.236a.647.647,0,1,1-.647-.647.647.647,0,0,1,.647.647" transform="translate(-28.221 -10.011)" fill="#fff"/>
            <path id="Trazado_838690" data-name="Trazado 838690" d="M213,74.2a.863.863,0,1,1-.863-.862A.863.863,0,0,1,213,74.2" transform="translate(-28.743 -9.977)" fill="#fff"/>
            <path id="Trazado_838691" data-name="Trazado 838691" d="M216.908,74.236a.647.647,0,1,1-.647-.647.647.647,0,0,1,.647.647" transform="translate(-29.333 -10.011)" fill="#fff"/>
            <path id="Trazado_838692" data-name="Trazado 838692" d="M20.636,144.613h-2.6v-2.607a1.016,1.016,0,0,0-2.031,0v2.607h-2.6a1.007,1.007,0,0,0-1.014,1.007,1.018,1.018,0,0,0,1.014,1.021h2.6v2.594a1.016,1.016,0,1,0,2.031,0v-2.594h2.6a1.021,1.021,0,0,0,1.017-1.021,1.009,1.009,0,0,0-1.017-1.007" transform="translate(-1.686 -19.181)" fill="#cbdbef"/>
            <path id="Trazado_838693" data-name="Trazado 838693" d="M388.209,131.455h-2.6v-2.6a1.016,1.016,0,0,0-2.031,0v2.6h-2.6a1.007,1.007,0,0,0-1.014,1.007,1.019,1.019,0,0,0,1.014,1.022h2.6v2.594a1.016,1.016,0,1,0,2.031,0v-2.594h2.6a1.021,1.021,0,0,0,1.017-1.022,1.009,1.009,0,0,0-1.017-1.007" transform="translate(-51.692 -17.392)" fill="#cbdbef"/>
            <path id="Trazado_838694" data-name="Trazado 838694" d="M339.172,54.532A4.534,4.534,0,1,0,343.706,50a4.542,4.542,0,0,0-4.534,4.536m1.739,0a2.794,2.794,0,1,1,2.795,2.795,2.8,2.8,0,0,1-2.795-2.795" transform="translate(-46.142 -6.802)" fill="#cbdbef"/>
            <path id="Trazado_838695" data-name="Trazado 838695" d="M120.829,49.282a4.534,4.534,0,1,0,4.534-4.536,4.542,4.542,0,0,0-4.534,4.536m1.739,0a2.794,2.794,0,1,1,2.795,2.795,2.8,2.8,0,0,1-2.795-2.795" transform="translate(-16.438 -6.087)" fill="#cbdbef"/>
            <path id="Trazado_838696" data-name="Trazado 838696" d="M17.008,97.239A4.534,4.534,0,1,0,21.542,92.7a4.542,4.542,0,0,0-4.534,4.536m1.739,0a2.794,2.794,0,1,1,2.795,2.795,2.8,2.8,0,0,1-2.795-2.795" transform="translate(-2.314 -12.612)" fill="#cbdbef"/>
            <path id="Trazado_838697" data-name="Trazado 838697" d="M339.514,84.144a1.145,1.145,0,0,0-1.143,1.147,1.133,1.133,0,0,0,1.143,1.139h11.429a1.137,1.137,0,0,0,1.146-1.139,1.149,1.149,0,0,0-1.146-1.147Z" transform="translate(-46.033 -11.447)" fill="#cbdbef"/>
            <path id="Trazado_838698" data-name="Trazado 838698" d="M358.414,84.144a1.15,1.15,0,0,0-1.143,1.147,1.137,1.137,0,0,0,1.143,1.139h2.1a1.132,1.132,0,0,0,1.14-1.139,1.145,1.145,0,0,0-1.14-1.147Z" transform="translate(-48.604 -11.447)" fill="#cbdbef"/>
            <path id="Trazado_838699" data-name="Trazado 838699" d="M51.218,71.175a1.145,1.145,0,0,0-1.143,1.147,1.133,1.133,0,0,0,1.143,1.139H62.647a1.136,1.136,0,0,0,1.145-1.139,1.148,1.148,0,0,0-1.145-1.147Z" transform="translate(-6.812 -9.683)" fill="#cbdbef"/>
            <path id="Trazado_838700" data-name="Trazado 838700" d="M70.117,71.175a1.15,1.15,0,0,0-1.143,1.147,1.137,1.137,0,0,0,1.143,1.139h2.1a1.133,1.133,0,0,0,1.141-1.139,1.145,1.145,0,0,0-1.141-1.147Z" transform="translate(-9.383 -9.683)" fill="#cbdbef"/>
            <path id="Trazado_838701" data-name="Trazado 838701" d="M397,179.42a1.121,1.121,0,0,0-1.091,1.147A1.108,1.108,0,0,0,397,181.706h10.906A1.111,1.111,0,0,0,409,180.567a1.123,1.123,0,0,0-1.093-1.147Z" transform="translate(-53.861 -24.409)" fill="#cbdbef"/>
            <path id="Trazado_838702" data-name="Trazado 838702" d="M419.689,179.42a1.125,1.125,0,0,0-1.091,1.147,1.112,1.112,0,0,0,1.091,1.139h2a1.108,1.108,0,0,0,1.089-1.139,1.12,1.12,0,0,0-1.089-1.147Z" transform="translate(-56.947 -24.409)" fill="#cbdbef"/>
            <path id="Trazado_838703" data-name="Trazado 838703" d="M351.895,224.037V295.5a3.4,3.4,0,0,1-3.4,3.4H227.534a3.4,3.4,0,0,1-3.4-3.4V224.035a3.4,3.4,0,0,1,3.4-3.4H348.5a3.4,3.4,0,0,1,3.4,3.4" transform="translate(-30.492 -30.016)" fill="#fff"/>
            <path id="Trazado_838704" data-name="Trazado 838704" d="M278.825,267.889a22.513,22.513,0,1,1-43.283-8.7l20.77,8.7L255.247,245.4c.349-.021.708-.027,1.066-.027a22.512,22.512,0,0,1,22.512,22.511" transform="translate(-31.807 -33.382)" fill="#f89d13"/>
            <path id="Trazado_838705" data-name="Trazado 838705" d="M252.928,241.11a22.536,22.536,0,0,0-19.7,13.784l20.769,8.7Z" transform="translate(-31.729 -32.801)" fill="#297eec"/>
            <rect id="Rectángulo_385259" data-name="Rectángulo 385259" width="3.091" height="3.091" transform="translate(298.122 219.005)" fill="#d68a2f"/>
            <path id="Trazado_838706" data-name="Trazado 838706" d="M362.129,255.606H351.053a.034.034,0,0,1-.034-.034v-.707a.034.034,0,0,1,.034-.034h11.077a.034.034,0,0,1,.034.034v.707a.034.034,0,0,1-.034.034" transform="translate(-47.754 -34.668)" fill="#297eec"/>
            <rect id="Rectángulo_385260" data-name="Rectángulo 385260" width="3.091" height="3.091" transform="translate(298.122 213.496)" fill="#297eec"/>
            <path id="Trazado_838707" data-name="Trazado 838707" d="M362.129,249.228H351.053a.034.034,0,0,1-.034-.034v-.707a.034.034,0,0,1,.034-.034h11.077a.034.034,0,0,1,.034.034v.707a.034.034,0,0,1-.034.034" transform="translate(-47.754 -33.801)" fill="#297eec"/>
            <rect id="Rectángulo_385261" data-name="Rectángulo 385261" width="3.091" height="3.091" transform="translate(298.122 224.513)" fill="#f89d13"/>
            <path id="Trazado_838708" data-name="Trazado 838708" d="M362.129,261.981H351.053a.034.034,0,0,1-.034-.034v-.707a.034.034,0,0,1,.034-.034h11.077a.034.034,0,0,1,.034.034v.707a.034.034,0,0,1-.034.034" transform="translate(-47.754 -35.535)" fill="#297eec"/>
            <path id="Trazado_838709" data-name="Trazado 838709" d="M360.965,274.536H345.452a.387.387,0,0,1,0-.774h15.513a.387.387,0,0,1,0,.774" transform="translate(-46.944 -37.243)" fill="#297eec"/>
            <path id="Trazado_838710" data-name="Trazado 838710" d="M360.965,278.216H345.452a.387.387,0,0,1,0-.774h15.513a.387.387,0,0,1,0,.774" transform="translate(-46.944 -37.744)" fill="#297eec"/>
            <path id="Trazado_838711" data-name="Trazado 838711" d="M360.965,281.9H345.452a.387.387,0,0,1,0-.774h15.513a.387.387,0,0,1,0,.774" transform="translate(-46.944 -38.245)" fill="#297eec"/>
            <path id="Trazado_838712" data-name="Trazado 838712" d="M360.965,285.574H345.452a.387.387,0,0,1,0-.774h15.513a.387.387,0,1,1,0,.774" transform="translate(-46.944 -38.745)" fill="#297eec"/>
            <path id="Trazado_838713" data-name="Trazado 838713" d="M360.965,289.253H345.452a.387.387,0,1,1,0-.774h15.513a.387.387,0,0,1,0,.774" transform="translate(-46.944 -39.246)" fill="#297eec"/>
            <path id="Trazado_838714" data-name="Trazado 838714" d="M360.965,292.933H345.452a.387.387,0,0,1,0-.774h15.513a.387.387,0,0,1,0,.774" transform="translate(-46.944 -39.746)" fill="#297eec"/>
            <path id="Trazado_838715" data-name="Trazado 838715" d="M360.965,296.612H345.452a.387.387,0,1,1,0-.774h15.513a.387.387,0,0,1,0,.774" transform="translate(-46.944 -40.247)" fill="#297eec"/>
            <path id="Trazado_838716" data-name="Trazado 838716" d="M351.895,224.037V230H224.137v-5.965a3.4,3.4,0,0,1,3.4-3.4H348.5a3.4,3.4,0,0,1,3.4,3.4" transform="translate(-30.492 -30.016)" fill="#184785"/>
            <path id="Trazado_838717" data-name="Trazado 838717" d="M355.938,225.808a1.574,1.574,0,1,1-1.574-1.574,1.574,1.574,0,0,1,1.574,1.574" transform="translate(-47.995 -30.506)" fill="#297eec"/>
            <path id="Trazado_838718" data-name="Trazado 838718" d="M361.842,225.808a1.574,1.574,0,1,1-1.574-1.574,1.574,1.574,0,0,1,1.574,1.574" transform="translate(-48.798 -30.506)" fill="#d68a2f"/>
            <path id="Trazado_838719" data-name="Trazado 838719" d="M367.5,225.808a1.574,1.574,0,1,1-1.574-1.574,1.574,1.574,0,0,1,1.574,1.574" transform="translate(-49.567 -30.506)" fill="#f89d13"/>
            <path id="Trazado_838720" data-name="Trazado 838720" d="M282.2,267.889a22.425,22.425,0,0,1-5.8,15.081L259.69,267.889,258.624,245.4c.349-.021.708-.027,1.066-.027A22.512,22.512,0,0,1,282.2,267.889" transform="translate(-35.184 -33.382)" fill="#d68a2f"/>
            <rect id="Rectángulo_385262" data-name="Rectángulo 385262" width="7.167" height="30.711" transform="translate(268.938 228.821)" fill="#297eec"/>
            <path id="Trazado_838721" data-name="Trazado 838721" d="M311.286,290.441a27.942,27.942,0,0,0,7.167-3.7v11.8h-7.167Z" transform="translate(-42.348 -39.009)" fill="#f89d13"/>
            <rect id="Rectángulo_385263" data-name="Rectángulo 385263" width="7.167" height="22.178" transform="translate(257.222 237.354)" fill="#297eec"/>
            <path id="Trazado_838722" data-name="Trazado 838722" d="M303.567,291.59a12.731,12.731,0,0,0,1.327.122v7.459h-7.168v-7.389a12.944,12.944,0,0,1,5.841-.192" transform="translate(-40.504 -39.638)" fill="#f89d13"/>
            <rect id="Rectángulo_385264" data-name="Rectángulo 385264" width="7.167" height="39.887" transform="translate(280.653 219.645)" fill="#297eec"/>
            <path id="Trazado_838723" data-name="Trazado 838723" d="M332.013,279.534v18.027h-7.167V282.6c2.547-1.73,4.921-3.07,7.167-3.061" transform="translate(-44.193 -38.029)" fill="#f89d13"/>
            <path id="Trazado_838724" data-name="Trazado 838724" d="M327.965,240.773l-6.468,1.388,1.737,1.7-9.9,10.1-3.475-3.408-12.29,12.528a1.213,1.213,0,0,0,1.731,1.7l10.591-10.8,3.475,3.409,11.6-11.828,1.737,1.7Z" transform="translate(-40.435 -32.756)" fill="#d68a2f"/>
            <path id="Trazado_838725" data-name="Trazado 838725" d="M156,352.213H57.383V343.4a1.785,1.785,0,0,1,1.785-1.784h95.049A1.785,1.785,0,0,1,156,343.4Z" transform="translate(-7.807 -46.474)" fill="#124072"/>
            <path id="Trazado_838726" data-name="Trazado 838726" d="M166.612,218.612H148.968a1.627,1.627,0,0,1-1.627-1.627V194.651a1.627,1.627,0,0,1,1.627-1.627h17.644a1.627,1.627,0,0,1,1.627,1.627v22.334a1.627,1.627,0,0,1-1.627,1.627" transform="translate(-20.045 -26.26)" fill="#124072"/>
            <path id="Trazado_838727" data-name="Trazado 838727" d="M142.379,218.612H58.908a1.525,1.525,0,0,1-1.525-1.525V194.549a1.525,1.525,0,0,1,1.525-1.525h83.471a1.525,1.525,0,0,1,1.525,1.525v22.538a1.525,1.525,0,0,1-1.525,1.525" transform="translate(-7.807 -26.26)" fill="#184785"/>
            <path id="Trazado_838728" data-name="Trazado 838728" d="M137.8,215.174H64.7a.892.892,0,0,1-.892-.892V200.129a.892.892,0,0,1,.892-.892h73.1a.892.892,0,0,1,.892.892v14.152a.892.892,0,0,1-.892.892" transform="translate(-8.681 -27.105)" fill="#fff"/>
            <path id="Trazado_838729" data-name="Trazado 838729" d="M67.045,208.4a1.583,1.583,0,1,1,1.583,1.606,1.594,1.594,0,0,1-1.583-1.606" transform="translate(-9.121 -28.133)" fill="#297eec"/>
            <path id="Trazado_838730" data-name="Trazado 838730" d="M73.185,208.4a1.583,1.583,0,1,1,1.583,1.606,1.594,1.594,0,0,1-1.583-1.606" transform="translate(-9.956 -28.133)" fill="#f89d13"/>
            <path id="Trazado_838731" data-name="Trazado 838731" d="M79.325,208.4a1.583,1.583,0,1,1,1.583,1.606,1.594,1.594,0,0,1-1.583-1.606" transform="translate(-10.792 -28.133)" fill="#297eec"/>
            <path id="Trazado_838732" data-name="Trazado 838732" d="M85.465,208.4a1.583,1.583,0,1,1,1.583,1.606,1.594,1.594,0,0,1-1.583-1.606" transform="translate(-11.627 -28.133)" fill="#297eec"/>
            <path id="Trazado_838733" data-name="Trazado 838733" d="M144.82,212.729h-7.682a.292.292,0,0,1-.292-.291v-9.092a.292.292,0,0,1,.292-.291h7.682a.291.291,0,0,1,.291.291v9.092a.291.291,0,0,1-.291.291" transform="translate(-18.617 -27.624)" fill="#297eec"/>
            <rect id="Rectángulo_385265" data-name="Rectángulo 385265" width="78.049" height="6.852" transform="translate(55.745 192.352)" fill="#124072"/>
            <rect id="Rectángulo_385266" data-name="Rectángulo 385266" width="3.496" height="6.852" transform="translate(133.711 192.352)" fill="#4095f2"/>
            <path id="Trazado_838734" data-name="Trazado 838734" d="M129.709,212.729h-1.391a.245.245,0,0,1-.245-.245V203.3a.245.245,0,0,1,.245-.245h1.391a.245.245,0,0,1,.244.245v9.186a.245.245,0,0,1-.244.245" transform="translate(-17.423 -27.624)" fill="#297eec"/>
            <path id="Trazado_838735" data-name="Trazado 838735" d="M121.909,212.729h-1.391a.245.245,0,0,1-.245-.245V203.3a.245.245,0,0,1,.245-.245h1.391a.245.245,0,0,1,.244.245v9.186a.245.245,0,0,1-.244.245" transform="translate(-16.362 -27.624)" fill="#297eec"/>
            <path id="Trazado_838736" data-name="Trazado 838736" d="M114.108,212.729h-1.391a.245.245,0,0,1-.245-.245V203.3a.245.245,0,0,1,.245-.245h1.391a.245.245,0,0,1,.245.245v9.186a.245.245,0,0,1-.245.245" transform="translate(-15.301 -27.624)" fill="#297eec"/>
            <path id="Trazado_838737" data-name="Trazado 838737" d="M106.307,212.729h-1.391a.245.245,0,0,1-.245-.245V203.3a.245.245,0,0,1,.245-.245h1.391a.245.245,0,0,1,.244.245v9.186a.245.245,0,0,1-.244.245" transform="translate(-14.24 -27.624)" fill="#297eec"/>
            <path id="Trazado_838738" data-name="Trazado 838738" d="M98.506,212.729H97.115a.245.245,0,0,1-.245-.245V203.3a.245.245,0,0,1,.245-.245h1.391a.245.245,0,0,1,.244.245v9.186a.245.245,0,0,1-.244.245" transform="translate(-13.179 -27.624)" fill="#297eec"/>
            <rect id="Rectángulo_385267" data-name="Rectángulo 385267" width="77.967" height="2.397" transform="translate(55.745 192.352)" fill="#4095f2"/>
            <path id="Trazado_838739" data-name="Trazado 838739" d="M166.612,255.961H148.968a1.627,1.627,0,0,1-1.627-1.627V232a1.627,1.627,0,0,1,1.627-1.627h17.644A1.627,1.627,0,0,1,168.238,232v22.333a1.627,1.627,0,0,1-1.627,1.627" transform="translate(-20.045 -31.341)" fill="#124072"/>
            <path id="Trazado_838740" data-name="Trazado 838740" d="M142.379,255.961H58.908a1.524,1.524,0,0,1-1.525-1.525V231.9a1.524,1.524,0,0,1,1.525-1.525h83.471A1.524,1.524,0,0,1,143.9,231.9v22.537a1.524,1.524,0,0,1-1.525,1.525" transform="translate(-7.807 -31.341)" fill="#184785"/>
            <path id="Trazado_838741" data-name="Trazado 838741" d="M137.8,252.524H64.7a.892.892,0,0,1-.892-.892V237.479a.892.892,0,0,1,.892-.892h73.1a.892.892,0,0,1,.892.892v14.152a.892.892,0,0,1-.892.892" transform="translate(-8.681 -32.186)" fill="#fff"/>
            <rect id="Rectángulo_385268" data-name="Rectángulo 385268" width="78.049" height="6.852" transform="translate(55.745 224.621)" fill="#124072"/>
            <rect id="Rectángulo_385269" data-name="Rectángulo 385269" width="3.496" height="6.852" transform="translate(133.711 224.621)" fill="#4095f2"/>
            <path id="Trazado_838742" data-name="Trazado 838742" d="M146.034,245.75a1.583,1.583,0,1,0-1.584,1.606,1.594,1.594,0,0,0,1.584-1.606" transform="translate(-19.436 -33.214)" fill="#297eec"/>
            <path id="Trazado_838743" data-name="Trazado 838743" d="M139.894,245.75a1.584,1.584,0,1,0-1.583,1.606,1.595,1.595,0,0,0,1.583-1.606" transform="translate(-18.601 -33.214)" fill="#f89d13"/>
            <path id="Trazado_838744" data-name="Trazado 838744" d="M133.754,245.75a1.584,1.584,0,1,0-1.585,1.606,1.6,1.6,0,0,0,1.585-1.606" transform="translate(-17.765 -33.214)" fill="#297eec"/>
            <path id="Trazado_838745" data-name="Trazado 838745" d="M127.614,245.75a1.583,1.583,0,1,0-1.583,1.606,1.595,1.595,0,0,0,1.583-1.606" transform="translate(-16.93 -33.214)" fill="#297eec"/>
            <path id="Trazado_838746" data-name="Trazado 838746" d="M67.456,250.079h7.682a.292.292,0,0,0,.292-.291V240.7a.292.292,0,0,0-.292-.292H67.456a.291.291,0,0,0-.291.292v9.091a.291.291,0,0,0,.291.291" transform="translate(-9.137 -32.705)" fill="#297eec"/>
            <path id="Trazado_838747" data-name="Trazado 838747" d="M83.572,250.079h1.391a.245.245,0,0,0,.245-.244v-9.186a.245.245,0,0,0-.245-.244H83.572a.244.244,0,0,0-.244.244v9.186a.244.244,0,0,0,.244.244" transform="translate(-11.336 -32.705)" fill="#297eec"/>
            <path id="Trazado_838748" data-name="Trazado 838748" d="M91.373,250.079h1.391a.245.245,0,0,0,.245-.244v-9.186a.245.245,0,0,0-.245-.244H91.373a.244.244,0,0,0-.245.244v9.186a.244.244,0,0,0,.245.244" transform="translate(-12.397 -32.705)" fill="#297eec"/>
            <path id="Trazado_838749" data-name="Trazado 838749" d="M99.173,250.079h1.391a.245.245,0,0,0,.245-.244v-9.186a.245.245,0,0,0-.245-.244H99.173a.244.244,0,0,0-.244.244v9.186a.244.244,0,0,0,.244.244" transform="translate(-13.459 -32.705)" fill="#297eec"/>
            <path id="Trazado_838750" data-name="Trazado 838750" d="M106.975,250.079h1.391a.245.245,0,0,0,.245-.244v-9.186a.245.245,0,0,0-.245-.244h-1.391a.244.244,0,0,0-.244.244v9.186a.244.244,0,0,0,.244.244" transform="translate(-14.52 -32.705)" fill="#297eec"/>
            <path id="Trazado_838751" data-name="Trazado 838751" d="M114.775,250.079h1.391a.245.245,0,0,0,.245-.244v-9.186a.245.245,0,0,0-.245-.244h-1.391a.244.244,0,0,0-.245.244v9.186a.244.244,0,0,0,.245.244" transform="translate(-15.581 -32.705)" fill="#297eec"/>
            <rect id="Rectángulo_385270" data-name="Rectángulo 385270" width="77.967" height="2.397" transform="translate(55.745 224.621)" fill="#4095f2"/>
            <path id="Trazado_838752" data-name="Trazado 838752" d="M166.612,293.311H148.968a1.627,1.627,0,0,1-1.627-1.627V269.35a1.627,1.627,0,0,1,1.627-1.627h17.644a1.627,1.627,0,0,1,1.627,1.627v22.334a1.627,1.627,0,0,1-1.627,1.627" transform="translate(-20.045 -36.422)" fill="#124072"/>
            <path id="Trazado_838753" data-name="Trazado 838753" d="M142.379,293.311H58.908a1.525,1.525,0,0,1-1.525-1.525V269.248a1.525,1.525,0,0,1,1.525-1.525h83.471a1.525,1.525,0,0,1,1.525,1.525v22.538a1.525,1.525,0,0,1-1.525,1.525" transform="translate(-7.807 -36.422)" fill="#184785"/>
            <path id="Trazado_838754" data-name="Trazado 838754" d="M137.8,289.874H64.7a.892.892,0,0,1-.892-.892V274.829a.892.892,0,0,1,.892-.892h73.1a.892.892,0,0,1,.892.892v14.152a.892.892,0,0,1-.892.892" transform="translate(-8.681 -37.267)" fill="#fff"/>
            <path id="Trazado_838755" data-name="Trazado 838755" d="M67.045,283.1a1.583,1.583,0,1,1,1.583,1.606,1.594,1.594,0,0,1-1.583-1.606" transform="translate(-9.121 -38.295)" fill="#297eec"/>
            <path id="Trazado_838756" data-name="Trazado 838756" d="M73.185,283.1a1.583,1.583,0,1,1,1.583,1.606,1.594,1.594,0,0,1-1.583-1.606" transform="translate(-9.956 -38.295)" fill="#f89d13"/>
            <path id="Trazado_838757" data-name="Trazado 838757" d="M79.325,283.1a1.583,1.583,0,1,1,1.583,1.606,1.594,1.594,0,0,1-1.583-1.606" transform="translate(-10.792 -38.295)" fill="#297eec"/>
            <path id="Trazado_838758" data-name="Trazado 838758" d="M85.465,283.1a1.583,1.583,0,1,1,1.583,1.606,1.594,1.594,0,0,1-1.583-1.606" transform="translate(-11.627 -38.295)" fill="#f89d13"/>
            <path id="Trazado_838759" data-name="Trazado 838759" d="M144.82,287.429h-7.682a.292.292,0,0,1-.292-.291v-9.091a.292.292,0,0,1,.292-.292h7.682a.291.291,0,0,1,.291.292v9.091a.291.291,0,0,1-.291.291" transform="translate(-18.617 -37.787)" fill="#297eec"/>
            <rect id="Rectángulo_385271" data-name="Rectángulo 385271" width="78.049" height="6.852" transform="translate(55.745 256.89)" fill="#124072"/>
            <rect id="Rectángulo_385272" data-name="Rectángulo 385272" width="3.496" height="6.852" transform="translate(133.711 256.89)" fill="#4095f2"/>
            <path id="Trazado_838760" data-name="Trazado 838760" d="M129.709,287.429h-1.391a.245.245,0,0,1-.245-.245V278a.245.245,0,0,1,.245-.244h1.391a.245.245,0,0,1,.244.244v9.186a.245.245,0,0,1-.244.245" transform="translate(-17.423 -37.787)" fill="#297eec"/>
            <path id="Trazado_838761" data-name="Trazado 838761" d="M121.909,287.429h-1.391a.245.245,0,0,1-.245-.245V278a.245.245,0,0,1,.245-.244h1.391a.245.245,0,0,1,.244.244v9.186a.245.245,0,0,1-.244.245" transform="translate(-16.362 -37.787)" fill="#297eec"/>
            <path id="Trazado_838762" data-name="Trazado 838762" d="M114.108,287.429h-1.391a.245.245,0,0,1-.245-.245V278a.245.245,0,0,1,.245-.244h1.391a.245.245,0,0,1,.245.244v9.186a.245.245,0,0,1-.245.245" transform="translate(-15.301 -37.787)" fill="#297eec"/>
            <path id="Trazado_838763" data-name="Trazado 838763" d="M106.307,287.429h-1.391a.245.245,0,0,1-.245-.245V278a.245.245,0,0,1,.245-.244h1.391a.245.245,0,0,1,.244.244v9.186a.245.245,0,0,1-.244.245" transform="translate(-14.24 -37.787)" fill="#297eec"/>
            <path id="Trazado_838764" data-name="Trazado 838764" d="M98.506,287.429H97.115a.245.245,0,0,1-.245-.245V278a.245.245,0,0,1,.245-.244h1.391a.245.245,0,0,1,.244.244v9.186a.245.245,0,0,1-.244.245" transform="translate(-13.179 -37.787)" fill="#297eec"/>
            <rect id="Rectángulo_385273" data-name="Rectángulo 385273" width="77.967" height="2.397" transform="translate(55.745 256.89)" fill="#4095f2"/>
            <path id="Trazado_838765" data-name="Trazado 838765" d="M166.612,330.661H148.968a1.627,1.627,0,0,1-1.627-1.627V306.7a1.627,1.627,0,0,1,1.627-1.627h17.644a1.627,1.627,0,0,1,1.627,1.627v22.334a1.627,1.627,0,0,1-1.627,1.627" transform="translate(-20.045 -41.503)" fill="#124072"/>
            <path id="Trazado_838766" data-name="Trazado 838766" d="M142.379,330.661H58.908a1.525,1.525,0,0,1-1.525-1.525V306.6a1.525,1.525,0,0,1,1.525-1.525h83.471A1.525,1.525,0,0,1,143.9,306.6v22.538a1.525,1.525,0,0,1-1.525,1.525" transform="translate(-7.807 -41.503)" fill="#184785"/>
            <path id="Trazado_838767" data-name="Trazado 838767" d="M137.8,327.223H64.7a.893.893,0,0,1-.892-.892V312.178a.892.892,0,0,1,.892-.892h73.1a.892.892,0,0,1,.892.892V326.33a.893.893,0,0,1-.892.892" transform="translate(-8.681 -42.348)" fill="#fff"/>
            <rect id="Rectángulo_385274" data-name="Rectángulo 385274" width="78.049" height="6.852" transform="translate(55.745 289.158)" fill="#124072"/>
            <rect id="Rectángulo_385275" data-name="Rectángulo 385275" width="3.496" height="6.852" transform="translate(133.711 289.158)" fill="#4095f2"/>
            <path id="Trazado_838768" data-name="Trazado 838768" d="M67.462,320.45a1.583,1.583,0,1,1,1.583,1.606,1.594,1.594,0,0,1-1.583-1.606" transform="translate(-9.178 -43.377)" fill="#297eec"/>
            <path id="Trazado_838769" data-name="Trazado 838769" d="M73.6,320.45a1.583,1.583,0,1,1,1.583,1.606A1.594,1.594,0,0,1,73.6,320.45" transform="translate(-10.013 -43.377)" fill="#f89d13"/>
            <path id="Trazado_838770" data-name="Trazado 838770" d="M79.742,320.45a1.583,1.583,0,1,1,1.583,1.606,1.594,1.594,0,0,1-1.583-1.606" transform="translate(-10.848 -43.377)" fill="#297eec"/>
            <path id="Trazado_838771" data-name="Trazado 838771" d="M85.882,320.45a1.583,1.583,0,1,1,1.584,1.606,1.594,1.594,0,0,1-1.584-1.606" transform="translate(-11.684 -43.377)" fill="#297eec"/>
            <path id="Trazado_838772" data-name="Trazado 838772" d="M145.236,324.779h-7.682a.292.292,0,0,1-.292-.291V315.4a.292.292,0,0,1,.292-.291h7.682a.291.291,0,0,1,.291.291v9.092a.291.291,0,0,1-.291.291" transform="translate(-18.674 -42.868)" fill="#297eec"/>
            <path id="Trazado_838773" data-name="Trazado 838773" d="M130.126,324.779h-1.391a.245.245,0,0,1-.245-.244v-9.186a.245.245,0,0,1,.245-.245h1.391a.244.244,0,0,1,.244.245v9.186a.244.244,0,0,1-.244.244" transform="translate(-17.48 -42.868)" fill="#297eec"/>
            <path id="Trazado_838774" data-name="Trazado 838774" d="M122.325,324.779h-1.391a.245.245,0,0,1-.245-.244v-9.186a.245.245,0,0,1,.245-.245h1.391a.244.244,0,0,1,.244.245v9.186a.244.244,0,0,1-.244.244" transform="translate(-16.419 -42.868)" fill="#297eec"/>
            <path id="Trazado_838775" data-name="Trazado 838775" d="M114.524,324.779h-1.391a.245.245,0,0,1-.245-.244v-9.186a.245.245,0,0,1,.245-.245h1.391a.244.244,0,0,1,.245.245v9.186a.244.244,0,0,1-.245.244" transform="translate(-15.358 -42.868)" fill="#297eec"/>
            <path id="Trazado_838776" data-name="Trazado 838776" d="M106.724,324.779h-1.391a.245.245,0,0,1-.245-.244v-9.186a.245.245,0,0,1,.245-.245h1.391a.244.244,0,0,1,.244.245v9.186a.244.244,0,0,1-.244.244" transform="translate(-14.297 -42.868)" fill="#297eec"/>
            <path id="Trazado_838777" data-name="Trazado 838777" d="M98.923,324.779H97.532a.245.245,0,0,1-.245-.244v-9.186a.245.245,0,0,1,.245-.245h1.391a.244.244,0,0,1,.244.245v9.186a.244.244,0,0,1-.244.244" transform="translate(-13.235 -42.868)" fill="#297eec"/>
            <rect id="Rectángulo_385276" data-name="Rectángulo 385276" width="77.967" height="2.397" transform="translate(55.745 289.158)" fill="#4095f2"/>
            <path id="Trazado_838778" data-name="Trazado 838778" d="M143.9,352.213H57.383V343.4a1.784,1.784,0,0,1,1.784-1.784h82.952A1.785,1.785,0,0,1,143.9,343.4Z" transform="translate(-7.807 -46.474)" fill="#184785"/>
            <path id="Trazado_838779" data-name="Trazado 838779" d="M345.748,359.011H15.2a3.682,3.682,0,0,1,0-7.364H345.748a3.682,3.682,0,0,1,0,7.364" transform="translate(-1.566 -47.839)" fill="#124072"/>
            <path id="Trazado_838780" data-name="Trazado 838780" d="M288.665,84.309h10.453s12.234,11.217,13.289,19.135-3.61,39.752-18.029,38.1-19.607-46.306-5.713-57.236" transform="translate(-38.163 -11.47)" fill="#fff"/>
            <path id="Trazado_838781" data-name="Trazado 838781" d="M308.84,108.45a57.21,57.21,0,0,1-10.2,6.391c-4.751,2.081-7.891.961-5.98,8.136,5.209,19.575,17.123,13.812,17.123,13.812s8.136-29.432-.946-28.339" transform="translate(-39.738 -14.75)" fill="#f9efe8"/>
            <path id="Trazado_838782" data-name="Trazado 838782" d="M285.291,84.309s.623,30.757-2.119,54.17l17.463.143s-7.354-28.523-4.891-54.313a23.61,23.61,0,0,1,15.829,9.31c6.489,8.967,12.347,17.407,16.42,26.857l-10.284,12.231c-2.315-4-5.8-10.962-5.8-10.962l2.623,14.775s-24.656,9.9-45.41-.83l3.147-13.67s-4.472,8.992-5.611,9.954l-10.947-10.455c10.19-25.683,18.455-35.81,29.577-37.209" transform="translate(-34.788 -11.47)" fill="#4095f2"/>
            <path id="Trazado_838783" data-name="Trazado 838783" d="M273.018,125.445l3.464-15.955s-7,11.442-15.288,19.541c0,0,3.632,3.769,6.212,6.367a56.428,56.428,0,0,0,5.611-9.954" transform="translate(-35.534 -14.895)" fill="#297eec"/>
            <path id="Trazado_838784" data-name="Trazado 838784" d="M319.914,124.938l-3.464-15.955s7.916,12.615,16.206,20.714c0,0-4.106,3.768-6.685,6.366a80.241,80.241,0,0,1-6.056-11.126" transform="translate(-43.051 -14.826)" fill="#297eec"/>
            <path id="Trazado_838785" data-name="Trazado 838785" d="M337.746,170.762l-10.406-1.514.568-8.042,14.285,2.933s2.168,5.659-4.446,6.622" transform="translate(-44.532 -21.931)" fill="#f7bba6"/>
            <path id="Trazado_838786" data-name="Trazado 838786" d="M340.287,162.74s14.1-1.992,18.069-.695,2.838,4.513-.378,6.5-16.461,2.46-18.731,2.27c0,0,2.633-1.324.946-2.649s-3.119-5.306.094-5.427" transform="translate(-46.033 -21.986)" fill="#f89d13"/>
            <path id="Trazado_838787" data-name="Trazado 838787" d="M322.726,167.57s-56.706-1.128-71.631-6.476-10.306-20.84-.681-23.175,73.5,16.241,73.5,16.241Z" transform="translate(-32.853 -18.735)" fill="#cc7e29"/>
            <path id="Trazado_838788" data-name="Trazado 838788" d="M257.57,169.594l10.406-1.514-.568-8.042-14.285,2.933s-2.169,5.659,4.446,6.622" transform="translate(-34.39 -21.772)" fill="#f7bba6"/>
            <path id="Trazado_838789" data-name="Trazado 838789" d="M253.874,161.573s-14.1-1.992-18.069-.695-2.838,4.513.378,6.5,16.461,2.46,18.731,2.27c0,0-2.633-1.324-.945-2.649s3.118-5.306-.1-5.427" transform="translate(-31.735 -21.827)" fill="#f89d13"/>
            <path id="Trazado_838790" data-name="Trazado 838790" d="M262.867,167.621s56.711-.864,71.66-6.143,10.4-20.792.789-23.171-73.572,15.9-73.572,15.9Z" transform="translate(-35.609 -18.787)" fill="#d68a2f"/>
            <path id="Trazado_838791" data-name="Trazado 838791" d="M291.05,135.635l.235,5.082s-23.053,3.007-31.873-3.886c-8.236-6.437-2.631-18.579,5.122-16.6,3.245.83,26.516,15.4,26.516,15.4" transform="translate(-34.739 -16.328)" fill="#4095f2"/>
            <path id="Trazado_838792" data-name="Trazado 838792" d="M296.672,138.094a55.941,55.941,0,0,1,7.336.8c1.987.529,5.917,2.876,4.969,5.069-.327.756-1.648.635-3.2.206a19.079,19.079,0,0,0-8.873-.994Z" transform="translate(-40.36 -18.787)" fill="#f8c2ab"/>
            <path id="Trazado_838793" data-name="Trazado 838793" d="M298.9,135.635l-.235,5.082s23.053,3.007,31.873-3.886c8.236-6.437,2.631-18.579-5.122-16.6-3.245.83-26.516,15.4-26.516,15.4" transform="translate(-40.631 -16.328)" fill="#4095f2"/>
            <path id="Trazado_838794" data-name="Trazado 838794" d="M296.972,138.094a55.94,55.94,0,0,0-7.336.8c-1.987.529-5.917,2.876-4.969,5.069.327.756,1.648.635,3.2.206a19.079,19.079,0,0,1,8.873-.994Z" transform="translate(-38.707 -18.787)" fill="#f8c2ab"/>
            <path id="Trazado_838795" data-name="Trazado 838795" d="M312.576,148.2H273.928a1.687,1.687,0,0,1-1.687-1.687v-24.81a1.687,1.687,0,0,1,1.687-1.687h38.647a1.687,1.687,0,0,1,1.687,1.687v24.81a1.687,1.687,0,0,1-1.687,1.687" transform="translate(-37.037 -16.328)" fill="#124072"/>
            <path id="Trazado_838796" data-name="Trazado 838796" d="M298.868,135.9a2.74,2.74,0,1,1-2.74-2.74,2.74,2.74,0,0,1,2.74,2.74" transform="translate(-39.914 -18.115)" fill="#f9efe8"/>
            <path id="Trazado_838797" data-name="Trazado 838797" d="M299.971,74.911c.58-.049,1.876-3.535,1.876-3.535l-1.273.82a21.739,21.739,0,0,0-.639,2.108c-.178.826-.222.629.035.607" transform="translate(-40.784 -9.71)" fill="#184785"/>
            <path id="Trazado_838798" data-name="Trazado 838798" d="M299.391,71.093c-1.016,9.98.424,14.14.424,14.14s-2.021,2.442-4.4,2.442a6.307,6.307,0,0,1-4.147-1.925V76.528Z" transform="translate(-39.625 -9.672)" fill="#f7bba6"/>
            <path id="Trazado_838799" data-name="Trazado 838799" d="M292.418,77.538c3.779.064,6.278-3.563,6.34-7.146l.1-5.682A6.223,6.223,0,1,0,286.42,64.5l.056,5.667c-.06,3.583,2.163,7.308,5.941,7.372" transform="translate(-38.966 -7.906)" fill="#f7bba6"/>
            <g id="Grupo_1084350" data-name="Grupo 1084350" transform="translate(251.642 66.7)" style="mix-blend-mode: multiply;isolation: isolate">
              <g id="Grupo_1084349" data-name="Grupo 1084349">
                <g id="Grupo_1084348" data-name="Grupo 1084348" clip-path="url(#clip-path-5)">
                  <path id="Trazado_838800" data-name="Trazado 838800" d="M297.535,77.2c-.05.081-1.094,4.023-6.268,3.383l.007-.79a4.854,4.854,0,0,0,2.581-.219,6.6,6.6,0,0,0,3.68-2.374" transform="translate(-291.267 -77.203)" fill="#deac93"/>
                </g>
              </g>
            </g>
            <path id="Trazado_838801" data-name="Trazado 838801" d="M293.806,68.518a.488.488,0,1,0,.5-.479.487.487,0,0,0-.5.479" transform="translate(-39.97 -9.256)" fill="#184785"/>
            <path id="Trazado_838802" data-name="Trazado 838802" d="M287.747,68.488a.488.488,0,1,0,.5-.479.487.487,0,0,0-.5.479" transform="translate(-39.146 -9.252)" fill="#184785"/>
            <path id="Trazado_838803" data-name="Trazado 838803" d="M302.458,70.387a1.848,1.848,0,0,1-2.281,1.168c-1.426-.69-.854-1.8-.362-2.821s1.183-1.351,2.144-.861a1.861,1.861,0,0,1,.5,2.514" transform="translate(-40.714 -9.203)" fill="#f7bba6"/>
            <g id="Grupo_1084353" data-name="Grupo 1084353" transform="translate(259.851 59.286)" style="mix-blend-mode: multiply;isolation: isolate">
              <g id="Grupo_1084352" data-name="Grupo 1084352">
                <g id="Grupo_1084351" data-name="Grupo 1084351" clip-path="url(#clip-path-6)">
                  <path id="Trazado_838804" data-name="Trazado 838804" d="M302.314,69.472a.955.955,0,0,0-.346-.784.43.43,0,0,0-.64.213c-.013.052.072.085.092.032a.262.262,0,0,1,.31-.156.453.453,0,0,1,.291.273,1.277,1.277,0,0,1,.035.847,1.358,1.358,0,0,1-.47.715.751.751,0,0,1-.368.152.554.554,0,0,1-.358-.082c-.038-.029-.109,0-.086.056a.375.375,0,0,0,.257.236.747.747,0,0,0,.405-.038,1.3,1.3,0,0,0,.657-.59,1.642,1.642,0,0,0,.222-.874" transform="translate(-300.768 -68.622)" fill="#deac93"/>
                </g>
              </g>
            </g>
            <path id="Trazado_838805" data-name="Trazado 838805" d="M289.482,60.167a18.139,18.139,0,0,0,7,1.505c2.342-.071,1.262,2.65,1.342,3.289a11.047,11.047,0,0,0,.635,1.957l.027.143a.25.25,0,0,0,.492,0l.119-.712.042-.085a1,1,0,0,1,.621-.233,1.532,1.532,0,0,1,1.5.981,21.573,21.573,0,0,0,.806-5.087c-.041-2.539-2.076-6.015-6.938-6.3-6.8-.4-5.643,4.547-5.643,4.547" transform="translate(-39.372 -7.564)" fill="#184785"/>
            <path id="Trazado_838806" data-name="Trazado 838806" d="M291.184,57.106a7.764,7.764,0,0,0-3.815,1.114c-2.988,1.641-.969,8.5-.969,8.5s.43-5.059,1.292-5.813a3.139,3.139,0,0,1,2.476-.323Z" transform="translate(-38.872 -7.769)" fill="#184785"/>
            <path id="Trazado_838807" data-name="Trazado 838807" d="M290.426,75.223a.435.435,0,0,1,.174,0c.056,0,.111-.008.167-.007a2.142,2.142,0,0,0,.324-.016,2.034,2.034,0,0,0,.647-.2,1.933,1.933,0,0,0,.9-1,.1.1,0,0,1,.188.052,1.849,1.849,0,0,1-.936,1.2,1.99,1.99,0,0,1-.742.248,1.624,1.624,0,0,1-.4,0,1.283,1.283,0,0,1-.175-.049.362.362,0,0,1-.181-.086.09.09,0,0,1,.039-.148" transform="translate(-39.502 -10.058)" fill="#184785"/>
            <path id="Trazado_838808" data-name="Trazado 838808" d="M290,57.916a3.6,3.6,0,0,0,.35.545,5.747,5.747,0,0,0,.42.5c.149.158.31.3.473.448s.339.272.518.4a7.28,7.28,0,0,0,1.136.644,8.163,8.163,0,0,0,1.231.434,9.1,9.1,0,0,0,1.281.241c.217.022.433.045.65.052.109,0,.217.014.326.013h.325a12.242,12.242,0,0,0,2.572-.308,16.251,16.251,0,0,1-2.571.168,10.575,10.575,0,0,1-2.537-.338,7.974,7.974,0,0,1-2.335-1.019,6.938,6.938,0,0,1-1.007-.791,5.281,5.281,0,0,1-.832-.98" transform="translate(-39.453 -7.879)" fill="#573b2d"/>
            <path id="Trazado_838809" data-name="Trazado 838809" d="M292.711,66.187a.485.485,0,0,1,.3-.181,2.669,2.669,0,0,1,.341-.053,3.97,3.97,0,0,1,.582-.016,2.006,2.006,0,0,1,1.179.316c.108.091.016.236-.112.244a2.438,2.438,0,0,1-.554-.044,3.432,3.432,0,0,0-.532-.04l-.778.073a.572.572,0,0,1-.352-.029.189.189,0,0,1-.079-.271" transform="translate(-39.817 -8.97)" fill="#184785"/>
            <path id="Trazado_838810" data-name="Trazado 838810" d="M289.239,70.534a7.5,7.5,0,0,1,.609-1.569,7.518,7.518,0,0,0,.374-1.883.076.076,0,0,1,.152,0,5.53,5.53,0,0,1-.676,2.805,1.481,1.481,0,0,0-.081,1.334.7.7,0,0,0,.544.324,4.224,4.224,0,0,0,.647-.115c.128-.007.158.144.094.227a1.022,1.022,0,0,1-1.267.031,1.247,1.247,0,0,1-.4-1.154" transform="translate(-39.347 -9.116)" fill="#184785"/>
            <path id="Trazado_838811" data-name="Trazado 838811" d="M287.527,65.9a1.573,1.573,0,0,1,.837-.042,2.507,2.507,0,0,1,.365.084c.144.046.314.1.378.247a.155.155,0,0,1-.091.224.658.658,0,0,1-.4-.047c-.057-.015-.114-.028-.171-.038l-.074-.013-.019,0-.044-.005c-.242-.025-.481.007-.722-.005a.205.205,0,0,1-.2-.177.209.209,0,0,1,.147-.225" transform="translate(-39.096 -8.954)" fill="#184785"/>
          </g>
        </g>
        <text id="API" transform="matrix(0.996, 0.094, -0.094, 0.996, 163.644, 53.079)" fill="#fff" font-size="15" font-family="Montserrat-Bold, Montserrat" font-weight="700"><tspan x="0" y="0">A</tspan><tspan y="0" letter-spacing="-0.01em">P</tspan><tspan y="0">I</tspan></text>
      </g>
    </g>
  </g>
</svg>
