<svg id="Grupo_1084381" data-name="Grupo 1084381" xmlns="http://www.w3.org/2000/svg" xmlns:xlink="http://www.w3.org/1999/xlink" width="400.595" height="417.079" viewBox="0 0 400.595 417.079">
  <defs>
    <clipPath id="clip-path">
      <rect id="Rectángulo_385295" data-name="Rectángulo 385295" width="400.595" height="417.079" fill="none"/>
    </clipPath>
    <clipPath id="clip-path-2">
      <rect id="Rectángulo_385287" data-name="Rectángulo 385287" width="400.595" height="400.595" fill="none"/>
    </clipPath>
    <clipPath id="clip-path-4">
      <rect id="Rectángulo_385288" data-name="Rectángulo 385288" width="91.254" height="22.348" fill="none"/>
    </clipPath>
    <clipPath id="clip-path-5">
      <rect id="Rectángulo_385289" data-name="Rectángulo 385289" width="19.529" height="23.034" fill="none"/>
    </clipPath>
    <clipPath id="clip-path-6">
      <rect id="Rectángulo_385290" data-name="Rectángulo 385290" width="7.805" height="8.218" fill="none"/>
    </clipPath>
    <clipPath id="clip-path-7">
      <rect id="Rectángulo_385291" data-name="Rectángulo 385291" width="4.561" height="3.157" fill="none"/>
    </clipPath>
    <clipPath id="clip-path-8">
      <rect id="Rectángulo_385292" data-name="Rectángulo 385292" width="6.394" height="4.993" fill="none"/>
    </clipPath>
  </defs>
  <g id="Grupo_1084380" data-name="Grupo 1084380" clip-path="url(#clip-path)">
    <g id="Grupo_1084359" data-name="Grupo 1084359">
      <g id="Grupo_1084358" data-name="Grupo 1084358" clip-path="url(#clip-path-2)">
        <path id="Trazado_838812" data-name="Trazado 838812" d="M323.714,216.644A136.169,136.169,0,1,1,187.544,80.475,136.169,136.169,0,0,1,323.714,216.644" transform="translate(-10.214 -15.999)" fill="#f2f5f9"/>
        <path id="Trazado_838813" data-name="Trazado 838813" d="M303.288,453.374H300.3a10.089,10.089,0,0,0-.457-1.109l2.114-2.114a2.5,2.5,0,0,0,0-3.527l-1.2-1.2a2.493,2.493,0,0,0-3.527,0l-2.115,2.115A10,10,0,0,0,294,447.08v-2.993a2.494,2.494,0,0,0-2.493-2.494h-1.7a2.494,2.494,0,0,0-2.494,2.494v2.992a10.014,10.014,0,0,0-1.107.457l-2.115-2.114a2.493,2.493,0,0,0-3.527,0l-1.2,1.2a2.493,2.493,0,0,0,0,3.527l2.114,2.115a10.008,10.008,0,0,0-.457,1.107h-2.992a2.494,2.494,0,0,0-2.494,2.494v1.7a2.494,2.494,0,0,0,2.494,2.494h2.993a10.157,10.157,0,0,0,.457,1.106l-2.115,2.116a2.493,2.493,0,0,0,0,3.527l1.2,1.2a2.5,2.5,0,0,0,3.527,0L286.2,465.9a10.033,10.033,0,0,0,1.108.458v2.99a2.494,2.494,0,0,0,2.494,2.494h1.7A2.494,2.494,0,0,0,294,469.352v-2.991a10.244,10.244,0,0,0,1.108-.457l2.114,2.114a2.5,2.5,0,0,0,3.527,0l1.2-1.2a2.5,2.5,0,0,0,0-3.527l-2.114-2.114a10.253,10.253,0,0,0,.457-1.108h2.991a2.493,2.493,0,0,0,2.494-2.494v-1.7a2.494,2.494,0,0,0-2.494-2.494m-7.549,3.343a5.085,5.085,0,1,1-5.085-5.085,5.082,5.082,0,0,1,5.085,5.085" transform="translate(-54.778 -87.793)" fill="#dfe6ed"/>
        <path id="Trazado_838814" data-name="Trazado 838814" d="M255.715,412.437H250.65a17.22,17.22,0,0,0-.776-1.878l3.58-3.58a4.225,4.225,0,0,0,0-5.974l-2.039-2.039a4.225,4.225,0,0,0-5.974,0l-3.583,3.583a17.16,17.16,0,0,0-1.875-.773V396.7a4.225,4.225,0,0,0-4.225-4.225h-2.883a4.224,4.224,0,0,0-4.225,4.225v5.069a17.192,17.192,0,0,0-1.876.774l-3.582-3.582a4.224,4.224,0,0,0-5.974,0L215.179,401a4.223,4.223,0,0,0,0,5.974l3.581,3.582a17.172,17.172,0,0,0-.773,1.876h-5.069a4.225,4.225,0,0,0-4.225,4.225v2.884a4.225,4.225,0,0,0,4.225,4.225h5.071a17.165,17.165,0,0,0,.773,1.875l-3.583,3.583a4.223,4.223,0,0,0,0,5.974l2.039,2.039a4.222,4.222,0,0,0,5.974,0l3.581-3.58a17.224,17.224,0,0,0,1.878.776V439.5a4.224,4.224,0,0,0,4.225,4.225h2.883a4.225,4.225,0,0,0,4.225-4.225v-5.067a17.194,17.194,0,0,0,1.876-.776l3.581,3.581a4.223,4.223,0,0,0,5.974,0l2.039-2.039a4.225,4.225,0,0,0,0-5.974l-3.581-3.581a17.13,17.13,0,0,0,.776-1.876h5.067a4.225,4.225,0,0,0,4.225-4.225v-2.884A4.225,4.225,0,0,0,255.715,412.437ZM242.927,418.1a8.614,8.614,0,1,1-8.614-8.614A8.608,8.608,0,0,1,242.927,418.1Z" transform="translate(-41.49 -78.029)" fill="none" stroke="#8cabc4" stroke-miterlimit="10" stroke-width="1"/>
        <path id="Trazado_838815" data-name="Trazado 838815" d="M302.075,371.268H221.333V341.26" transform="translate(-44.003 -67.846)" fill="none" stroke="#a8c5e2" stroke-miterlimit="10" stroke-width="1"/>
        <path id="Trazado_838816" data-name="Trazado 838816" d="M344.718,282.519V104.491H221.333v113.66" transform="translate(-44.003 -20.774)" fill="none" stroke="#a8c5e2" stroke-miterlimit="10" stroke-width="1"/>
        <path id="Trazado_838817" data-name="Trazado 838817" d="M336.7,99.245A21.143,21.143,0,1,1,315.553,78.1,21.143,21.143,0,0,1,336.7,99.245" transform="translate(-58.532 -15.527)" fill="#d3e4f2"/>
        <path id="Trazado_838818" data-name="Trazado 838818" d="M446.127,107.995A15.295,15.295,0,1,1,430.833,92.7a15.295,15.295,0,0,1,15.295,15.295" transform="translate(-82.613 -18.43)" fill="#d3e4f2"/>
        <path id="Trazado_838819" data-name="Trazado 838819" d="M407.549,80.221a33.856,33.856,0,1,1-33.856-33.855,33.856,33.856,0,0,1,33.856,33.855" transform="translate(-67.563 -9.218)" fill="#d3e4f2"/>
        <path id="Trazado_838820" data-name="Trazado 838820" d="M319.853,125.633h91.2V104.491H316.043Z" transform="translate(-62.833 -20.774)" fill="#d3e4f2"/>
        <line id="Línea_154" data-name="Línea 154" x2="91.199" transform="translate(257.02 104.859)" fill="none" stroke="#4a7693" stroke-miterlimit="10" stroke-width="1"/>
        <path id="Trazado_838821" data-name="Trazado 838821" d="M339.836,86.227c4.173,4.527,5.89,12,5.89,12" transform="translate(-67.563 -17.143)" fill="none" stroke="#4a7693" stroke-miterlimit="10" stroke-width="1"/>
        <path id="Trazado_838822" data-name="Trazado 838822" d="M422.928,95.706c-6.168,2.648-5.729,11-5.729,11" transform="translate(-82.942 -19.027)" fill="none" stroke="#4a7693" stroke-miterlimit="10" stroke-width="1"/>
        <path id="Trazado_838823" data-name="Trazado 838823" d="M339.836,78.577s0-23.529,25.248-30.831" transform="translate(-67.563 -9.492)" fill="none" stroke="#4a7693" stroke-miterlimit="10" stroke-width="1"/>
        <path id="Trazado_838824" data-name="Trazado 838824" d="M415.131,196.606H304.451a2.176,2.176,0,0,1-2.176-2.175v-22.9a2.176,2.176,0,0,1,2.176-2.175h110.68a2.176,2.176,0,0,1,2.175,2.175v22.9a2.176,2.176,0,0,1-2.175,2.175" transform="translate(-60.095 -33.67)" fill="#d3e4f2"/>
        <rect id="Rectángulo_385282" data-name="Rectángulo 385282" width="98.245" height="6.768" transform="translate(250.574 162.936)" fill="#bcccdd"/>
        <rect id="Rectángulo_385283" data-name="Rectángulo 385283" width="60.828" height="13.947" transform="translate(255.643 141.779)" fill="#fff"/>
        <path id="Trazado_838825" data-name="Trazado 838825" d="M415.131,239.065H304.451a2.176,2.176,0,0,1-2.176-2.175v-22.9a2.176,2.176,0,0,1,2.176-2.175h110.68a2.176,2.176,0,0,1,2.175,2.175v22.9a2.176,2.176,0,0,1-2.175,2.175" transform="translate(-60.095 -42.111)" fill="#d3e4f2"/>
        <rect id="Rectángulo_385284" data-name="Rectángulo 385284" width="98.245" height="6.768" transform="translate(250.574 196.954)" fill="#bcccdd"/>
        <rect id="Rectángulo_385285" data-name="Rectángulo 385285" width="60.828" height="13.946" transform="translate(255.643 175.798)" fill="#fff"/>
        <path id="Trazado_838826" data-name="Trazado 838826" d="M415.131,281.524H304.451a2.176,2.176,0,0,1-2.176-2.175v-22.9a2.176,2.176,0,0,1,2.176-2.175h110.68a2.176,2.176,0,0,1,2.175,2.175v22.9a2.176,2.176,0,0,1-2.175,2.175" transform="translate(-60.095 -50.552)" fill="#d3e4f2"/>
        <rect id="Rectángulo_385286" data-name="Rectángulo 385286" width="60.828" height="13.947" transform="translate(255.643 209.815)" fill="#fff"/>
        <path id="Trazado_838827" data-name="Trazado 838827" d="M414.039,184.98a2.76,2.76,0,1,1-2.76-2.76,2.76,2.76,0,0,1,2.76,2.76" transform="translate(-81.218 -36.227)" fill="#fff"/>
        <path id="Trazado_838828" data-name="Trazado 838828" d="M428.136,184.98a2.761,2.761,0,1,1-2.76-2.76,2.76,2.76,0,0,1,2.76,2.76" transform="translate(-84.02 -36.227)" fill="#fff"/>
        <path id="Trazado_838829" data-name="Trazado 838829" d="M414.039,227.439a2.76,2.76,0,1,1-2.76-2.76,2.76,2.76,0,0,1,2.76,2.76" transform="translate(-81.218 -44.669)" fill="#fff"/>
        <path id="Trazado_838830" data-name="Trazado 838830" d="M428.136,227.439a2.761,2.761,0,1,1-2.76-2.76,2.76,2.76,0,0,1,2.76,2.76" transform="translate(-84.02 -44.669)" fill="#fff"/>
        <path id="Trazado_838831" data-name="Trazado 838831" d="M414.039,269.9a2.76,2.76,0,1,1-2.76-2.76,2.76,2.76,0,0,1,2.76,2.76" transform="translate(-81.218 -53.11)" fill="#fff"/>
        <path id="Trazado_838832" data-name="Trazado 838832" d="M428.136,269.9a2.761,2.761,0,1,1-2.76-2.76,2.76,2.76,0,0,1,2.76,2.76" transform="translate(-84.02 -53.11)" fill="#fff"/>
        <path id="Trazado_838833" data-name="Trazado 838833" d="M387.4,169.356H305.131a2.854,2.854,0,0,0-2.855,2.855V189.4" transform="translate(-60.096 -33.67)" fill="none" stroke="#4a7693" stroke-miterlimit="10" stroke-width="1"/>
        <path id="Trazado_838834" data-name="Trazado 838834" d="M387.4,212.172H305.131a2.854,2.854,0,0,0-2.855,2.855v17.185" transform="translate(-60.096 -42.182)" fill="none" stroke="#4a7693" stroke-miterlimit="10" stroke-width="1"/>
        <path id="Trazado_838835" data-name="Trazado 838835" d="M387.4,254.989H305.131a2.854,2.854,0,0,0-2.855,2.855v17.185" transform="translate(-60.096 -50.695)" fill="none" stroke="#4a7693" stroke-miterlimit="10" stroke-width="1"/>
        <path id="Trazado_838836" data-name="Trazado 838836" d="M406.481,415.746H317.207a4.608,4.608,0,0,1-4.608-4.608V321.865a4.607,4.607,0,0,1,4.608-4.608h89.274a4.607,4.607,0,0,1,4.608,4.608v89.274a4.608,4.608,0,0,1-4.608,4.608" transform="translate(-62.148 -63.074)" fill="#87a1cf"/>
        <path id="Trazado_838837" data-name="Trazado 838837" d="M366.855,317.177h-48.7a5.552,5.552,0,0,0-5.552,5.552v43.756" transform="translate(-62.148 -63.058)" fill="none" stroke="#325770" stroke-miterlimit="10" stroke-width="1"/>
        <path id="Trazado_838838" data-name="Trazado 838838" d="M367.809,427.95h48.7a5.552,5.552,0,0,0,5.552-5.552V378.642" transform="translate(-73.124 -75.278)" fill="none" stroke="#325770" stroke-miterlimit="10" stroke-width="1"/>
        <path id="Trazado_838839" data-name="Trazado 838839" d="M397.308,371.049a30.916,30.916,0,1,1-30.916-30.916,30.916,30.916,0,0,1,30.916,30.916" transform="translate(-66.696 -67.622)" fill="#d3e4f2"/>
        <path id="Trazado_838840" data-name="Trazado 838840" d="M385.687,371.049c0,17.074-6.921,30.916-15.46,30.916s-15.461-13.842-15.461-30.916,6.922-30.916,15.461-30.916S385.687,353.975,385.687,371.049Z" transform="translate(-70.531 -67.622)" fill="none" stroke="#fff" stroke-miterlimit="10" stroke-width="1"/>
        <line id="Línea_155" data-name="Línea 155" y2="61.832" transform="translate(299.696 272.511)" fill="none" stroke="#fff" stroke-miterlimit="10" stroke-width="1"/>
        <path id="Trazado_838841" data-name="Trazado 838841" d="M366.392,390.344c-17.074,0-30.916-6.922-30.916-15.46s13.842-15.461,30.916-15.461,30.916,6.922,30.916,15.461S383.466,390.344,366.392,390.344Z" transform="translate(-66.696 -71.457)" fill="none" stroke="#fff" stroke-miterlimit="10" stroke-width="1"/>
        <line id="Línea_156" data-name="Línea 156" x1="61.832" transform="translate(268.78 303.427)" fill="none" stroke="#fff" stroke-miterlimit="10" stroke-width="1"/>
        <path id="Trazado_838842" data-name="Trazado 838842" d="M237.828,100.04A21.938,21.938,0,1,1,215.89,78.1a21.938,21.938,0,0,1,21.938,21.938" transform="translate(-38.56 -15.527)" fill="#ea7468"/>
      </g>
    </g>
    <text id="SQL" transform="translate(164.141 87.199)" fill="#fff" font-size="11" font-family="Montserrat-Bold, Montserrat" font-weight="700"><tspan x="0" y="0">SQL</tspan></text>
    <g id="Grupo_1084379" data-name="Grupo 1084379">
      <g id="Grupo_1084378" data-name="Grupo 1084378" clip-path="url(#clip-path-2)">
        <path id="Trazado_838843" data-name="Trazado 838843" d="M43.659,484.231H97.182l14.68-90.317,5.014,90.317h48.89c2.712-53.582-8-112.519-12.632-135-1.248-6.019-2.058-9.424-2.058-9.424H66.007c-1.239,5.366-2.643,12.643-4.126,21.09C53.95,405.9,43.659,484.231,43.659,484.231" transform="translate(-8.68 -67.557)" fill="#c4ba8c"/>
        <path id="Trazado_838844" data-name="Trazado 838844" d="M137.881,339.806v44.7h-7.265V353.171" transform="translate(-25.968 -67.557)" fill="none" stroke="#706536" stroke-linecap="round" stroke-miterlimit="10" stroke-width="1"/>
        <line id="Línea_157" data-name="Línea 157" x1="19.982" y2="143.265" transform="translate(43.34 273.414)" fill="none" stroke="#706536" stroke-linecap="round" stroke-miterlimit="10" stroke-width="1"/>
        <line id="Línea_158" data-name="Línea 158" x2="5.053" y2="99.728" transform="translate(111.914 316.95)" fill="none" stroke="#706536" stroke-linecap="round" stroke-miterlimit="10" stroke-width="1"/>
        <g id="Grupo_1084362" data-name="Grupo 1084362" transform="translate(53.201 272.249)" opacity="0.57" style="mix-blend-mode: multiply;isolation: isolate">
          <g id="Grupo_1084361" data-name="Grupo 1084361">
            <g id="Grupo_1084360" data-name="Grupo 1084360" clip-path="url(#clip-path-4)">
              <path id="Trazado_838845" data-name="Trazado 838845" d="M66.4,360.9l.127,1.259,91.118-12.915.01-.01c-1.248-6.019-2.058-9.424-2.058-9.424H70.528c-1.239,5.366-2.643,12.642-4.126,21.09" transform="translate(-66.402 -339.806)" fill="#c4ba8c"/>
            </g>
          </g>
        </g>
        <path id="Trazado_838846" data-name="Trazado 838846" d="M132.559,182.27c12.48,3.024,33.247,8.175,39.5,15.655s12.958,83.744,12.958,83.744l-45.544-2.926-18.256-80.818Z" transform="translate(-24.099 -36.237)" fill="#87a1cf"/>
        <path id="Trazado_838847" data-name="Trazado 838847" d="M180.223,207.713c1.223,7.509,0,23.277,0,23.277" transform="translate(-35.83 -41.296)" fill="none" stroke="#3a6599" stroke-linecap="round" stroke-miterlimit="10" stroke-width="1"/>
        <path id="Trazado_838848" data-name="Trazado 838848" d="M144.238,195.955s-55.642-11.115-91.536,0l7.383,49.413,1.334,54.353h73.163l3.077-54.353Z" transform="translate(-10.478 -37.976)" fill="#87a1cf"/>
        <path id="Trazado_838849" data-name="Trazado 838849" d="M43.316,302.609h.08c-.12-.641-.08,0-.08,0" transform="translate(-8.61 -60.105)" fill="#87a1cf"/>
        <path id="Trazado_838850" data-name="Trazado 838850" d="M220.361,319.321H109.247a6.582,6.582,0,0,1-6.583-6.583v-66.75a9.221,9.221,0,0,1,9.222-9.221h107.79a7.268,7.268,0,0,1,7.268,7.268v68.7a6.583,6.583,0,0,1-6.583,6.583" transform="translate(-20.411 -47.072)" fill="#efa765"/>
        <line id="Línea_159" data-name="Línea 159" x2="69.237" transform="translate(117.45 189.695)" fill="none" stroke="#c98839" stroke-linecap="round" stroke-miterlimit="10" stroke-width="1"/>
        <path id="Trazado_838851" data-name="Trazado 838851" d="M221.992,324.381H111.17a6.582,6.582,0,0,1-6.439-7.947L115,267.982a7.267,7.267,0,0,1,7.11-5.761h109.42a7.268,7.268,0,0,1,7.11,8.775l-10.21,48.168a6.582,6.582,0,0,1-6.439,5.217" transform="translate(-20.793 -52.132)" fill="#f7c272"/>
        <path id="Trazado_838852" data-name="Trazado 838852" d="M104.767,316.433l10.271-48.452a7.268,7.268,0,0,1,7.11-5.761h109.42A7.269,7.269,0,0,1,238.679,271" transform="translate(-20.829 -52.132)" fill="none" stroke="#c98839" stroke-linecap="round" stroke-miterlimit="10" stroke-width="1"/>
        <path id="Trazado_838853" data-name="Trazado 838853" d="M55.725,315.8c5.264,5.32,83.155-2.86,83.155-2.86V292.882l-56.051-5.56L81.4,277.763l-6.666-57.606,30.91-1.218-2.532-31.831L90.04,177.35s-42.094,5.873-47.278,16.729C35.046,210.223,49.2,309.21,55.725,315.8" transform="translate(-8.056 -35.259)" fill="#87a1cf"/>
        <path id="Trazado_838854" data-name="Trazado 838854" d="M163.291,319.336c3.1-3.25,14.3-10.481,17.332-8.615s-6.53,8.615-6.53,8.615,22.858,14.326,23.791,14.477-.629,2.6-4.5,3.294a82.67,82.67,0,0,1-9.944.861l-20.15-1.679Z" transform="translate(-32.463 -61.714)" fill="#fca697"/>
        <path id="Trazado_838855" data-name="Trazado 838855" d="M176.709,320.868a11.657,11.657,0,0,1-4,2.267" transform="translate(-34.336 -63.792)" fill="none" stroke="#db7665" stroke-linecap="round" stroke-miterlimit="10" stroke-width="1"/>
        <path id="Trazado_838856" data-name="Trazado 838856" d="M183.462,335.719c4.225,3.041,15.168,6.113,15.168,6.113" transform="translate(-36.474 -66.744)" fill="none" stroke="#db7665" stroke-linecap="round" stroke-miterlimit="10" stroke-width="1"/>
        <path id="Trazado_838857" data-name="Trazado 838857" d="M180.3,338.672a38.018,38.018,0,0,0,6.519,4.914" transform="translate(-35.846 -67.332)" fill="none" stroke="#db7665" stroke-linecap="round" stroke-miterlimit="10" stroke-width="1"/>
        <path id="Trazado_838858" data-name="Trazado 838858" d="M89.941,178.311c-.294,12.385,18.4,31.555,18.4,31.555l12.446-10.446,14.174,8.7s.82-22.671,0-25.408l-20.835-9.053Z" transform="translate(-17.881 -34.526)" fill="#fff"/>
        <path id="Trazado_838859" data-name="Trazado 838859" d="M130.467,174.82v8.066c0,7.262-7.515,12.237-17.764,7.032-8.711-4.425-9.723-9.832-9.723-14.279V152.821l27.445,18.146Z" transform="translate(-20.474 -30.382)" fill="#fca697"/>
        <g id="Grupo_1084365" data-name="Grupo 1084365" transform="translate(90.465 130.007)" opacity="0.46" style="mix-blend-mode: multiply;isolation: isolate">
          <g id="Grupo_1084364" data-name="Grupo 1084364">
            <g id="Grupo_1084363" data-name="Grupo 1084363" clip-path="url(#clip-path-5)">
              <path id="Trazado_838860" data-name="Trazado 838860" d="M112.913,165.033c1.517,12.454,9.764,20.269,19.519,20.269.01-.107.01-.224.01-.332v-22.7Z" transform="translate(-112.913 -162.268)" fill="#fca695"/>
            </g>
          </g>
        </g>
        <path id="Trazado_838861" data-name="Trazado 838861" d="M139.75,106.243c15.389,10.2,14.923,24.154,12.636,35.647-2.471,12.414-11.148,21.158-22.226,21.158-14.987,0-27.237-9.291-28.484-23.718s2.171-31.379,13.289-33.087,24.786,0,24.786,0" transform="translate(-20.166 -20.971)" fill="#fca697"/>
        <path id="Trazado_838862" data-name="Trazado 838862" d="M150.849,135.014c0,1.354.688,2.452,1.537,2.452s1.537-1.1,1.537-2.452-.688-2.452-1.537-2.452-1.537,1.1-1.537,2.452" transform="translate(-29.99 -26.355)" fill="#5a2402"/>
        <path id="Trazado_838863" data-name="Trazado 838863" d="M128.819,135.014c0,1.354.688,2.452,1.537,2.452s1.537-1.1,1.537-2.452-.688-2.452-1.537-2.452-1.537,1.1-1.537,2.452" transform="translate(-25.611 -26.355)" fill="#5a2402"/>
        <path id="Trazado_838864" data-name="Trazado 838864" d="M131.488,121.5c-3.657-1.558-9.329.258-9.858,2.629s.4,3.556,1.455,3.556,3.637-3.02,8.6-1.778c1.756.439,3.045-3.024-.2-4.407" transform="translate(-24.151 -24.04)" fill="#5a2402"/>
        <path id="Trazado_838865" data-name="Trazado 838865" d="M148.19,121.5c3.045-1.558,7.768.258,8.208,2.629s-.33,3.556-1.212,3.556-3.028-3.02-7.162-1.778c-1.463.439-2.536-3.024.166-4.407" transform="translate(-29.131 -24.04)" fill="#5a2402"/>
        <path id="Trazado_838866" data-name="Trazado 838866" d="M102.214,150.044c-6.555-.645-10.2-9.551-8.448-13.907s7.574-4.145,11.07,2.754" transform="translate(-18.555 -26.485)" fill="#fca697"/>
        <g id="Grupo_1084368" data-name="Grupo 1084368" transform="translate(77.092 111.15)" opacity="0.46" style="mix-blend-mode: multiply;isolation: isolate">
          <g id="Grupo_1084367" data-name="Grupo 1084367">
            <g id="Grupo_1084366" data-name="Grupo 1084366" clip-path="url(#clip-path-6)">
              <path id="Trazado_838867" data-name="Trazado 838867" d="M97.562,138.873c-1.29.76-2.429,3.4.51,5.857a8.822,8.822,0,0,0,5.9,2.212s.5-3.432-1.37-5.41-4.165-3.239-5.035-2.66" transform="translate(-96.222 -138.731)" fill="#fca695"/>
            </g>
          </g>
        </g>
        <path id="Trazado_838868" data-name="Trazado 838868" d="M103.484,142.718c-3.059-5.217-6.118-4.343-6.7-3.032" transform="translate(-19.242 -27.572)" fill="none" stroke="#db7665" stroke-linecap="round" stroke-miterlimit="10" stroke-width="1"/>
        <path id="Trazado_838869" data-name="Trazado 838869" d="M102.457,141.174c-2.343-.723-2.488,2.39-1.614,3.164" transform="translate(-19.951 -28.045)" fill="none" stroke="#db7665" stroke-linecap="round" stroke-miterlimit="10" stroke-width="1"/>
        <path id="Trazado_838870" data-name="Trazado 838870" d="M130.9,173.764c-12.876.412-23.317-8.431-25.751-14.375" transform="translate(-20.904 -31.688)" fill="none" stroke="#db7665" stroke-linecap="round" stroke-miterlimit="10" stroke-width="1"/>
        <g id="Grupo_1084371" data-name="Grupo 1084371" transform="translate(103.899 124.66)" opacity="0.46" style="mix-blend-mode: multiply;isolation: isolate">
          <g id="Grupo_1084370" data-name="Grupo 1084370">
            <g id="Grupo_1084369" data-name="Grupo 1084369" clip-path="url(#clip-path-7)">
              <path id="Trazado_838871" data-name="Trazado 838871" d="M133.992,157.155c-1.054,0-3.9-2.118-4.243-1.419s.7,2.19,1.726,2.879,3.572-1.456,2.517-1.46" transform="translate(-129.681 -155.594)" fill="#fca695"/>
            </g>
          </g>
        </g>
        <g id="Grupo_1084374" data-name="Grupo 1084374" transform="translate(94.395 111.3)" opacity="0.46" style="mix-blend-mode: multiply;isolation: isolate">
          <g id="Grupo_1084373" data-name="Grupo 1084373">
            <g id="Grupo_1084372" data-name="Grupo 1084372" clip-path="url(#clip-path-8)">
              <path id="Trazado_838872" data-name="Trazado 838872" d="M117.818,141.415c0,1.379,1.431,2.5,3.2,2.5s3.2-1.118,3.2-2.5-1.432-2.5-3.2-2.5-3.2,1.118-3.2,2.5" transform="translate(-117.818 -138.918)" fill="#fca695"/>
            </g>
          </g>
        </g>
        <g id="Grupo_1084377" data-name="Grupo 1084377" transform="translate(122.396 111.3)" opacity="0.46" style="mix-blend-mode: multiply;isolation: isolate">
          <g id="Grupo_1084376" data-name="Grupo 1084376">
            <g id="Grupo_1084375" data-name="Grupo 1084375" clip-path="url(#clip-path-8)">
              <path id="Trazado_838873" data-name="Trazado 838873" d="M152.768,141.415c0,1.379,1.432,2.5,3.2,2.5s3.2-1.118,3.2-2.5-1.432-2.5-3.2-2.5-3.2,1.118-3.2,2.5" transform="translate(-152.768 -138.918)" fill="#fca695"/>
            </g>
          </g>
        </g>
        <path id="Trazado_838874" data-name="Trazado 838874" d="M99.2,124.632a12.13,12.13,0,0,1,6.6,9.279s3.665-10.2,1.406-17.919c0,0,6.368-3.985,8.692-9.61,0,0,9.122,6.8,18.5,6.095s1.307-7.5,1.307-7.5,10.871,9.926,13.924,11.527c0,0,1.635-8.714,0-11.527a10.8,10.8,0,0,0-3.925-3.984s2.479-5.391-5-9.142-29.36-7.112-42,7.51S95.4,124.953,95.4,124.953Z" transform="translate(-18.307 -17.619)" fill="#5a2402"/>
        <path id="Trazado_838875" data-name="Trazado 838875" d="M141.832,134.213c.457,2.5,1.852,8.178,2.509,10.816a1.263,1.263,0,0,1-1.1,1.565c-1.613.156-4.91-1-5.952-1.468" transform="translate(-27.294 -26.683)" fill="#fca697"/>
        <path id="Trazado_838876" data-name="Trazado 838876" d="M141.832,134.213c.457,2.5,1.852,8.178,2.509,10.816a1.263,1.263,0,0,1-1.1,1.565c-1.613.156-4.91-1-5.952-1.468" transform="translate(-27.294 -26.683)" fill="none" stroke="#db7665" stroke-linecap="round" stroke-miterlimit="10" stroke-width="1"/>
        <path id="Trazado_838877" data-name="Trazado 838877" d="M137.923,152.321a28.7,28.7,0,0,1-5.872-3.124.613.613,0,0,0-.969.439,4.132,4.132,0,0,0,2.192,4.026,4.019,4.019,0,0,0,4.8-.272.616.616,0,0,0-.155-1.069" transform="translate(-26.057 -29.639)" fill="#fff"/>
        <path id="Trazado_838878" data-name="Trazado 838878" d="M263.131,288.286c1.93,1.437,4.35,7.08,2.816,8.959s-1.873,5.01-2.384,6.263-3.748,7.2-10.221,7.516-11.072-1.1-11.412-3.132,11.753-1.874,11.753-1.874-11.753,1.091-12.946-1.884,14.819-3.288,14.819-3.288-11.583,2.443-12.264-.658,15.5-4.666,15.5-4.666-10.05,2.975-9.879-.313,14.217-6.923,14.217-6.923" transform="translate(-47.849 -57.314)" fill="#fca697"/>
        <path id="Trazado_838879" data-name="Trazado 838879" d="M90.486,314.61a62.981,62.981,0,0,0-11.451,12.24" transform="translate(-15.713 -62.548)" fill="none" stroke="#3a6599" stroke-linecap="round" stroke-miterlimit="10" stroke-width="1"/>
        <path id="Trazado_838880" data-name="Trazado 838880" d="M90.293,323.227l51.926-4.07,1.81-20.24-56.054-5.56s-6.846-56.329-7.876-65.225-4.478-15.19-13.7-20.42" transform="translate(-13.201 -41.296)" fill="none" stroke="#3a6599" stroke-linecap="round" stroke-miterlimit="10" stroke-width="1"/>
        <path id="Trazado_838881" data-name="Trazado 838881" d="M253.238,298.247a75.976,75.976,0,0,0,9.224-2.193" transform="translate(-50.346 -58.859)" fill="none" stroke="#db7665" stroke-linecap="round" stroke-miterlimit="10" stroke-width="1"/>
        <path id="Trazado_838882" data-name="Trazado 838882" d="M247.03,304.771c6.067-.181,12.406-.728,12.406-.728" transform="translate(-49.112 -60.447)" fill="none" stroke="#db7665" stroke-linecap="round" stroke-miterlimit="10" stroke-width="1"/>
        <path id="Trazado_838883" data-name="Trazado 838883" d="M247.03,310.477c4.876-.027,9.586-.059,9.586-.059" transform="translate(-49.112 -61.714)" fill="none" stroke="#db7665" stroke-linecap="round" stroke-miterlimit="10" stroke-width="1"/>
        <path id="Trazado_838884" data-name="Trazado 838884" d="M424.784,466.526a5.569,5.569,0,1,1-5.569-5.569,5.569,5.569,0,0,1,5.569,5.569" transform="translate(-82.237 -91.643)" fill="#d3e4f2"/>
        <path id="Trazado_838885" data-name="Trazado 838885" d="M453.61,468.83a4.029,4.029,0,1,1-4.028-4.028,4.028,4.028,0,0,1,4.028,4.028" transform="translate(-88.58 -92.408)" fill="#d3e4f2"/>
        <path id="Trazado_838886" data-name="Trazado 838886" d="M443.447,461.515a8.918,8.918,0,1,1-8.918-8.918,8.918,8.918,0,0,1,8.918,8.918" transform="translate(-84.616 -89.981)" fill="#d3e4f2"/>
        <path id="Trazado_838887" data-name="Trazado 838887" d="M420.349,473.477h24.022v-5.569H419.345Z" transform="translate(-83.37 -93.025)" fill="#d3e4f2"/>
        <path id="Trazado_838888" data-name="Trazado 838888" d="M261.879,50.942a5.569,5.569,0,1,1-5.569-5.569,5.569,5.569,0,0,1,5.569,5.569" transform="translate(-49.85 -9.021)" fill="#d3e4f2"/>
        <path id="Trazado_838889" data-name="Trazado 838889" d="M290.7,53.246a4.029,4.029,0,1,1-4.028-4.028,4.028,4.028,0,0,1,4.028,4.028" transform="translate(-56.193 -9.785)" fill="#d3e4f2"/>
        <path id="Trazado_838890" data-name="Trazado 838890" d="M280.542,45.931a8.918,8.918,0,1,1-8.918-8.918,8.918,8.918,0,0,1,8.918,8.918" transform="translate(-52.229 -7.359)" fill="#d3e4f2"/>
        <path id="Trazado_838891" data-name="Trazado 838891" d="M257.443,57.892h24.022V52.323H256.439Z" transform="translate(-50.983 -10.402)" fill="#d3e4f2"/>
        <path id="Trazado_838892" data-name="Trazado 838892" d="M61.166,62.752a11.6,11.6,0,1,1-11.6-11.6,11.6,11.6,0,0,1,11.6,11.6" transform="translate(-7.548 -10.169)" fill="#d3e4f2"/>
        <path id="Trazado_838893" data-name="Trazado 838893" d="M121.211,67.553a8.392,8.392,0,1,1-8.392-8.392,8.393,8.393,0,0,1,8.392,8.392" transform="translate(-20.761 -11.762)" fill="#d3e4f2"/>
        <path id="Trazado_838894" data-name="Trazado 838894" d="M100.043,52.314A18.577,18.577,0,1,1,81.465,33.737a18.577,18.577,0,0,1,18.577,18.577" transform="translate(-12.503 -6.707)" fill="#d3e4f2"/>
        <path id="Trazado_838895" data-name="Trazado 838895" d="M51.925,77.232h50.041v-11.6H49.834Z" transform="translate(-9.908 -13.048)" fill="#d3e4f2"/>
      </g>
    </g>
  </g>
</svg>
